<svg id="Layer_1" data-name="Layer 1" xmlns="http://www.w3.org/2000/svg" viewBox="0 0 155.89 155.89" height="100%" width="100%"><title>accidental-death</title><circle cx="77.94" cy="77.94" r="77.94" style="fill:#fb8c00"/><g id="dbhHY0"><path d="M286.78,248.83c-3.09,0-6.19.09-9.28,0-5-.18-7.12-1.84-8.47-6.62q-2.35-8.31-4.57-16.65c-1.26-4.77.83-8.73,5.1-9.84,4-1.05,7.89,1.34,9.18,5.86s2.5,9,3.59,13.6a3.16,3.16,0,0,0,3.6,2.78c4.91-.06,9.81,0,14.72,0s6.18,1,7.8,5.44c2.76,7.62,5.56,15.22,8.33,22.84a15.32,15.32,0,0,1,.85,2.74c0.44,2.74-.37,4.9-3.21,5.81a4.57,4.57,0,0,1-6.07-2.71c-2.09-4.78-3.83-9.72-5.86-14.53-4.39-10.43-1.29-8.44-12.83-8.67-1,0-1.92,0-2.88,0v0Z" transform="translate(-231.97 -158.17)" style="fill:#4d4d4d"/><path d="M275.11,283.63c-12.57,0-23.15-6.88-27.61-18.15-4-10.1-2.09-23.1,6.67-31.23,0.31-.29.6-0.61,0.93-0.88,2.22-1.84,5.27-1.84,6.88.12,1.86,2.27,1.16,4.4-.75,6.22a21.68,21.68,0,0,0-6.08,10c-2.26,8.07.93,16.54,8,21.61a21,21,0,0,0,23.75-.07,22.29,22.29,0,0,0,5.9-6.2c1.94-2.92,4.41-3.61,6.74-2.13s2.64,4.09.71,7Q291.38,283.51,275.11,283.63Z" transform="translate(-231.97 -158.17)" style="fill:#4d4d4d"/><path d="M268.88,198.07c5.13,0,8.59,3.36,8.51,8.28a8.19,8.19,0,0,1-8.54,8,8.09,8.09,0,0,1-8.46-8.4C260.43,201.26,263.84,198.07,268.88,198.07Z" transform="translate(-231.97 -158.17)" style="fill:#4d4d4d"/></g><path d="M371.77,270.15c-3.43-1-9.09-2.05-9.09-2.05A0.88,0.88,0,0,1,362,267l11-36.5a2.15,2.15,0,0,0-.33-1.74l-11-13.93a2.34,2.34,0,0,0-1.62-.78h-28.5a2.24,2.24,0,0,0-1.6.8L319.66,228.7a2.3,2.3,0,0,0-.32,1.77l10.32,36.34a0.92,0.92,0,0,1-.71,1.16s-8,1.66-8.38,1.77a2.15,2.15,0,0,0,1.24,4.11,96.42,96.42,0,0,1,48.8.44A2.15,2.15,0,0,0,371.77,270.15Z" transform="translate(-231.97 -158.17)" style="fill:#e6e6e6"/><path d="M332.12,235.65H330.9v5.52a2.29,2.29,0,0,1-.48,1.61,1.63,1.63,0,0,1-1.25.52,1.6,1.6,0,0,1-1.29-.54,2.39,2.39,0,0,1-.46-1.58V227.95a1.83,1.83,0,0,1,2.13-2.13h5.66a17.19,17.19,0,0,1,2,.1,5,5,0,0,1,1.5.4,4.34,4.34,0,0,1,1.43,1,4.26,4.26,0,0,1,.94,1.47,4.9,4.9,0,0,1,.32,1.78,4.29,4.29,0,0,1-1.08,3.07,6.23,6.23,0,0,1-3.29,1.63,6.36,6.36,0,0,1,1.77,1.45,14.73,14.73,0,0,1,1.51,2,15.15,15.15,0,0,1,1,2,3.86,3.86,0,0,1,.37,1.2,1.23,1.23,0,0,1-.22.67,1.52,1.52,0,0,1-.59.53,1.87,1.87,0,0,1-.87.19,1.69,1.69,0,0,1-1-.28,2.65,2.65,0,0,1-.69-0.7q-0.29-.42-0.78-1.24l-1.39-2.32a12.77,12.77,0,0,0-1.34-1.95,3.31,3.31,0,0,0-1.2-.91A4.13,4.13,0,0,0,332.12,235.65Zm2-7.22H330.9v4.72H334a8.74,8.74,0,0,0,2.11-.22,2.47,2.47,0,0,0,1.31-.74,2.12,2.12,0,0,0,.45-1.44,2.22,2.22,0,0,0-.36-1.26,2.2,2.2,0,0,0-1-.81A7.25,7.25,0,0,0,334.11,228.43Z" transform="translate(-231.97 -158.17)" style="fill:#fb8c00"/><path d="M346,241.17V227.63a2.28,2.28,0,0,1,.48-1.58,1.6,1.6,0,0,1,1.24-.53A1.66,1.66,0,0,1,349,226a2.26,2.26,0,0,1,.49,1.59v13.54a2.28,2.28,0,0,1-.49,1.59,1.65,1.65,0,0,1-1.27.53,1.6,1.6,0,0,1-1.24-.53A2.29,2.29,0,0,1,346,241.17Z" transform="translate(-231.97 -158.17)" style="fill:#fb8c00"/><path d="M361.28,236.3H358.1v4.86a2.27,2.27,0,0,1-.49,1.58,1.73,1.73,0,0,1-2.51,0,2.27,2.27,0,0,1-.48-1.56V227.95a2.17,2.17,0,0,1,.53-1.64,2.4,2.4,0,0,1,1.68-.49h4.46a11.7,11.7,0,0,1,3,.3,4.54,4.54,0,0,1,1.82,1,4.39,4.39,0,0,1,1.17,1.66,5.86,5.86,0,0,1,.4,2.21,4.89,4.89,0,0,1-1.62,4A7.35,7.35,0,0,1,361.28,236.3Zm-0.84-7.87H358.1v5.25h2.34a7,7,0,0,0,2.06-.26,2.4,2.4,0,0,0,1.26-.84,2.52,2.52,0,0,0,.43-1.54,2.6,2.6,0,0,0-.67-1.85Q362.77,228.43,360.44,228.43Z" transform="translate(-231.97 -158.17)" style="fill:#fb8c00"/></svg>