<?xml version="1.0" encoding="utf-8"?>
<!-- Generator: Adobe Illustrator 19.2.0, SVG Export Plug-In . SVG Version: 6.00 Build 0)  -->
<svg version="1.1" id="Layer_1" xmlns="http://www.w3.org/2000/svg" xmlns:xlink="http://www.w3.org/1999/xlink" x="0px" y="0px"
	 viewBox="0 0 155.9 155.9" style="enable-background:new 0 0 155.9 155.9;" xml:space="preserve">
<g>
	<circle style="fill:#F78D1E;" cx="77.9" cy="77.9" r="77.9"/>
	<g style="opacity:0.5;">
		<path style="fill:#4E4E4E;" d="M39.5,102c1.3,2.7,2.5,5.1,3.6,7.4c0.4,0.1,0.6,0.1,0.6,0.1c7.4-3.8,14.1-0.7,18.9,3.8
			c1.2,1.1,1.2,2.6,0.2,3.7c-1,1.1-2.4,1-3.7,0.1c-1.6-1.1-3.2-2.4-4.9-3.2c-3.1-1.5-6.2-1.2-9.1,1c0.4,0.3,0.8,0.6,1.1,0.9
			c4.1,3.3,8.3,6.5,12.4,9.8c1.6,1.3,1.8,2.9,0.7,4c-1.1,1.3-2.6,1.2-4.2-0.3c-5.4-5-11.2-9.4-17.9-12.6c-0.5-0.2-1.1-0.7-1.3-1.2
			c-1.9-3.9-3.7-7.7-5.6-11.6c-0.2-0.5-0.6-1.1-1-1.2c-5.3-1.3-6.9-5.3-6.4-9.9c0.2-1.7,0.7-3.4,1.1-5.1c0.3-1.1,0.9-1.9,2.2-1.6
			c1.3,0.4,1.3,1.3,1,2.5c-0.4,1.9-1,3.9-1,5.8c-0.1,3.8,2,5.4,5.7,4.9c2.7-0.3,5.3-0.6,8-0.8c3.3-0.3,5.3-2.3,6.9-4.9
			c0.7-1.1,1.2-2.9,3-1.8c1.7,1.1,0.4,2.4-0.2,3.6C47.4,99.2,44.2,101.5,39.5,102z"/>
		<path style="fill:#4E4E4E;" d="M50.3,141.9c2.3,0,4.1,0,6.1,0c0,1.9,0.1,3.6-0.1,5.4c0,0.3-0.8,0.6-1.6,1.2c0-2,0-3.3,0-4.9
			c-2.1,0-4,0-6.1,0c0-1.8,0-3.4,0-5.3c-2.1,0-4,0-6.1,0c0-1.9,0-3.5,0-5.3c-2.1,0-4,0-6.2,0c0-1.9,0-3.5,0-5.3c-2.1,0-4,0-6.1,0
			c0-1.8,0-3.5,0-5.3c-2.1,0-4,0-6.1,0c0-1.8,0-3.4,0-5.2c-2.1,0-4,0-6.2,0c0-1.9,0-3.5,0-5.3c-2.1,0-4,0-6,0c0-2.1,0-4,0-6.1
			c0.5,0,0.9,0,1.6,0c0,1.4,0,2.7,0,4.3c2.1,0,4,0,6,0c0,1.9,0,3.5,0,5.3c2.1,0,4,0,6.1,0c0,1.8,0,3.4,0,5.3c2.2,0,4.1,0,6.2,0
			c0,1.9,0,3.6,0,5.4c2.1,0,3.9,0,6,0c0,1.8,0,3.4,0,5.2c2.1,0,4,0,6.1,0c0,1.8,0,3.5,0,5.3c2.1,0,4,0,6.2,0
			C50.3,138.4,50.3,140.1,50.3,141.9z"/>
		<path style="fill:#4E4E4E;" d="M39.1,92.6c0,2.5-2,4.6-4.5,4.7c-2.5,0.1-4.6-2-4.7-4.5c-0.1-2.6,2-4.8,4.6-4.8
			C37,88,39.1,90,39.1,92.6z"/>
		<path style="fill:#4E4E4E;" d="M38.3,78.7c0.3-1.4,1.1-2.3,1.6-2.2c0.5,0.2,1.5,1.7,1,3c-0.5,1.3-2.2,4.7-2.5,4.6
			C38,84,37.9,80.1,38.3,78.7z"/>
		
			<ellipse transform="matrix(0.1219 -0.9925 0.9925 0.1219 -51.4037 112.4326)" style="fill:#4E4E4E;" cx="37.8" cy="85.3" rx="0.5" ry="0.5"/>
		<path style="fill:none;stroke:#4E4E4E;stroke-linecap:round;stroke-linejoin:round;stroke-miterlimit:10;" d="M57.4,107.1
			c0,0-2.7-4.1-7.5-1.2"/>
		<path style="fill:none;stroke:#4E4E4E;stroke-linecap:round;stroke-linejoin:round;stroke-miterlimit:10;" d="M57.2,104.3
			c0,0-2.7-3.2-6.4-0.9"/>
	</g>
	<g>
		<path style="fill:#4E4E4E;" d="M111.9,73.9c0-0.5-0.1-1.1-0.1-1.6c-0.3,0-0.5-0.1-0.7-0.1c-6.2,0.2-12.3,0.5-18.5,0.5
			c-2.9,0-5.1-2.4-5.1-5.3c0-2.9,2.3-5.2,5.3-5.2c1.1,0,2.2,0.2,3.3,0.1c0.7-0.1,1.6-0.5,1.8-1c2.1-4.5,4.3-8.9,6-13.5
			c1-2.8,1.3-5.8,2-8.7c-0.2-0.2-0.4-0.3-0.6-0.5c-1.2,0.2-2.4,0.3-3.6,0.7c-2.6,0.8-5.2,0.7-7.8,0c-5.4-1.5-10.3-0.5-14.4,3.4
			c-3.8,3.6-6,8.2-7.3,13.3c-2.8,10.8-2.2,21.8-1,32.8c0.1,0.7,0.5,1.5,1,2.1c1.5,1.8,3.4,1.5,5.2,1c0.6-0.5,1.5-0.8,2.5-0.8
			c0.4,0,0.8,0.1,1.2,0.2c0.4-10.7,0.7-21.5,1.1-32.2c0-1-0.5-1.9-0.8-2.9c-0.2,0-0.4,0-0.6,0l2.6-5.2c0.2,0.1,0.3,0.1,0.5,0.2
			c0,1.5,0,3,0,4.4c0,12.8,0,25.6,0,38.4c0.2,0.9,0.2,1.8,0,2.6c0,0.7,0,1.3,0,2c0,0.8,0.1,2,0.6,2.3c3.8,1.9,7.8,2.7,12.3,2.6V82.1
			c0.8,0,1.4,0.1,2.2,0.1v2.3c0,14.6,0,29.2,0,43.7c0,2.4,0.8,4.5,2.8,5.9c2.1,1.4,4.4,1.5,6.7,0.3c2.4-1.3,3.4-3.5,3.4-6.1
			C111.9,110.1,111.9,92,111.9,73.9z"/>
		<path style="fill:#4E4E4E;" d="M109.5,27.1c-0.1,6.6-5.2,11.6-11.9,11.6c-6.4,0-11.4-5.3-11.4-11.7c0.1-6.5,5.3-11.7,11.7-11.6
			C104.4,15.4,109.5,20.7,109.5,27.1z"/>
		<path style="fill:#4E4E4E;" d="M106.8,38.7c4-0.2,6.7,1.8,8.6,4.8c3.1,4.6,4.1,10,5,15.4c0.1,0.8,0.2,1.6,0.3,2.4
			c1.1,5.8-2.5,8.3-7,9.2C114.5,59.3,110.7,49.1,106.8,38.7z"/>
		<path style="fill:#4E4E4E;" d="M96.6,119.4c-0.1,3.9-3.2,6.7-7,6.2c-3.9-0.5-6.3-3.8-5.6-7.4C88.2,118.6,92.4,119,96.6,119.4z"/>
		<path style="fill:#4E4E4E;" d="M83.9,110.3c0-2.4,0-4.5,0-6.6c2.7,0.6,5.3,1.3,7.9,1.9c1,0.2,2.1,0.1,3.1,0.3
			c0.6,0.1,1.1,0.4,1.7,0.6c-0.4,0.5-0.7,1.1-1.2,1.4C91.9,109.9,88.1,110.3,83.9,110.3z"/>
		<path style="fill:#4E4E4E;" d="M83.6,113.4c4.6-1,8.7-1.8,12.9-2.7c0,1.5,0,3.5,0,5.6c-4.1,0.4-8.1,0.1-12-1.1
			C84.1,115.1,83.9,114,83.6,113.4z"/>
		<path style="fill:#4E4E4E;" d="M96.9,63.4c-1.8,2.8-3.2,5.2-4.8,7.5c-0.2,0.3-1.3,0.3-1.7,0c-1.4-1-2.1-2.5-1.7-4.2
			c0.4-1.8,1.5-3,3.4-3.2C93.5,63.3,95,63.4,96.9,63.4z"/>
		<path style="fill:#4E4E4E;" d="M79.5,94.9c0-12.5,0-25,0-37.5c0-2.3,0.2-2.5,1.6-2.4c0.8,0,1.1,0.6,1.1,1.7c0,0.8,0,1.6,0,2.4
			c0,24,0,47.9,0,71.9c0,0.7,0,1.3,0,2c0.1,1.6-0.3,2.3-1.4,2.3c-1.1,0-1.3-0.9-1.3-2.4C79.5,120.2,79.5,107.5,79.5,94.9z"/>
	</g>
</g>
</svg>
