<?xml version="1.0" encoding="utf-8"?>
<!-- Generator: Adobe Illustrator 19.2.0, SVG Export Plug-In . SVG Version: 6.00 Build 0)  -->
<svg version="1.1" id="Layer_1" xmlns="http://www.w3.org/2000/svg" xmlns:xlink="http://www.w3.org/1999/xlink" x="0px" y="0px"
	 viewBox="0 0 155.9 155.9" style="enable-background:new 0 0 155.9 155.9;" xml:space="preserve">
<g>
	<circle style="fill:#F78D1E;" cx="77.9" cy="77.9" r="77.9"/>
	<g>
		<g>
			<path style="fill:#4E4E4E;" d="M133.5,113.2c-3.6-1-9.5-2.2-9.5-2.2c-0.6-0.1-0.9-0.7-0.8-1.2l13.7-62.3c0.1-0.6-0.1-1.4-0.4-1.8
				L124.9,31c-0.4-0.5-1.1-0.9-1.7-0.9H93.3c-0.6,0-1.3,0.4-1.7,0.9L80.8,45.7c-0.3,0.5-0.6,1.3-0.5,1.9l9.1,62.1
				c0.1,0.6-0.3,1.1-0.9,1.3c0,0-8.4,1.7-8.8,1.9c-1.2,0.4-1.9,1.6-1.5,2.8c0.4,1.2,1.6,1.9,2.8,1.5c0.2-0.1,24.2-7.2,51.2,0.5
				c0.2,0.1,0.4,0.1,0.6,0.1c1,0,1.9-0.6,2.2-1.6C135.4,114.8,134.7,113.5,133.5,113.2z"/>
		</g>
		<g>
			<path style="fill:#E6E6E5;" d="M91.8,61.4h-1.3v5.8c0,0.8-0.2,1.3-0.5,1.7c-0.3,0.4-0.8,0.5-1.3,0.5c-0.6,0-1-0.2-1.4-0.6
				c-0.3-0.4-0.5-0.9-0.5-1.7V53.3c0-0.8,0.2-1.4,0.5-1.7c0.4-0.4,0.9-0.5,1.7-0.5h5.9c0.8,0,1.5,0,2.1,0.1c0.6,0.1,1.1,0.2,1.6,0.4
				c0.6,0.2,1.1,0.6,1.5,1c0.4,0.4,0.8,1,1,1.5c0.2,0.6,0.3,1.2,0.3,1.9c0,1.3-0.4,2.4-1.1,3.2c-0.8,0.8-1.9,1.4-3.5,1.7
				c0.6,0.3,1.3,0.9,1.9,1.5c0.6,0.7,1.1,1.4,1.6,2.1c0.5,0.8,0.8,1.4,1.1,2.1c0.3,0.6,0.4,1,0.4,1.3c0,0.2-0.1,0.5-0.2,0.7
				c-0.2,0.2-0.4,0.4-0.6,0.6c-0.3,0.1-0.6,0.2-0.9,0.2c-0.4,0-0.8-0.1-1-0.3c-0.3-0.2-0.5-0.4-0.7-0.7c-0.2-0.3-0.5-0.7-0.8-1.3
				l-1.5-2.4c-0.5-0.9-1-1.6-1.4-2c-0.4-0.5-0.8-0.8-1.3-1C93,61.5,92.5,61.4,91.8,61.4z M93.9,53.8h-3.4v5h3.3
				c0.9,0,1.6-0.1,2.2-0.2c0.6-0.2,1.1-0.4,1.4-0.8c0.3-0.4,0.5-0.9,0.5-1.5c0-0.5-0.1-0.9-0.4-1.3c-0.3-0.4-0.6-0.7-1.1-0.9
				C96,53.9,95.2,53.8,93.9,53.8z"/>
			<path style="fill:#E6E6E5;" d="M106.5,67.2V53c0-0.7,0.2-1.3,0.5-1.7c0.3-0.4,0.8-0.6,1.3-0.6c0.5,0,1,0.2,1.3,0.5
				c0.3,0.4,0.5,0.9,0.5,1.7v14.2c0,0.7-0.2,1.3-0.5,1.7c-0.3,0.4-0.8,0.6-1.3,0.6c-0.5,0-1-0.2-1.3-0.6
				C106.6,68.5,106.5,67.9,106.5,67.2z"/>
			<path style="fill:#E6E6E5;" d="M122.5,62.1h-3.3v5.1c0,0.7-0.2,1.3-0.5,1.7c-0.3,0.4-0.8,0.6-1.3,0.6c-0.5,0-1-0.2-1.3-0.6
				c-0.3-0.4-0.5-0.9-0.5-1.6V53.3c0-0.8,0.2-1.4,0.6-1.7c0.4-0.3,1-0.5,1.8-0.5h4.7c1.4,0,2.5,0.1,3.2,0.3c0.7,0.2,1.4,0.5,1.9,1
				c0.5,0.5,0.9,1.1,1.2,1.7c0.3,0.7,0.4,1.5,0.4,2.3c0,1.8-0.6,3.2-1.7,4.2C126.4,61.6,124.7,62.1,122.5,62.1z M121.6,53.8h-2.5
				v5.5h2.5c0.9,0,1.6-0.1,2.2-0.3c0.6-0.2,1-0.5,1.3-0.9c0.3-0.4,0.5-0.9,0.5-1.6c0-0.8-0.2-1.4-0.7-1.9
				C124.3,54.1,123.2,53.8,121.6,53.8z"/>
		</g>
	</g>
	<g style="opacity:0.5;">
		<path style="fill:#4E4E4E;" d="M53.8,92c1.3,2.7,2.5,5.1,3.6,7.4c0.4,0.1,0.6,0.1,0.6,0.1c7.4-3.8,14.1-0.7,18.9,3.8
			c1.2,1.1,1.2,2.6,0.2,3.7c-1,1.1-2.4,1-3.7,0.1c-1.6-1.1-3.2-2.4-4.9-3.2c-3.1-1.5-6.2-1.2-9.1,1c0.4,0.3,0.8,0.6,1.1,0.9
			c4.1,3.3,8.3,6.5,12.4,9.8c1.6,1.3,1.8,2.9,0.7,4c-1.1,1.3-2.6,1.2-4.2-0.3c-5.4-5-11.2-9.4-17.9-12.6c-0.5-0.2-1.1-0.7-1.3-1.2
			c-1.9-3.9-3.7-7.7-5.6-11.6c-0.2-0.5-0.6-1.1-1-1.2c-5.3-1.3-6.9-5.3-6.4-9.9c0.2-1.7,0.7-3.4,1.1-5.1c0.3-1.1,0.9-1.9,2.2-1.6
			c1.3,0.4,1.3,1.3,1,2.5c-0.4,1.9-1,3.9-1,5.8c-0.1,3.8,2,5.4,5.7,4.9c2.7-0.3,5.4-0.6,8-0.8c3.3-0.3,5.3-2.3,6.9-4.9
			c0.7-1.1,1.2-2.9,3-1.8c1.7,1.1,0.4,2.4-0.2,3.6C61.7,89.1,58.6,91.5,53.8,92z"/>
		<path style="fill:#4E4E4E;" d="M53.5,82.5c0,2.5-2,4.6-4.5,4.7c-2.5,0.1-4.6-2-4.7-4.5c-0.1-2.6,2-4.8,4.6-4.8
			C51.4,78,53.5,80,53.5,82.5z"/>
		<path style="fill:#4E4E4E;" d="M52.6,68.7c0.3-1.4,1.1-2.3,1.6-2.2c0.5,0.2,1.5,1.7,1,3c-0.5,1.3-2.2,4.7-2.5,4.6
			C52.3,74,52.3,70,52.6,68.7z"/>
		
			<ellipse transform="matrix(0.1219 -0.9925 0.9925 0.1219 -28.8325 117.8848)" style="fill:#4E4E4E;" cx="52.2" cy="75.2" rx="0.5" ry="0.5"/>
		<path style="fill:none;stroke:#4E4E4E;stroke-linecap:round;stroke-linejoin:round;stroke-miterlimit:10;" d="M71.7,97.1
			c0,0-2.7-4.1-7.5-1.2"/>
		<path style="fill:none;stroke:#4E4E4E;stroke-linecap:round;stroke-linejoin:round;stroke-miterlimit:10;" d="M71.5,94.3
			c0,0-2.7-3.2-6.4-0.9"/>
	</g>
	<path style="opacity:0.5;fill:#4E4E4E;" d="M55.5,117.1c0-3.3-0.5-4-3.6-5.2c-4.2-1.7-8.6-2.4-12.9-3.3c-1.3-0.3-2.4-0.8-3.3-1.7
		c-4.6-4.5-9.4-8.9-14-13.4c-2.2-2.1-4.7-3.3-7.8-3.1c-3.4,0.2-6.4,0-10.4,0c0,0-2.5-0.1-2.5-0.1c0.3,1.6,0.3,0,0.1,0.5
		c2.6,16,9.9,30,20.6,41.2c2.2,0,4.4-0.1,6.6-0.1c1.2,0,1.9,0.4,2.5,1.5c2.4,4.2,6,6.2,10.8,5.8c4.4-0.3,7.4-2.8,9.2-6.7
		c0.4-0.9,0.9-1.6,1.6-2.2c2.2-1.8,3.6-3.9,3.2-7C55.3,121.2,55.5,119.1,55.5,117.1z M29,108.4c-0.2,0.7-0.8,0.5-1.3,0.5
		c-3.2,0-6.3,0-9.3,0c0,0,0,0,0,0c-3,0-6.3,0-9.4,0c-1.1,0-1.5-0.3-1.5-1.4c0.1-3.1,0-6.2,0-9.4c0-1.1,0.4-1.6,1.5-1.5
		c0.1,0,0.2,0,0.3,0c9.7-0.1,7.6-0.2,14.1,5.7c1.7,1.5,3.3,3.1,4.9,4.6C28.7,107.4,29.2,107.8,29,108.4z M40.5,133.2
		c-3,0-5.4-2.4-5.3-5.4c0-3,2.4-5.3,5.4-5.3c2.9,0,5.2,2.3,5.2,5.3C45.8,130.8,43.5,133.2,40.5,133.2z"/>
</g>
</svg>
