<?xml version="1.0" encoding="utf-8"?>
<!-- Generator: Adobe Illustrator 19.2.0, SVG Export Plug-In . SVG Version: 6.00 Build 0)  -->
<svg version="1.1" id="Layer_1" xmlns="http://www.w3.org/2000/svg" xmlns:xlink="http://www.w3.org/1999/xlink" x="0px" y="0px"
	 viewBox="0 0 155.9 155.9" style="enable-background:new 0 0 155.9 155.9;" xml:space="preserve">
<g>
	<circle style="fill:#F78D1E;" cx="77.9" cy="77.9" r="77.9"/>
	<g id="dbhHY0_1_">
		<g>
			<path style="fill:#4E4E4E;" d="M54.8,90.7c-3.1,0-6.2,0.1-9.3,0c-5-0.2-7.1-1.8-8.5-6.6c-1.6-5.5-3.1-11.1-4.6-16.7
				c-1.3-4.8,0.8-8.7,5.1-9.8c4-1.1,7.9,1.3,9.2,5.9c1.3,4.5,2.5,9,3.6,13.6c0.5,2,1.6,2.8,3.6,2.8c4.9-0.1,9.8,0,14.7,0
				c4.9,0,6.2,1,7.8,5.4c2.8,7.6,5.6,15.2,8.3,22.8c0.3,0.9,0.7,1.8,0.8,2.7c0.4,2.7-0.4,4.9-3.2,5.8c-2.8,0.9-5-0.2-6.1-2.7
				c-2.1-4.8-3.8-9.7-5.9-14.5c-4.4-10.4-1.3-8.4-12.8-8.7C56.7,90.7,55.8,90.7,54.8,90.7C54.8,90.7,54.8,90.7,54.8,90.7z"/>
			<path style="fill:#4E4E4E;" d="M43.1,125.5c-12.6,0-23.2-6.9-27.6-18.2c-4-10.1-2.1-23.1,6.7-31.2c0.3-0.3,0.6-0.6,0.9-0.9
				c2.2-1.8,5.3-1.8,6.9,0.1c1.9,2.3,1.2,4.4-0.7,6.2c-2.9,2.8-5,6.1-6.1,10c-2.3,8.1,0.9,16.5,8,21.6c6.9,4.9,16.6,4.8,23.7-0.1
				c2.4-1.7,4.3-3.8,5.9-6.2c1.9-2.9,4.4-3.6,6.7-2.1c2.3,1.5,2.6,4.1,0.7,7C62.4,120.8,54,125.4,43.1,125.5z"/>
			<path style="fill:#4E4E4E;" d="M36.9,39.9c5.1,0,8.6,3.4,8.5,8.3c-0.1,4.6-3.7,8.1-8.5,8c-5,0-8.5-3.5-8.5-8.4
				C28.5,43.1,31.9,39.9,36.9,39.9z"/>
		</g>
	</g>
	<g>
		<g>
			<path style="fill:#E6E6E5;" d="M139.8,112c-3.4-1-9.1-2.1-9.1-2.1c-0.5-0.1-0.9-0.6-0.7-1.1l11-36.5c0.2-0.5,0-1.3-0.3-1.7
				l-11-13.9c-0.3-0.4-1.1-0.8-1.6-0.8H99.6c-0.5,0-1.3,0.4-1.6,0.8L87.7,70.5c-0.3,0.4-0.5,1.2-0.3,1.8l10.3,36.3
				c0.2,0.5-0.2,1.1-0.7,1.2c0,0-8,1.7-8.4,1.8c-1.1,0.3-1.8,1.5-1.4,2.7c0.3,1.1,1.5,1.8,2.7,1.4c0.2-0.1,23.1-6.8,48.8,0.4
				c0.2,0.1,0.4,0.1,0.6,0.1c0.9,0,1.8-0.6,2.1-1.6C141.6,113.5,140.9,112.3,139.8,112z"/>
		</g>
		<g>
			<path style="fill:#F78D1E;" d="M100.1,77.5h-1.2V83c0,0.7-0.2,1.3-0.5,1.6c-0.3,0.3-0.7,0.5-1.3,0.5c-0.6,0-1-0.2-1.3-0.5
				c-0.3-0.4-0.5-0.9-0.5-1.6V69.8c0-0.8,0.2-1.3,0.5-1.6c0.3-0.3,0.9-0.5,1.6-0.5h5.7c0.8,0,1.4,0,2,0.1c0.6,0.1,1.1,0.2,1.5,0.4
				c0.5,0.2,1,0.6,1.4,1c0.4,0.4,0.7,0.9,0.9,1.5c0.2,0.6,0.3,1.2,0.3,1.8c0,1.3-0.4,2.3-1.1,3.1c-0.7,0.8-1.8,1.3-3.3,1.6
				c0.6,0.3,1.2,0.8,1.8,1.5c0.6,0.6,1.1,1.3,1.5,2c0.4,0.7,0.8,1.4,1,2s0.4,1,0.4,1.2c0,0.2-0.1,0.5-0.2,0.7
				c-0.1,0.2-0.3,0.4-0.6,0.5c-0.2,0.1-0.5,0.2-0.9,0.2c-0.4,0-0.7-0.1-1-0.3c-0.3-0.2-0.5-0.4-0.7-0.7c-0.2-0.3-0.5-0.7-0.8-1.2
				l-1.4-2.3c-0.5-0.9-0.9-1.5-1.3-1.9c-0.4-0.4-0.8-0.8-1.2-0.9C101.3,77.6,100.8,77.5,100.1,77.5z M102.1,70.3h-3.2V75h3.1
				c0.8,0,1.5-0.1,2.1-0.2c0.6-0.1,1-0.4,1.3-0.7c0.3-0.3,0.5-0.8,0.5-1.4c0-0.5-0.1-0.9-0.4-1.3c-0.2-0.4-0.6-0.6-1-0.8
				C104.1,70.3,103.3,70.3,102.1,70.3z"/>
			<path style="fill:#F78D1E;" d="M114.1,83V69.5c0-0.7,0.2-1.2,0.5-1.6c0.3-0.4,0.7-0.5,1.2-0.5c0.5,0,0.9,0.2,1.3,0.5
				c0.3,0.3,0.5,0.9,0.5,1.6V83c0,0.7-0.2,1.2-0.5,1.6c-0.3,0.4-0.7,0.5-1.3,0.5c-0.5,0-0.9-0.2-1.2-0.5S114.1,83.7,114.1,83z"/>
			<path style="fill:#F78D1E;" d="M129.3,78.1h-3.2V83c0,0.7-0.2,1.2-0.5,1.6c-0.3,0.4-0.7,0.5-1.2,0.5c-0.5,0-0.9-0.2-1.3-0.5
				c-0.3-0.4-0.5-0.9-0.5-1.6V69.8c0-0.8,0.2-1.3,0.5-1.6c0.4-0.3,0.9-0.5,1.7-0.5h4.5c1.3,0,2.3,0.1,3,0.3c0.7,0.2,1.3,0.5,1.8,1
				c0.5,0.5,0.9,1,1.2,1.7c0.3,0.7,0.4,1.4,0.4,2.2c0,1.8-0.5,3.1-1.6,4C133.1,77.7,131.4,78.1,129.3,78.1z M128.5,70.3h-2.3v5.2
				h2.3c0.8,0,1.5-0.1,2.1-0.3c0.6-0.2,1-0.5,1.3-0.8c0.3-0.4,0.4-0.9,0.4-1.5c0-0.8-0.2-1.4-0.7-1.9
				C131.1,70.5,130,70.3,128.5,70.3z"/>
		</g>
	</g>
</g>
</svg>
