<svg id="Layer_1" data-name="Layer 1" xmlns="http://www.w3.org/2000/svg" viewBox="0 0 164.5 196.15"><title>ad-pd-weekly-indemnity</title><circle cx="86.56" cy="118.2" r="77.94" style="fill:#fb8c00"/><path d="M650.47,255.27l-20.83-13.44a5.44,5.44,0,0,1-1.62-7.5h0a5.44,5.44,0,0,1,7.5-1.62l20.83,13.44a5.44,5.44,0,0,1,1.62,7.5h0A5.44,5.44,0,0,1,650.47,255.27Z" transform="translate(-563.49 -117.92)" style="fill:#4d4d4d"/><path d="M670.63,245L656.2,255.31a4.23,4.23,0,0,1-5.88-1h0a4.23,4.23,0,0,1,1-5.88l14.43-10.31a4.23,4.23,0,0,1,5.88,1h0A4.23,4.23,0,0,1,670.63,245Z" transform="translate(-563.49 -117.92)" style="fill:#4d4d4d"/><circle cx="60.86" cy="91.2" r="16.69" style="fill:#4d4d4d;stroke:#4d4d4d;stroke-linecap:round;stroke-linejoin:round;stroke-width:1.81837px"/><path d="M624.35,299h0a16.74,16.74,0,0,1-16.69-16.69V244.19a16.74,16.74,0,0,1,16.69-16.69h0A16.74,16.74,0,0,1,641,244.19v38.15A16.74,16.74,0,0,1,624.35,299Z" transform="translate(-563.49 -117.92)" style="fill:#4d4d4d"/><polygon points="81.43 136.68 66.24 116.23 74.8 135.05 81.43 136.68" style="fill:#e6e6e6"/><path d="M616.47,257.89s-5.46-16.37,7.89-18.18c0,0,3.63-10.39,5.45,5.54,2.19,19.22,0,12.64,0,12.64s13.33-5,13.94,1.11c0,0,3.64,11-12.12,9.8S616.47,257.89,616.47,257.89Z" transform="translate(-563.49 -117.92)" style="fill:#fb8c00"/><path d="M616.47,257.89s-7.89-23.28,0-25.28,12.12-6.67,13.33,12.64,0,12.64,0,12.64,13.33-5,13.94,1.11c0,0,3.64,11-12.12,9.8S616.47,257.89,616.47,257.89Z" transform="translate(-563.49 -117.92)" style="fill:#4d4d4d;stroke:#4d4d4d;stroke-miterlimit:10;stroke-width:3.63674px"/><path d="M616.47,257.89s-7.89-23.28,0-25.28,12.12-6.67,13.33,12.64,0,12.64,0,12.64,13.33-5,13.94,1.11c0,0,3.64,11-12.12,9.8S616.47,257.89,616.47,257.89Z" transform="translate(-563.49 -117.92)" style="fill:#e6e6e6"/><path d="M677.81,237.87l1.08,0.1c1.26,0.09,2.5.33,3.75,0.43a10.65,10.65,0,0,0,4.93-.62,2.36,2.36,0,0,0,1.61-2.28,0.63,0.63,0,0,1,.36-0.57c0.64-.36,1.27-0.72,1.93-1,0.92-.46,1.86-0.9,2.8-1.35a4.6,4.6,0,0,1,1.19-.42,0.84,0.84,0,0,1,1,1.13,2.77,2.77,0,0,1-.89,1.28l-2.41,2a14.37,14.37,0,0,1-4.67,2.65c-1.45.49-2.85,1.11-4.34,1.5a13.91,13.91,0,0,1-3.29.41c-1.47,0-2.93,0-4.4,0a3.28,3.28,0,0,0-1.94.6,32,32,0,0,0-3.93,3.15c-0.2.2-.32,0.16-0.48,0q-2.38-2.84-4.78-5.66c-0.18-.21-0.13-0.31.08-0.44a46.21,46.21,0,0,0,3.81-2.62,10,10,0,0,0,1.54-1.52,5.56,5.56,0,0,1,4.33-2.11,13.26,13.26,0,0,1,5.36,1.19,6.93,6.93,0,0,0,2.21.68c0.67,0,1.33,0,2,.08a17.31,17.31,0,0,1,2.89.27,1.19,1.19,0,0,1,.79,2,1.82,1.82,0,0,1-.77.62,8.78,8.78,0,0,1-1.95.58,14.87,14.87,0,0,1-4.21,0c-1.06-.07-2.13-0.16-3.19-0.16a2.73,2.73,0,0,0-.38.05v0.06Z" transform="translate(-563.49 -117.92)" style="fill:#4d4d4d"/><g id="Elr2ab"><path d="M683.26,230.79c-2.59-.09-5.56.15-8.51-0.16a13.7,13.7,0,0,1-3.2-.68,5.32,5.32,0,0,1-3.65-5,17,17,0,0,1,.94-6.21,27,27,0,0,1,7.77-12.1,2.12,2.12,0,0,1,1.5-.59q5.52,0,11,0a2.13,2.13,0,0,1,1.52.56,26.53,26.53,0,0,1,8.55,15.35,11.1,11.1,0,0,1,.11,3.5c-0.33,2.62-1.95,4.25-4.71,4.86a20.9,20.9,0,0,1-4.28.49h-7.08Zm0.37-2.19c0.77,0.16,1-.21.94-0.93,0-1.24,0-1.26,1.23-1.6a4.35,4.35,0,0,0,3.34-3.51,4.43,4.43,0,0,0-1.45-4.63,8.1,8.1,0,0,0-2-1.09c-0.89-.37-1.79-0.7-2.66-1.09a1.65,1.65,0,0,1-1.16-1.49,1.79,1.79,0,0,1,1.15-1.82,2.28,2.28,0,0,1,2.62.85c0.29,0.37.31,1.07,0.81,1.09a4,4,0,0,0,1.41-.5,2.53,2.53,0,0,1,.3-0.12c0.59-.14.58-0.49,0.37-1a4.39,4.39,0,0,0-3.15-2.7,0.83,0.83,0,0,1-.79-1c0.11-.71-0.21-0.92-0.9-0.92s-1,.19-0.91.91a0.84,0.84,0,0,1-.77,1.06,4.32,4.32,0,0,0-3.39,4,4.37,4.37,0,0,0,2.61,4.53c0.5,0.24,1,.44,1.55.64a15.37,15.37,0,0,1,2.36,1,1.87,1.87,0,0,1-.07,3.18,3,3,0,0,1-3.7-.92c-0.27-.4-0.15-1.14-0.77-1.19a5,5,0,0,0-1.47.33,3,3,0,0,1-.31.08c-0.66.09-.73,0.43-0.52,1a4.78,4.78,0,0,0,3.81,3.37,0.66,0.66,0,0,1,.67.79c0,0.24,0,.48,0,0.72C682.66,228.37,682.87,228.75,683.62,228.59Z" transform="translate(-563.49 -117.92)" style="fill:#4d4d4d"/><path d="M683.61,201.74c-1.81,0-3.63,0-5.44,0a1.74,1.74,0,0,1-1.35-.55,11.53,11.53,0,0,1-2.5-3.3c-0.79-1.78.09-3.1,2-3.08a9.13,9.13,0,0,1,3.44,1c0.69,0.29,1.37.59,2,.93a3.77,3.77,0,0,0,3.6,0c1-.5,2-0.94,3.07-1.36a6.28,6.28,0,0,1,2.8-.57,1.89,1.89,0,0,1,1.83,2.6,9.91,9.91,0,0,1-3.08,4.12,1.39,1.39,0,0,1-1,.2h-5.44Z" transform="translate(-563.49 -117.92)" style="fill:#4d4d4d"/><path d="M683.64,202.66h5.19c1.07,0,1.55.37,1.58,1.16s-0.5,1.27-1.58,1.28c-2.88,0-5.75,0-8.63,0-0.67,0-1.33,0-2,0a1.21,1.21,0,0,1-1.34-1.26,1.19,1.19,0,0,1,1.42-1.16h5.35Z" transform="translate(-563.49 -117.92)" style="fill:#4d4d4d"/><path d="M683.62,228.59c0.77,0.16,1-.21.94-0.93,0-1.24,0-1.26,1.23-1.6a4.35,4.35,0,0,0,3.34-3.51,4.43,4.43,0,0,0-1.45-4.63,8.1,8.1,0,0,0-2-1.09c-0.89-.37-1.79-0.7-2.66-1.09a1.65,1.65,0,0,1-1.16-1.49,1.79,1.79,0,0,1,1.15-1.82,2.28,2.28,0,0,1,2.62.85c0.29,0.37.31,1.07,0.81,1.09a4,4,0,0,0,1.41-.5,2.53,2.53,0,0,1,.3-0.12c0.59-.14.58-0.49,0.37-1a4.39,4.39,0,0,0-3.15-2.7,0.83,0.83,0,0,1-.79-1c0.11-.71-0.21-0.92-0.9-0.92s-1,.19-0.91.91a0.84,0.84,0,0,1-.77,1.06,4.32,4.32,0,0,0-3.39,4,4.37,4.37,0,0,0,2.61,4.53c0.5,0.24,1,.44,1.55.64a15.37,15.37,0,0,1,2.36,1,1.87,1.87,0,0,1-.07,3.18,3,3,0,0,1-3.7-.92c-0.27-.4-0.15-1.14-0.77-1.19a5,5,0,0,0-1.47.33,3,3,0,0,1-.31.08c-0.66.09-.73,0.43-0.52,1a4.78,4.78,0,0,0,3.81,3.37,0.66,0.66,0,0,1,.67.79c0,0.24,0,.48,0,0.72C682.66,228.37,682.87,228.75,683.62,228.59Z" transform="translate(-563.49 -117.92)" style="fill:#e6e6e6"/></g><circle cx="38.97" cy="38.97" r="38.97" style="fill:#fb8c00"/><g id="dbhHY0"><path d="M590.9,163.24c-1.55,0-3.09,0-4.64,0-2.52-.09-3.56-0.92-4.23-3.31q-1.17-4.15-2.29-8.33c-0.63-2.39.42-4.37,2.55-4.92a3.78,3.78,0,0,1,4.59,2.93c0.65,2.25,1.25,4.52,1.8,6.8a1.58,1.58,0,0,0,1.8,1.39c2.45,0,4.91,0,7.36,0s3.09,0.49,3.9,2.72c1.38,3.81,2.78,7.61,4.16,11.42a7.66,7.66,0,0,1,.42,1.37,2.31,2.31,0,0,1-1.6,2.91,2.29,2.29,0,0,1-3-1.35c-1-2.39-1.91-4.86-2.93-7.27-2.2-5.22-.64-4.22-6.41-4.34H590.9Z" transform="translate(-563.49 -117.92)" style="fill:#4d4d4d"/><path d="M585.06,180.64A14.39,14.39,0,0,1,574.59,156c0.16-.14.3-0.3,0.46-0.44a2.42,2.42,0,0,1,3.44.06c0.93,1.14.58,2.2-.37,3.11a10.84,10.84,0,0,0-3,5,9.94,9.94,0,0,0,4,10.81,10.51,10.51,0,0,0,11.87,0,11.14,11.14,0,0,0,3-3.1c1-1.46,2.21-1.81,3.37-1.06s1.32,2,.36,3.51A14.35,14.35,0,0,1,585.06,180.64Z" transform="translate(-563.49 -117.92)" style="fill:#4d4d4d"/><path d="M581.95,137.86A4,4,0,0,1,586.2,142a4.09,4.09,0,0,1-4.27,4,4,4,0,0,1-4.23-4.2A3.91,3.91,0,0,1,581.95,137.86Z" transform="translate(-563.49 -117.92)" style="fill:#4d4d4d"/></g><path d="M633.39,173.9c-1.72-.48-4.55-1-4.55-1a0.44,0.44,0,0,1-.35-0.57L634,154.06a1.08,1.08,0,0,0-.17-0.87l-5.5-6.88a1.09,1.09,0,0,0-.81-0.31H613.29a1,1,0,0,0-.8.32l-5.15,6.9a1.1,1.1,0,0,0-.16.86l5.16,18.16a0.45,0.45,0,0,1-.35.58s-4,.83-4.19.88a1.07,1.07,0,1,0,.62,2.05,48.21,48.21,0,0,1,24.4.22A1.07,1.07,0,0,0,633.39,173.9Z" transform="translate(-563.49 -117.92)" style="fill:#e6e6e6"/><path d="M613.57,156.65H613v2.76a1.15,1.15,0,0,1-.24.8,0.82,0.82,0,0,1-.63.26,0.8,0.8,0,0,1-.64-0.27,1.19,1.19,0,0,1-.23-0.79V152.8a0.91,0.91,0,0,1,1.07-1.07h2.83a8.6,8.6,0,0,1,1,0,2.52,2.52,0,0,1,.75.2,2.17,2.17,0,0,1,.71.49,2.13,2.13,0,0,1,.47.74,2.45,2.45,0,0,1,.16.89,2.15,2.15,0,0,1-.54,1.54,3.11,3.11,0,0,1-1.64.81,3.18,3.18,0,0,1,.88.73,7.37,7.37,0,0,1,.75,1,7.59,7.59,0,0,1,.52,1,1.94,1.94,0,0,1,.18.6,0.61,0.61,0,0,1-.11.34,0.76,0.76,0,0,1-.3.26,0.93,0.93,0,0,1-.43.1,0.84,0.84,0,0,1-.49-0.14,1.32,1.32,0,0,1-.34-0.35q-0.14-.21-0.39-0.62l-0.7-1.16a6.38,6.38,0,0,0-.67-1,1.66,1.66,0,0,0-.6-0.46A2.07,2.07,0,0,0,613.57,156.65Zm1-3.61H613v2.36h1.56a4.36,4.36,0,0,0,1.05-.11,1.24,1.24,0,0,0,.65-0.37,1.06,1.06,0,0,0,.23-0.72,1.08,1.08,0,0,0-.69-1A3.63,3.63,0,0,0,614.56,153Z" transform="translate(-563.49 -117.92)" style="fill:#fb8c00"/><path d="M620.53,159.41v-6.77a1.14,1.14,0,0,1,.24-0.79,0.8,0.8,0,0,1,.62-0.26,0.83,0.83,0,0,1,.64.26,1.13,1.13,0,0,1,.24.79v6.77a1.14,1.14,0,0,1-.24.8,0.82,0.82,0,0,1-.64.26,0.8,0.8,0,0,1-.62-0.27A1.14,1.14,0,0,1,620.53,159.41Z" transform="translate(-563.49 -117.92)" style="fill:#fb8c00"/><path d="M628.15,157h-1.59v2.43a1.14,1.14,0,0,1-.25.79,0.87,0.87,0,0,1-1.25,0,1.13,1.13,0,0,1-.24-0.78V152.8a1.08,1.08,0,0,1,.26-0.82,1.2,1.2,0,0,1,.84-0.25h2.23a5.85,5.85,0,0,1,1.52.15,2.27,2.27,0,0,1,.91.49,2.19,2.19,0,0,1,.58.83,2.93,2.93,0,0,1,.2,1.11,2.45,2.45,0,0,1-.81,2A3.68,3.68,0,0,1,628.15,157ZM627.73,153h-1.17v2.63h1.17a3.5,3.5,0,0,0,1-.13,1.2,1.2,0,0,0,.63-0.42,1.26,1.26,0,0,0,.22-0.77,1.3,1.3,0,0,0-.33-0.93A2.23,2.23,0,0,0,627.73,153Z" transform="translate(-563.49 -117.92)" style="fill:#fb8c00"/></svg>