<svg id="Layer_1" data-name="Layer 1" xmlns="http://www.w3.org/2000/svg" viewBox="0 0 164.5 196.15"><title>ad-pd-medical-reimbursement</title><circle cx="86.56" cy="118.2" r="77.94" style="fill:#fb8c00"/><g id="_8QZi7m" data-name="8QZi7m"><path d="M459,262.23c0.67-2.57-.35-3.87-2.9-4.67s-3.9-3.23-3.68-6a6,6,0,0,1,4.8-5.74c1.2-.27,2-0.56,1.82-2a1,1,0,0,1,1.08-1.22,1,1,0,0,1,.95,1.3c-0.15,1.23.39,1.66,1.54,1.87a6.16,6.16,0,0,1,4.59,3.68,2.32,2.32,0,0,1-.18,2.8,2,2,0,0,1-2.2.57,2,2,0,0,1-1.27-1.53,3.67,3.67,0,0,0-1.51-2.12c-0.5-.32-0.91-0.35-0.92.39,0,1.62,0,3.23,0,4.85a0.92,0.92,0,0,0,.78.88c0.62,0.21,1.24.41,1.86,0.63,2.52,0.91,4.2,2.58,4.46,5.34a6.63,6.63,0,0,1-3.49,6.87,7,7,0,0,1-2.49.89,1.18,1.18,0,0,0-1.16,1.49,5.12,5.12,0,0,1,0,1.15,0.91,0.91,0,0,1-.88.9,1,1,0,0,1-1-.74,0.69,0.69,0,0,1-.08-0.33c0.31-1.78-.57-2.35-2.21-2.82a6.69,6.69,0,0,1-4.94-5.17,2.19,2.19,0,0,1,1.58-2.88,2,2,0,0,1,2.41,1.46,6.13,6.13,0,0,0,1.77,3,1.16,1.16,0,0,0,1.11.46c0.42-.18.22-0.69,0.23-1C459,263.77,459,263,459,262.23Zm2.11,0.29h0q0,1.26,0,2.53c0,0.77.37,0.91,1,.65a3.35,3.35,0,0,0,2.13-3.35,3,3,0,0,0-2.49-2.79c-0.56-.15-0.69.07-0.68,0.55C461.07,260.91,461.07,261.72,461.07,262.52Zm-2.12-10.86h0c0-.69,0-1.38,0-2.06,0-.54-0.27-0.79-0.82-0.56a2.31,2.31,0,0,0-1.66,1.88c-0.11,1-.18,2,0.82,2.68,0.43,0.28.91,0.77,1.43,0.49s0.19-.84.22-1.28S458.94,252,458.94,251.66Z" transform="translate(-392.19 -117.92)" style="fill:#4d4d4d"/><path d="M477,231h22c2,0,3.33.92,3.3,2.39S501,235.9,499,235.89H455.17a8.08,8.08,0,0,1-1.27-.06,2.47,2.47,0,0,1-2.13-2.71,2.24,2.24,0,0,1,2.44-2.09q9.12,0,18.24,0H477Z" transform="translate(-392.19 -117.92)" style="fill:#e6e6e6"/><path d="M477,219.24h22.5a2.37,2.37,0,0,1,2.67,1.87c0.39,1.53-.79,2.91-2.66,3-2.35.06-4.69,0-7,0H455.9a8.1,8.1,0,0,1-2.18-.16,2.37,2.37,0,0,1,.56-4.7c5.39,0,10.77,0,16.16,0H477Z" transform="translate(-392.19 -117.92)" style="fill:#e6e6e6"/><path d="M496.17,193.23h1c1.58,0,1.58,0,1.58,1.64,0,0.72,0,1.45,0,2.17a0.72,0.72,0,0,0,.88.86c1,0,1.91,0,2.86,0a0.76,0.76,0,0,1,.94.9q0,1.6,0,3.21a0.81,0.81,0,0,1-1,1c-1,0-1.91,0-2.86,0a0.69,0.69,0,0,0-.82.82c0,1,0,1.91,0,2.86a0.77,0.77,0,0,1-.88.88,23.13,23.13,0,0,1-3.37,0,0.71,0.71,0,0,1-.81-0.85c0-.92,0-1.85,0-2.77a0.75,0.75,0,0,0-.91-0.92c-1,0-1.91,0-2.86,0a0.75,0.75,0,0,1-.9-0.87c0-1.13,0-2.25,0-3.38a0.7,0.7,0,0,1,.85-0.8c1,0,2,0,2.95,0a0.71,0.71,0,0,0,.87-0.86c0-1,0-2,0-2.95a0.72,0.72,0,0,1,.88-0.87c0.55,0,1.1,0,1.65,0h0Z" transform="translate(-392.19 -117.92)" style="fill:#4d4d4d"/><path d="M455.56,206.47h-3.38a1.27,1.27,0,0,1-1-.39,2,2,0,0,1-.31-1.23v-9.78a1.91,1.91,0,0,1,.32-1.24,1.29,1.29,0,0,1,1-.38h3.58a7.17,7.17,0,0,1,1.37.11,2.66,2.66,0,0,1,1,.44,2.91,2.91,0,0,1,.69.7,3.26,3.26,0,0,1,.46.93,3.63,3.63,0,0,1,.16,1.08,3,3,0,0,1-1.66,2.86,3.11,3.11,0,0,1,2.18,3.18,4.05,4.05,0,0,1-.48,2,3,3,0,0,1-1.28,1.29,4,4,0,0,1-1.16.35A10,10,0,0,1,455.56,206.47Zm-2.5-11v3.37h2.05a3.54,3.54,0,0,0,1.29-.19,1.32,1.32,0,0,0,.7-0.71,1.83,1.83,0,0,0,.19-0.83,1.35,1.35,0,0,0-.6-1.31,3.94,3.94,0,0,0-1.82-.32h-1.82Zm2.33,5.26h-2.33v3.8h2.41q2.27,0,2.27-1.93a1.67,1.67,0,0,0-.59-1.43A2.9,2.9,0,0,0,455.39,200.69Z" transform="translate(-392.19 -117.92)" style="fill:#4d4d4d;stroke:#4d4d4d;stroke-linecap:round;stroke-linejoin:round"/><path d="M462,205.09V194.83a1.94,1.94,0,0,1,.31-1.2,1,1,0,0,1,.8-0.4,1,1,0,0,1,.82.4,1.92,1.92,0,0,1,.31,1.2v10.26a1.94,1.94,0,0,1-.31,1.21,1,1,0,0,1-.82.4,1,1,0,0,1-.8-0.4A1.94,1.94,0,0,1,462,205.09Z" transform="translate(-392.19 -117.92)" style="fill:#4d4d4d;stroke:#4d4d4d;stroke-linecap:round;stroke-linejoin:round"/><path d="M469,194.83v9.47h4.54a1.09,1.09,0,0,1,.83.31,1.1,1.1,0,0,1,.29.78,1.07,1.07,0,0,1-.29.78,1.11,1.11,0,0,1-.84.3H468.1a1.3,1.3,0,0,1-1.05-.38,1.91,1.91,0,0,1-.32-1.23v-10a2,2,0,0,1,.31-1.2,1,1,0,0,1,.8-0.4,1,1,0,0,1,.82.4A1.92,1.92,0,0,1,469,194.83Z" transform="translate(-392.19 -117.92)" style="fill:#4d4d4d;stroke:#4d4d4d;stroke-linecap:round;stroke-linejoin:round"/><path d="M478.3,194.83v9.47h4.54a1.09,1.09,0,0,1,.83.31,1.1,1.1,0,0,1,.29.78,1.08,1.08,0,0,1-.29.78,1.11,1.11,0,0,1-.84.3h-5.41a1.3,1.3,0,0,1-1.05-.38,1.91,1.91,0,0,1-.32-1.23v-10a2,2,0,0,1,.31-1.2,1,1,0,0,1,.8-0.4,1,1,0,0,1,.82.4A1.92,1.92,0,0,1,478.3,194.83Z" transform="translate(-392.19 -117.92)" style="fill:#4d4d4d;stroke:#4d4d4d;stroke-linecap:round;stroke-linejoin:round"/><path d="M490.7,266.38c3.08,0,6.15,0,9.23,0a2.49,2.49,0,0,1,2.69,2.53,2.29,2.29,0,0,1-2.59,2.32q-9.29,0-18.57,0c-1.73,0-2.65-.88-2.67-2.36s1-2.47,2.69-2.48C484.54,266.35,487.62,266.38,490.7,266.38Z" transform="translate(-392.19 -117.92)" style="fill:#e6e6e6"/><path d="M490.41,259.45c-3,0-6,0-9,0a2.48,2.48,0,0,1-2.58-1.72,2.38,2.38,0,0,1,2.5-3.13c2.88,0,5.76,0,8.65,0h9c0.23,0,.46,0,0.69,0A2.55,2.55,0,0,1,502.3,257a2.49,2.49,0,0,1-2.66,2.47C496.56,259.48,493.48,259.45,490.41,259.45Z" transform="translate(-392.19 -117.92)" style="fill:#e6e6e6"/><path d="M490.59,247.67c-3,0-6.07,0-9.1,0-1.59,0-2.51-.73-2.68-2a2.33,2.33,0,0,1,2.49-2.86q9.22,0,18.44,0a2.4,2.4,0,0,1,2.55,2.42,2.43,2.43,0,0,1-2.58,2.41c-3,0-6.07,0-9.1,0h0Z" transform="translate(-392.19 -117.92)" style="fill:#e6e6e6"/><polygon points="49.59 167.91 54.26 163.91 58.21 167.91 62.76 163.91 67.5 167.91 72.61 163.91 76.94 167.91 82.26 163.91 87.01 167.91 93 163.91 97.72 167.91 102.75 163.91 107.5 167.91 113 163.91 117.83 167.91 117.83 65.16 49.59 65.16 49.59 167.91" style="fill:none;stroke:#e6e6e6;stroke-linecap:round;stroke-linejoin:round;stroke-width:3px"/></g><circle cx="38.97" cy="38.97" r="38.97" style="fill:#fb8c00"/><g id="dbhHY0"><path d="M419.59,163.24c-1.55,0-3.09,0-4.64,0-2.52-.09-3.56-0.92-4.23-3.31q-1.17-4.15-2.29-8.33c-0.63-2.39.42-4.37,2.55-4.92a3.78,3.78,0,0,1,4.59,2.93c0.65,2.25,1.25,4.52,1.8,6.8a1.58,1.58,0,0,0,1.8,1.39c2.45,0,4.91,0,7.36,0s3.09,0.49,3.9,2.72c1.38,3.81,2.78,7.61,4.16,11.42a7.66,7.66,0,0,1,.42,1.37,2.31,2.31,0,0,1-1.6,2.91,2.29,2.29,0,0,1-3-1.35c-1-2.39-1.91-4.86-2.93-7.27-2.2-5.22-.64-4.22-6.41-4.34h-1.44Z" transform="translate(-392.19 -117.92)" style="fill:#4d4d4d"/><path d="M413.76,180.64A14.39,14.39,0,0,1,403.29,156c0.16-.14.3-0.3,0.46-0.44a2.42,2.42,0,0,1,3.44.06c0.93,1.14.58,2.2-.37,3.11a10.84,10.84,0,0,0-3,5,9.94,9.94,0,0,0,4,10.81,10.51,10.51,0,0,0,11.87,0,11.15,11.15,0,0,0,3-3.1c1-1.46,2.21-1.81,3.37-1.06s1.32,2,.36,3.51A14.35,14.35,0,0,1,413.76,180.64Z" transform="translate(-392.19 -117.92)" style="fill:#4d4d4d"/><path d="M410.65,137.86A4,4,0,0,1,414.9,142a4.09,4.09,0,0,1-4.27,4,4,4,0,0,1-4.23-4.2A3.91,3.91,0,0,1,410.65,137.86Z" transform="translate(-392.19 -117.92)" style="fill:#4d4d4d"/></g><path d="M462.09,173.9c-1.72-.48-4.55-1-4.55-1a0.44,0.44,0,0,1-.35-0.57l5.52-18.25a1.08,1.08,0,0,0-.17-0.87l-5.5-6.88a1.09,1.09,0,0,0-.81-0.31H442a1,1,0,0,0-.8.32l-5.15,6.9a1.1,1.1,0,0,0-.16.86L441,172.24a0.45,0.45,0,0,1-.35.58s-4,.83-4.19.88a1.07,1.07,0,1,0,.62,2.05,48.2,48.2,0,0,1,24.4.22A1.07,1.07,0,0,0,462.09,173.9Z" transform="translate(-392.19 -117.92)" style="fill:#e6e6e6"/><path d="M442.26,156.65h-0.61v2.76a1.15,1.15,0,0,1-.24.8,0.82,0.82,0,0,1-.63.26,0.8,0.8,0,0,1-.64-0.27,1.19,1.19,0,0,1-.23-0.79V152.8a0.91,0.91,0,0,1,1.07-1.07h2.83a8.6,8.6,0,0,1,1,0,2.52,2.52,0,0,1,.75.2,2.17,2.17,0,0,1,.71.49,2.13,2.13,0,0,1,.47.74,2.45,2.45,0,0,1,.16.89,2.15,2.15,0,0,1-.54,1.54,3.11,3.11,0,0,1-1.64.81,3.18,3.18,0,0,1,.88.73,7.37,7.37,0,0,1,.75,1,7.57,7.57,0,0,1,.52,1,1.93,1.93,0,0,1,.18.6,0.61,0.61,0,0,1-.11.34,0.76,0.76,0,0,1-.3.26,0.93,0.93,0,0,1-.43.1,0.84,0.84,0,0,1-.49-0.14,1.32,1.32,0,0,1-.34-0.35q-0.14-.21-0.39-0.62l-0.7-1.16a6.38,6.38,0,0,0-.67-1,1.66,1.66,0,0,0-.6-0.46A2.07,2.07,0,0,0,442.26,156.65Zm1-3.61h-1.61v2.36h1.56a4.36,4.36,0,0,0,1.05-.11,1.24,1.24,0,0,0,.65-0.37,1.06,1.06,0,0,0,.23-0.72,1.11,1.11,0,0,0-.18-0.63,1.1,1.1,0,0,0-.5-0.41A3.63,3.63,0,0,0,443.26,153Z" transform="translate(-392.19 -117.92)" style="fill:#fb8c00"/><path d="M449.23,159.41v-6.77a1.14,1.14,0,0,1,.24-0.79,0.8,0.8,0,0,1,.62-0.26,0.83,0.83,0,0,1,.64.26,1.13,1.13,0,0,1,.24.79v6.77a1.14,1.14,0,0,1-.24.8,0.82,0.82,0,0,1-.64.26,0.8,0.8,0,0,1-.62-0.27A1.14,1.14,0,0,1,449.23,159.41Z" transform="translate(-392.19 -117.92)" style="fill:#fb8c00"/><path d="M456.85,157h-1.59v2.43a1.14,1.14,0,0,1-.25.79,0.87,0.87,0,0,1-1.25,0,1.13,1.13,0,0,1-.24-0.78V152.8a1.08,1.08,0,0,1,.26-0.82,1.2,1.2,0,0,1,.84-0.25h2.23a5.85,5.85,0,0,1,1.52.15,2.27,2.27,0,0,1,.91.49,2.19,2.19,0,0,1,.58.83,2.93,2.93,0,0,1,.2,1.11,2.45,2.45,0,0,1-.81,2A3.68,3.68,0,0,1,456.85,157ZM456.43,153h-1.17v2.63h1.17a3.5,3.5,0,0,0,1-.13,1.2,1.2,0,0,0,.63-0.42,1.26,1.26,0,0,0,.22-0.77,1.3,1.3,0,0,0-.33-0.93A2.23,2.23,0,0,0,456.43,153Z" transform="translate(-392.19 -117.92)" style="fill:#fb8c00"/></svg>