<svg id="Layer_1" data-name="Layer 1" xmlns="http://www.w3.org/2000/svg" viewBox="0 0 155.89 155.89"><title>algorithm-powered</title><circle cx="77.94" cy="77.94" r="77.94" style="fill:#fb8c00"/><g id="nkTDXT"><path d="M2269.19,728.74a32.08,32.08,0,0,1,4.93,0c2.07,0,3.09,1.1,3.15,3.18,0,0.88,0,1.75,0,2.63a3.06,3.06,0,0,1-3.36,3.36c-3.4,0-6.81,0-10.21,0-1.26,0-1.71.38-1.73,1.67-0.07,4.66-1.92,6.51-6.63,6.59-1.34,0-1.66.55-1.63,1.77,0.06,3.25,0,6.5,0,9.75,0,2.69-1.07,3.72-3.71,3.81-4.35.15-5.83-.42-5.54-5.23,0.17-2.82,0-5.66,0-8.48,0-1.11-.25-1.65-1.44-1.59s-2.48.05-3.71,0a1.2,1.2,0,0,0-1.44,1.47c0,3.4,0,6.81,0,10.21,0,2.51-1.08,3.57-3.57,3.6-5.26.06-5.61-.28-5.61-5.56,0-2.63-.08-5.26,0-7.89,0.06-1.48-.52-1.93-1.89-1.83a22.59,22.59,0,0,1-3.09,0c-1.31-.09-1.69.49-1.66,1.74,0.06,3.3,0,6.6,0,9.9,0,2.61-1,3.64-3.65,3.65-5.15,0-5.53-.35-5.54-5.5,0-2.68-.06-5.36,0-8,0-1.39-.47-1.84-1.8-1.75a29.19,29.19,0,0,1-3.4,0c-1.08,0-1.44.43-1.43,1.48,0,3.45,0,6.91,0,10.36,0,2.35-1.07,3.39-3.4,3.43-0.77,0-1.55,0-2.32,0-2.35,0-3.45-1.16-3.46-3.57,0-3.25-.06-6.5,0-9.74,0-1.43-.35-2-1.89-2-4.31,0-6.37-2.06-6.36-6.36,0-1.54-.55-1.92-2-1.88-3.25.09-6.5,0-9.74,0-2.5,0-3.54-1.08-3.58-3.6,0-.41,0-0.83,0-1.24-0.25-4,1.66-4.48,4.66-4.46s6.07,0,9.11.12a1.25,1.25,0,0,0,1.53-1.53,34.3,34.3,0,0,1,0-3.56c0.06-1.15-.4-1.54-1.53-1.52-3.35.05-6.7,0-10.05,0-2.63,0-3.66-1.05-3.68-3.64,0-.82,0-1.65,0-2.47a2.84,2.84,0,0,1,3.12-3.05c3.51,0,7-.06,10.52,0,1.2,0,1.7-.36,1.62-1.59a28.26,28.26,0,0,1,0-3.4c0.07-1.19-.37-1.65-1.6-1.63-3.35.06-6.7,0-10.05,0-2.62,0-3.6-1-3.64-3.67-0.08-5.07.4-5.54,5.52-5.52h7.73c2,0,2,0,2-2.1,0-.67,0-1.34,0-2,0-2.48,0-2.48-2.56-2.48-3.09,0-6.19,0-9.28,0-2.37,0-3.38-1-3.41-3.4,0-.88,0-1.75,0-2.63a2.92,2.92,0,0,1,3.21-3.15c3.45,0,6.91-.06,10.36,0,1.29,0,1.68-.45,1.71-1.7,0.12-4.68,1.88-6.42,6.66-6.57,1.21,0,1.62-.46,1.6-1.65-0.06-3.35,0-6.7,0-10.05,0-2.52,1.06-3.56,3.57-3.58,0.77,0,1.55,0,2.32,0,2.24,0.05,3.27,1.08,3.28,3.37,0,3.35.07,6.7,0,10.05,0,1.42.41,2,1.84,1.84s3.42,0.69,4.45-.41,0.26-2.86.3-4.34c0.06-2.37,0-4.74,0-7.12s1.07-3.26,3.31-3.4a15.1,15.1,0,0,1,2.93,0,3,3,0,0,1,2.93,3.28c0,3.3,0,6.6,0,9.9,0,2.09,0,2.1,2.18,2.1,0.88,0,1.76-.09,2.63,0,1.48,0.15,1.84-.51,1.8-1.89-0.08-3.3,0-6.6,0-9.9,0-2.5,1-3.45,3.46-3.49h1.86c2.89,0,3.85,1,3.87,3.93,0,3.25,0,6.5,0,9.75,0,1.22.41,1.67,1.62,1.6s2.47,0,3.71,0a1.08,1.08,0,0,0,1.28-1.3q-0.08-4.56-.08-9.11a11.22,11.22,0,0,1,.22-2.76c0.49-1.92,2.73-2.6,6.45-2.07a3,3,0,0,1,2.59,3.14c0,3.51.06,7,0,10.52,0,1.24.44,1.58,1.62,1.61,4.71,0.09,6.56,1.91,6.63,6.58,0,1.29.47,1.7,1.73,1.68,3.35-.06,6.7,0,10.05,0,2.37,0,3.48,1.13,3.52,3.51,0.09,5.28-.32,5.7-5.66,5.69-2.68,0-5.36,0-8,0-1.24,0-1.66.45-1.59,1.63s0.05,2.37,0,3.56,0.42,1.44,1.47,1.43c3.45,0,6.91,0,10.36,0,2.34,0,3.39,1.07,3.44,3.4,0,0.88,0,1.75,0,2.63a2.94,2.94,0,0,1-3.22,3.15c-3.45,0-6.91.05-10.36,0-1.29,0-1.78.44-1.7,1.7a33.16,33.16,0,0,1,0,3.4c0,1.13.41,1.55,1.55,1.53,3.35-.05,6.7,0,10.05,0,2.62,0,3.66,1,3.68,3.63,0,5.14-.36,5.54-5.5,5.56-2.73,0-5.47,0-8.2,0-1.24,0-1.65.45-1.59,1.63s0,2.47,0,3.71a1.07,1.07,0,0,0,1.31,1.26C2265.17,728.71,2267,728.74,2269.19,728.74ZM2228.77,723h0c1,0,2,0,2.94,0,1.81,0,1.93-.16,1.31-1.86-3.25-9-6.53-17.91-9.77-26.87a1.54,1.54,0,0,0-1.69-1.2c-2,.05-4,0.09-6,0a2,2,0,0,0-2.24,1.59c-1,3-2.17,6-3.27,9-2.19,5.95-4.37,11.89-6.6,17.83-0.44,1.18-.17,1.6,1.09,1.54,1.44-.07,2.89,0,4.33,0,3.56,0,3,.3,3.94-2.92a1.58,1.58,0,0,1,1.7-1.41c2.47,0,4.95,0,7.42,0a1.5,1.5,0,0,1,1.59,1.15c1.13,3.15,1.16,3.14,4.51,3.17h0.77Zm7.31-15.14h0c0,4.49,0,9,0,13.45,0,1.27.4,1.76,1.69,1.71,1.9-.08,3.81,0,5.72,0a1.23,1.23,0,0,0,1.51-1.42q0-13.53,0-27.06a1.22,1.22,0,0,0-1.47-1.45c-1.91,0-3.82.1-5.72,0-1.42-.08-1.74.49-1.72,1.8C2236.12,699.18,2236.08,703.51,2236.08,707.84Z" transform="translate(-2147.54 -631.7)" style="fill:#4d4d4d"/><path d="M2218.23,702.7a20.68,20.68,0,0,1,1.56,4.49c0.38,1.34.76,2.67,1.17,4,0.27,0.89.09,1.4-1,1.37-1.24,0-2.47,0-3.71,0-0.52,0-1-.16-0.82-0.8C2216.33,708.87,2217.22,706,2218.23,702.7Z" transform="translate(-2147.54 -631.7)" style="fill:#4d4d4d"/><path d="M2228.77,723h0c1,0,2,0,2.94,0,1.81,0,1.93-.16,1.31-1.86-3.25-9-6.53-17.91-9.77-26.87a1.54,1.54,0,0,0-1.69-1.2c-2,.05-4,0.09-6,0a2,2,0,0,0-2.24,1.59c-1,3-2.17,6-3.27,9-2.19,5.95-4.37,11.89-6.6,17.83-0.44,1.18-.17,1.6,1.09,1.54,1.44-.07,2.89,0,4.33,0,3.56,0,3,.3,3.94-2.92a1.58,1.58,0,0,1,1.7-1.41c2.47,0,4.95,0,7.42,0a1.5,1.5,0,0,1,1.59,1.15c1.13,3.15,1.16,3.14,4.51,3.17h0.77Z" transform="translate(-2147.54 -631.7)" style="fill:aqua"/><path d="M2236.08,707.84h0c0,4.49,0,9,0,13.45,0,1.27.4,1.76,1.69,1.71,1.9-.08,3.81,0,5.72,0a1.23,1.23,0,0,0,1.51-1.42q0-13.53,0-27.06a1.22,1.22,0,0,0-1.47-1.45c-1.91,0-3.82.1-5.72,0-1.42-.08-1.74.49-1.72,1.8C2236.12,699.18,2236.08,703.51,2236.08,707.84Z" transform="translate(-2147.54 -631.7)" style="fill:aqua"/><path d="M2218.23,702.7a20.68,20.68,0,0,1,1.56,4.49c0.38,1.34.76,2.67,1.17,4,0.27,0.89.09,1.4-1,1.37-1.24,0-2.47,0-3.71,0-0.52,0-1-.16-0.82-0.8C2216.33,708.87,2217.22,706,2218.23,702.7Z" transform="translate(-2147.54 -631.7)" style="fill:#4d4d4d"/></g></svg>