<?xml version="1.0" encoding="utf-8"?>
<!-- Generator: Adobe Illustrator 19.2.0, SVG Export Plug-In . SVG Version: 6.00 Build 0)  -->
<svg version="1.1" id="Layer_1" xmlns="http://www.w3.org/2000/svg" xmlns:xlink="http://www.w3.org/1999/xlink" x="0px" y="0px"
	 viewBox="0 0 155.9 155.9" style="enable-background:new 0 0 155.9 155.9;" xml:space="preserve">
<g>
	<circle style="fill:#FB8C00;" cx="77.9" cy="77.9" r="77.9"/>
	<g>
		<path style="fill:#4D4D4D;" d="M108.5,133.5c-21.8,0-43.7,0-65.5,0c-6.5-2.3-10-6.8-10-13.8c0-27.6,0-55.2,0-82.9
			c0-6.5,3-11.1,9.2-13.4c0.3-0.1,0.5-0.2,0.8-0.4c21.8,0,43.7,0,65.5,0c6.5,2.3,10,6.8,10,13.8c0,27.6,0,55.2,0,82.9
			c0,6.5-3,11.1-9.2,13.4C109,133.2,108.7,133.4,108.5,133.5z M75.5,61c9.6,0,19.3,0,28.9,0c3.6,0,4.9-1.3,4.9-4.8
			c0.1-6.5,0.1-12.9,0-19.4c0-3.6-1.4-4.9-5-5c-19,0-38.1,0-57.1,0c-3.7,0-5.1,1.3-5.1,5.1c0,6.1,0,12.2,0,18.3c0,4.7,1,5.7,5.7,5.7
			C57,61,66.3,61,75.5,61z M50.6,91.3c-8.7-0.4-8.8,1.4-8.5,7.9c0.1,2.6,1.3,4.1,3.9,4.3c2.8,0.2,5.6,0.2,8.4,0
			c2-0.1,3.8-1.2,3.8-3.4c0-2.9,1.4-6.3-2.2-8.3c-0.6-0.3-1.4-0.4-2.1-0.4C52.8,91.3,51.6,91.3,50.6,91.3z M75.7,91.4
			c-8.1-0.4-8.4,1.3-8.2,7.7c0.1,2.8,1.4,4.2,4.2,4.4c1.5,0.1,3,0.1,4.5,0.1c7,0,8-1.1,7.5-8.1c0-0.1,0-0.3,0-0.4
			c-0.2-2.2-1.5-3.6-3.8-3.7C78.6,91.3,77.2,91.4,75.7,91.4z M101.1,91.4c-8.2-0.5-8.3,1.5-8.1,7.8c0.1,2.7,1.4,4.1,4.1,4.3
			c1.5,0.1,3,0,4.5,0.1c8.2,0.4,7.9-2.4,7.6-8.6c-0.1-2.1-1.5-3.4-3.6-3.6C104.1,91.3,102.6,91.4,101.1,91.4z M50.1,124.7
			C50.1,124.7,50.1,124.7,50.1,124.7c0.3,0,0.6,0,0.9,0c6.9,0,7.8-1,7.5-7.9c-0.1-2.7-1.6-4.2-4.3-4.3c-1.5-0.1-3,0-4.5,0
			c-7.9-0.4-7.7,2.3-7.4,8.3c0.1,2.3,1.5,3.7,3.8,3.9C47.3,124.8,48.7,124.7,50.1,124.7z M75.7,112.5c-8.7-0.4-8.4,2-8.1,8.3
			c0.1,2.3,1.5,3.8,3.8,3.9c2.9,0.1,5.9,0.1,8.8,0c1.6-0.1,3.2-1,3.4-2.6c0.8-6.4,1-10.1-6.5-9.6C76.6,112.5,76.2,112.5,75.7,112.5z
			 M101,124.8c8.4,0.4,8.6-1.5,8.2-8.3c-0.1-2.3-1.5-3.7-3.8-3.9c-2.8-0.1-5.6-0.1-8.4,0c-2,0.1-3.7,1.1-3.8,3.1
			c-0.5,6.4-0.9,9.6,7.2,9.1C100.6,124.7,100.8,124.8,101,124.8z M75.8,70.2C75.8,70.2,75.8,70.2,75.8,70.2c-1.6,0.1-3.2,0-4.7,0.1
			c-2.4,0.2-3.5,1.7-3.5,4.7c-0.1,5.1,0.6,6.8,3.3,7.1c3.2,0.4,6.5,0.3,9.7,0c2.2-0.2,3.2-1.7,3.3-4.3c0.2-5-0.5-6.9-2.9-7.5
			c-0.6-0.1-1.1-0.1-1.7-0.2C78.1,70.1,77,70.2,75.8,70.2z M50.1,82.1C50.1,82.1,50.1,82.2,50.1,82.1c1.4,0.1,2.7,0.1,4.1,0.1
			c0.2,0,0.4,0,0.6-0.1c2.3-0.3,3.4-1.6,3.5-4.1c0.3-5-0.5-7.1-2.9-7.7c-0.2-0.1-0.4-0.1-0.6-0.1c-3.1,0-6.2-0.1-9.2,0
			c-2.5,0.1-3.5,1.7-3.5,5c-0.1,4.9,0.6,6.5,3.3,6.9C47,82.3,48.5,82.1,50.1,82.1z M101.1,82.1C101.1,82.1,101.1,82.1,101.1,82.1
			c1.4,0.1,2.9,0.1,4.3,0.1c0.2,0,0.4,0,0.6-0.1c2.2-0.4,3.2-1.7,3.3-4.5c0.2-4.9-0.5-6.7-2.9-7.3c-0.2-0.1-0.4-0.1-0.6-0.1
			c-3.1,0-6.2-0.1-9.2,0c-2.4,0.1-3.5,1.8-3.5,5c-0.1,4.9,0.6,6.5,3.3,6.8C97.9,82.3,99.5,82.1,101.1,82.1z"/>
		<path style="fill:#E6E6E6;" d="M105.6,46.5c0,1.9,0,3.9,0,5.8c-0.1,3.2-1.7,4.9-4.9,5c-2.4,0.1-4.9,0.1-7.3,0
			c-3.1-0.1-5-1.6-5.1-4.7c-0.2-4.1-0.2-8.2,0-12.3c0.1-3,1.8-4.5,4.9-4.7c2.5-0.2,5-0.2,7.5,0c3.3,0.2,4.9,1.9,5,5.3
			C105.6,42.7,105.6,44.6,105.6,46.5z M93,46.6c0.1,6.9-1.1,6,6,6.1c0.1,0,0.1,0,0.2,0c1.3,0,1.8-0.6,1.8-1.8c0-2.9,0-5.7,0-8.6
			c0-1.8-1.3-2.1-2.5-1.8c-1.8,0.4-4.5-1.5-5.5,1.6c-0.1,0.3,0,0.7,0,1.1C93,44.3,93,45.5,93,46.6z"/>
		<path style="fill:#E6E6E6;" d="M50.6,91.3c-8.7-0.4-8.8,1.4-8.5,7.9c0.1,2.6,1.3,4.1,3.9,4.3c2.8,0.2,5.6,0.2,8.4,0
			c2-0.1,3.8-1.2,3.8-3.4c0-2.9,1.4-6.3-2.2-8.3c-0.6-0.3-1.4-0.4-2.1-0.4C52.8,91.3,51.6,91.3,50.6,91.3z"/>
		<path style="fill:#E6E6E6;" d="M75.7,91.4c-8.1-0.4-8.4,1.3-8.2,7.7c0.1,2.8,1.4,4.2,4.2,4.4c1.5,0.1,3,0.1,4.5,0.1
			c7,0,8-1.1,7.5-8.1c0-0.1,0-0.3,0-0.4c-0.2-2.2-1.5-3.6-3.8-3.7C78.6,91.3,77.2,91.4,75.7,91.4z"/>
		<path style="fill:#E6E6E6;" d="M101.1,91.4c-8.2-0.5-8.3,1.5-8.1,7.8c0.1,2.7,1.4,4.1,4.1,4.3c1.5,0.1,3,0,4.5,0.1
			c8.2,0.4,7.9-2.4,7.6-8.6c-0.1-2.1-1.5-3.4-3.6-3.6C104.1,91.3,102.6,91.4,101.1,91.4z"/>
		<path style="fill:#E6E6E6;" d="M50.1,124.7C50.1,124.7,50.1,124.7,50.1,124.7c0.3,0,0.6,0,0.9,0c6.9,0,7.8-1,7.5-7.9
			c-0.1-2.7-1.6-4.2-4.3-4.3c-1.5-0.1-3,0-4.5,0c-7.9-0.4-7.7,2.3-7.4,8.3c0.1,2.3,1.5,3.7,3.8,3.9
			C47.3,124.8,48.7,124.7,50.1,124.7z"/>
		<path style="fill:#E6E6E6;" d="M75.7,112.5c-8.7-0.4-8.4,2-8.1,8.3c0.1,2.3,1.5,3.8,3.8,3.9c2.9,0.1,5.9,0.1,8.8,0
			c1.6-0.1,3.2-1,3.4-2.6c0.8-6.4,1-10.1-6.5-9.6C76.6,112.5,76.2,112.5,75.7,112.5z"/>
		<path style="fill:#E6E6E6;" d="M101,124.8c8.4,0.4,8.6-1.5,8.2-8.3c-0.1-2.3-1.5-3.7-3.8-3.9c-2.8-0.1-5.6-0.1-8.4,0
			c-2,0.1-3.7,1.1-3.8,3.1c-0.5,6.4-0.9,9.6,7.2,9.1C100.6,124.7,100.8,124.8,101,124.8z"/>
		<path style="fill:#E6E6E6;" d="M75.8,70.2C75.8,70.2,75.8,70.2,75.8,70.2c-1.6,0.1-3.2,0-4.7,0.1c-2.4,0.2-3.5,1.7-3.5,4.7
			c-0.1,5.1,0.6,6.8,3.3,7.1c3.2,0.4,6.5,0.3,9.7,0c2.2-0.2,3.2-1.7,3.3-4.3c0.2-5-0.5-6.9-2.9-7.5c-0.6-0.1-1.1-0.1-1.7-0.2
			C78.1,70.1,77,70.2,75.8,70.2z"/>
		<path style="fill:#E6E6E6;" d="M50.1,82.1C50.1,82.1,50.1,82.2,50.1,82.1c1.4,0.1,2.7,0.1,4.1,0.1c0.2,0,0.4,0,0.6-0.1
			c2.3-0.3,3.4-1.6,3.5-4.1c0.3-5-0.5-7.1-2.9-7.7c-0.2-0.1-0.4-0.1-0.6-0.1c-3.1,0-6.2-0.1-9.2,0c-2.5,0.1-3.5,1.7-3.5,5
			c-0.1,4.9,0.6,6.5,3.3,6.9C47,82.3,48.5,82.1,50.1,82.1z"/>
		<path style="fill:#E6E6E6;" d="M101.1,82.1C101.1,82.1,101.1,82.1,101.1,82.1c1.4,0.1,2.9,0.1,4.3,0.1c0.2,0,0.4,0,0.6-0.1
			c2.2-0.4,3.2-1.7,3.3-4.5c0.2-4.9-0.5-6.7-2.9-7.3c-0.2-0.1-0.4-0.1-0.6-0.1c-3.1,0-6.2-0.1-9.2,0c-2.4,0.1-3.5,1.8-3.5,5
			c-0.1,4.9,0.6,6.5,3.3,6.8C97.9,82.3,99.5,82.1,101.1,82.1z"/>
	</g>
</g>
<g>
</g>
<g>
</g>
<g>
</g>
<g>
</g>
<g>
</g>
<g>
</g>
<g>
</g>
<g>
</g>
<g>
</g>
<g>
</g>
<g>
</g>
<g>
</g>
<g>
</g>
<g>
</g>
<g>
</g>
</svg>
