<svg id="Layer_1" data-name="Layer 1" xmlns="http://www.w3.org/2000/svg" viewBox="0 0 155.89 155.89"><title>cart</title><circle cx="77.94" cy="77.94" r="77.94" style="fill:#fb8c00"/><path d="M2477.47,153.72c-4.2,8.56-8.41,17.12-13.44,25.24a43.49,43.49,0,0,1-6.72,8.81,8.78,8.78,0,0,1-6.27,2.65c-11.46,0-22.92.11-34.38-.06a20.66,20.66,0,0,1-20-16.54c-2.46-11.26-4.63-22.58-6.94-33.87-0.43-2.08-.87-4.16-1.31-6.24-1.22-5.84-3.22-7.6-9.23-7.91-2.4-.12-4.47-0.81-5.91-2.79a5.44,5.44,0,0,1-.63-5.84c1-2.16,2.74-3.72,5.24-3.77,10.9-.23,20.09,4.85,22.4,16.36,2.63,13.12,5.37,26.21,8.1,39.31,0.39,1.86.61,3.79,1.89,5.38a9.21,9.21,0,0,0,7.56,3.51c10,0,20,0,30.06.1,1.67,0,2.44-1,3.23-2.14,4.07-5.81,7.25-12.12,10.57-18.36,1.19-2.24,2.39-4.49,3.42-6.8,3.07-6.89,9.9-6.09,12.36-.75v3.71Z" transform="translate(-2347.83 -82.12)" style="fill:#4d4d4d"/><path d="M2433.09,161.95a2.31,2.31,0,0,1-1.73-.79,107,107,0,0,1-13-14.82c-1.44-2-.74-3.44,1.74-3.64,1.35-.11,2.72-0.06,4.08-0.06,2.28,0,2.48-.17,2.55-2.51,0.1-3.37.35-6.73,0.64-10.1a2.94,2.94,0,0,1,2.3-2.79,10.85,10.85,0,0,1,6.89.09,2.7,2.7,0,0,1,2,2.64c0.22,3.53.52,7.05,0.67,10.58,0.06,1.49.51,2.2,2.11,2.11a33.21,33.21,0,0,1,4.73.07c2.18,0.19,2.85,1.59,1.6,3.4a106,106,0,0,1-13.17,15.13A2.06,2.06,0,0,1,2433.09,161.95Z" transform="translate(-2347.83 -82.12)" style="fill:red;opacity:0.5"/><path d="M2451.16,214.73a10.15,10.15,0,1,1,10.26-10.12A10.24,10.24,0,0,1,2451.16,214.73Z" transform="translate(-2347.83 -82.12)" style="fill:#4d4d4d"/><path d="M2424.85,204.68a10,10,0,0,1-10.27,10.05,10.14,10.14,0,0,1,.18-20.29A10,10,0,0,1,2424.85,204.68Z" transform="translate(-2347.83 -82.12)" style="fill:#4d4d4d"/></svg>