<svg id="Layer_1" data-name="Layer 1" xmlns="http://www.w3.org/2000/svg" viewBox="0 0 155.89 155.89"><title>cashless-coverage</title><circle cx="77.94" cy="77.94" r="77.94" style="fill:#fb8c00"/><path d="M2975.44,1061a5,5,0,0,1-2.55-.58,5.36,5.36,0,0,1-2-1.84,5.28,5.28,0,0,1-.89-2.55,5,5,0,0,1,.48-2.57,4.82,4.82,0,0,1,1.74-2,5.07,5.07,0,0,1,1.57-.72,5.16,5.16,0,0,1,1.69-.09,0.62,0.62,0,0,1,.31.09,0.77,0.77,0,0,1,.2.22,0.55,0.55,0,0,1,.08.46,0.63,0.63,0,0,1-.27.38,0.69,0.69,0,0,1-.47.11,3.8,3.8,0,0,0-1.23,0,3.58,3.58,0,0,0-1.21.55,3.46,3.46,0,0,0-1.27,1.47,3.86,3.86,0,0,0-.33,2,4.24,4.24,0,0,0,2.2,3.34,3.87,3.87,0,0,0,1.92.46,3.44,3.44,0,0,0,1.85-.58,3.94,3.94,0,0,0,1.53-2,0.74,0.74,0,0,1,.27-0.37,0.53,0.53,0,0,1,.44-0.08,0.65,0.65,0,0,1,.39.29,0.66,0.66,0,0,1,.09.52,4.94,4.94,0,0,1-2,2.7A4.84,4.84,0,0,1,2975.44,1061Z" transform="translate(-2931.72 -1033.31)" style="fill:#e6e6e6;stroke:#e6e6e6;stroke-miterlimit:10"/><path d="M2990.21,1053.19a0.64,0.64,0,0,1,0,.51,0.66,0.66,0,0,1-.37.37,0.68,0.68,0,0,1-.38,0,0.62,0.62,0,0,1-.35-0.18l-1.38-1.39-4.29,1.83,0,2a0.72,0.72,0,0,1-.12.38,0.66,0.66,0,0,1-.29.24,0.62,0.62,0,0,1-.52,0,0.67,0.67,0,0,1-.36-0.36,0.85,0.85,0,0,1-.06-0.3l-0.06-9.46a0.66,0.66,0,0,1,.41-0.67,0.63,0.63,0,0,1,.76.17l6.8,6.61A0.83,0.83,0,0,1,2990.21,1053.19Zm-6.8,0,3.46-1.47-3.52-3.53Z" transform="translate(-2931.72 -1033.31)" style="fill:#e6e6e6;stroke:#e6e6e6;stroke-miterlimit:10"/><path d="M2993.59,1052.5a3.1,3.1,0,0,1-1.73-1.13,0.7,0.7,0,0,1-.12-0.24,0.48,0.48,0,0,1,.06-0.37,0.73,0.73,0,0,1,.33-0.29l0.12,0a0.72,0.72,0,0,1,.42,0,0.75,0.75,0,0,1,.35.26,1.91,1.91,0,0,0,1.1.62,3.31,3.31,0,0,0,1.56,0,2.93,2.93,0,0,0,1.5-.82,1.4,1.4,0,0,0,.38-1.35,1.66,1.66,0,0,0-.85-1.1,3,3,0,0,0-1.84-.23,4.47,4.47,0,0,1-2.68-.33,2.48,2.48,0,0,1-1.35-1.7,2.25,2.25,0,0,1,.13-1.51,3,3,0,0,1,1.05-1.2,5.1,5.1,0,0,1,1.73-.74,3.63,3.63,0,0,1,1.94,0,3.87,3.87,0,0,1,1.56,1,0.88,0.88,0,0,1,.26.42,0.55,0.55,0,0,1-.14.52,0.62,0.62,0,0,1-.31.17,0.7,0.7,0,0,1-.38,0,0.67,0.67,0,0,1-.31-0.2,2.48,2.48,0,0,0-1.06-.66,2.61,2.61,0,0,0-1.37,0,3,3,0,0,0-1.47.74,1.24,1.24,0,0,0-.34,1.22,1.42,1.42,0,0,0,.79,1,3.74,3.74,0,0,0,2,.13,4.08,4.08,0,0,1,2.57.36,2.68,2.68,0,0,1,1.31,1.82,2.58,2.58,0,0,1-.12,1.68,3.05,3.05,0,0,1-1.08,1.28,4.84,4.84,0,0,1-1.68.74A4.65,4.65,0,0,1,2993.59,1052.5Z" transform="translate(-2931.72 -1033.31)" style="fill:#e6e6e6;stroke:#e6e6e6;stroke-miterlimit:10"/><path d="M3002.55,1050.9a0.65,0.65,0,0,1-.22-0.47l-0.4-8.79a0.65,0.65,0,0,1,.17-0.5,0.67,0.67,0,0,1,.47-0.21,0.65,0.65,0,0,1,.71.64l0.17,3.73,6-.27-0.17-3.73a0.65,0.65,0,0,1,.17-0.5,0.67,0.67,0,0,1,.47-0.21,0.65,0.65,0,0,1,.48.17,0.67,0.67,0,0,1,.21.48l0.4,8.79a0.66,0.66,0,0,1-.17.5,0.64,0.64,0,0,1-.46.21,0.67,0.67,0,0,1-.71-0.64l-0.18-3.87-6,.28,0.18,3.87a0.66,0.66,0,0,1-.17.49A0.7,0.7,0,0,1,3002.55,1050.9Z" transform="translate(-2931.72 -1033.31)" style="fill:#e6e6e6;stroke:#e6e6e6;stroke-miterlimit:10"/><path d="M3014.78,1050.83a0.66,0.66,0,0,1-.12-0.5l1.19-8.72a0.65,0.65,0,0,1,.26-0.45,0.63,0.63,0,0,1,.49-0.13,0.67,0.67,0,0,1,.58.76l-1.1,8,4.66,0.64a0.68,0.68,0,1,1-.18,1.34l-5.33-.73A0.63,0.63,0,0,1,3014.78,1050.83Z" transform="translate(-2931.72 -1033.31)" style="fill:#e6e6e6;stroke:#e6e6e6;stroke-miterlimit:10"/><path d="M3023.93,1052.38a0.66,0.66,0,0,1,0-.52l2.6-8.41a0.65,0.65,0,0,1,.33-0.41,0.67,0.67,0,0,1,.52,0l5.61,1.73a0.66,0.66,0,0,1,.41.31,0.61,0.61,0,0,1,0,.5,0.58,0.58,0,0,1-.3.37,0.68,0.68,0,0,1-.51,0l-5-1.53-0.93,3,3.56,1.1a0.66,0.66,0,0,1,.4.31,0.58,0.58,0,0,1,0,.48,0.59,0.59,0,0,1-.31.37,0.67,0.67,0,0,1-.51,0l-3.56-1.1-1,3.11,5,1.53a0.67,0.67,0,0,1,.41.3,0.58,0.58,0,0,1,0,.48,0.61,0.61,0,0,1-.31.39,0.66,0.66,0,0,1-.51,0l-5.61-1.73A0.66,0.66,0,0,1,3023.93,1052.38Z" transform="translate(-2931.72 -1033.31)" style="fill:#e6e6e6;stroke:#e6e6e6;stroke-miterlimit:10"/><path d="M3034.19,1055.77a3.09,3.09,0,0,1-.59-2,0.69,0.69,0,0,1,.06-0.26,0.48,0.48,0,0,1,.28-0.24,0.73,0.73,0,0,1,.44,0l0.12,0a0.71,0.71,0,0,1,.3.29,0.75,0.75,0,0,1,.1.42,1.9,1.9,0,0,0,.44,1.18,3.31,3.31,0,0,0,1.2,1,2.92,2.92,0,0,0,1.68.35,1.4,1.4,0,0,0,1.16-.79,1.67,1.67,0,0,0,.06-1.39,3,3,0,0,0-1.26-1.36,4.49,4.49,0,0,1-1.83-2,2.49,2.49,0,0,1,.07-2.17,2.25,2.25,0,0,1,1.07-1.07,3,3,0,0,1,1.58-.24,5.12,5.12,0,0,1,1.8.55,3.64,3.64,0,0,1,1.48,1.26,3.89,3.89,0,0,1,.57,1.75,0.88,0.88,0,0,1-.07.49,0.55,0.55,0,0,1-.44.3,0.62,0.62,0,0,1-.34-0.07,0.72,0.72,0,0,1-.28-0.25,0.66,0.66,0,0,1-.11-0.36,2.46,2.46,0,0,0-.38-1.19,2.63,2.63,0,0,0-1-.88,3,3,0,0,0-1.6-.38,1.23,1.23,0,0,0-1,.71,1.41,1.41,0,0,0,0,1.26,3.74,3.74,0,0,0,1.47,1.42,4.08,4.08,0,0,1,1.73,1.93,2.68,2.68,0,0,1-.17,2.24,2.59,2.59,0,0,1-1.18,1.2,3,3,0,0,1-1.65.28,4.87,4.87,0,0,1-1.76-.52A4.67,4.67,0,0,1,3034.19,1055.77Z" transform="translate(-2931.72 -1033.31)" style="fill:#e6e6e6;stroke:#e6e6e6;stroke-miterlimit:10"/><path d="M3042.79,1060.65a3.09,3.09,0,0,1-.25-2,0.71,0.71,0,0,1,.1-0.25,0.48,0.48,0,0,1,.32-0.19,0.73,0.73,0,0,1,.43.07l0.11,0.07a0.72,0.72,0,0,1,.25.33,0.76,0.76,0,0,1,0,.43,1.91,1.91,0,0,0,.23,1.24,3.27,3.27,0,0,0,1,1.19,2.91,2.91,0,0,0,1.59.62,1.4,1.4,0,0,0,1.27-.58,1.66,1.66,0,0,0,.3-1.36,3,3,0,0,0-1-1.55,4.49,4.49,0,0,1-1.47-2.27,2.48,2.48,0,0,1,.43-2.13,2.26,2.26,0,0,1,1.24-.87,3,3,0,0,1,1.59,0,5.11,5.11,0,0,1,1.68.85,3.64,3.64,0,0,1,1.24,1.49,3.88,3.88,0,0,1,.27,1.82,0.88,0.88,0,0,1-.15.47,0.55,0.55,0,0,1-.49.22,0.62,0.62,0,0,1-.33-0.13,0.73,0.73,0,0,1-.23-0.29,0.66,0.66,0,0,1,0-.37,2.48,2.48,0,0,0-.17-1.24,2.63,2.63,0,0,0-.89-1,3,3,0,0,0-1.51-.64,1.24,1.24,0,0,0-1.15.53,1.41,1.41,0,0,0-.24,1.23,3.72,3.72,0,0,0,1.21,1.64,4.08,4.08,0,0,1,1.38,2.2,2.68,2.68,0,0,1-.55,2.18,2.59,2.59,0,0,1-1.36,1,3.07,3.07,0,0,1-1.68,0,4.88,4.88,0,0,1-1.64-.81A4.66,4.66,0,0,1,3042.79,1060.65Z" transform="translate(-2931.72 -1033.31)" style="fill:#e6e6e6;stroke:#e6e6e6;stroke-miterlimit:10"/><path d="M3010.44,1148.14h2.16q24.48,0,49,0c2,0,3.54-.34,3.34-2.81-0.14-1.8.73-4.4-2.35-4.37-3.34,0-3.8-1.7-3.78-4.47,0.09-13.44.05-26.89,0-40.33,0-4.06-1.07-5.1-5.13-5.14-5,0-10.06,0-15.09,0-4.09,0-4.28.21-4.28,4.42q0,20,0,40a22.73,22.73,0,0,1-.31,3.66,1.59,1.59,0,0,1-1.71,1.45c-1.1-.06-1.25-0.88-1.24-1.77,0-.62,0-1.23,0-1.85q0-28.48,0-57c0-4.61-1-5.61-5.64-5.62q-14.47,0-28.94,0c-5.64,0-6.43.78-6.43,6.38q0,27.86,0,55.73c0,0.82,0,1.64,0,2.46s-0.14,1.47-1.07,1.61a1.52,1.52,0,0,1-1.83-1.27,18.59,18.59,0,0,1-.37-3.65q0-19.86,0-39.72c0-4.83-.06-4.89-4.73-4.9q-6.62,0-13.24,0c-5.08,0-5.94.86-5.95,5.89,0,13.24-.06,26.48,0,39.72,0,2.89-.65,4.58-3.91,4.3a2.26,2.26,0,0,0-2.7,1.5c-1.23,3.65.17,5.72,4,5.72h50.19Z" transform="translate(-2931.72 -1033.31)" style="fill:#4d4d4d"/><path d="M3010.66,1079.16a13.49,13.49,0,0,1,13.74,13.61,13.88,13.88,0,0,1-27.76,0C2996.65,1085,3002.67,1079.12,3010.66,1079.16Zm-0.16,21.63c1.78,0.11,3.28-.24,3.3-2.53,0-1.9,1.26-2.38,2.86-2.47,1.79-.11,2.09-1.35,2.09-2.81s-0.09-3-2.09-3.11c-1.82-.1-2.85-0.84-2.91-2.8-0.06-2.2-1.7-2.24-3.31-2.23s-3,.08-3.12,2.09c-0.08,1.85-.86,2.86-2.78,2.92s-2.24,1.4-2.24,3,0.31,2.91,2.26,3c1.7,0.06,2.69.81,2.72,2.62C3007.3,1100.56,3008.75,1100.86,3010.5,1100.79Z" transform="translate(-2931.72 -1033.31)" style="fill:#e6e6e6"/><path d="M3019.47,1130.12c0,2.46,0,4.93,0,7.39,0,1.9-.89,2.83-2.82,2.82q-5.54,0-11.08,0c-1.89,0-2.86-.82-2.85-2.77,0-4.93,0-9.85,0-14.78,0-2.06.9-3,3-3q5.39,0.07,10.77,0c2.05,0,3,.86,3,2.93C3019.46,1125.2,3019.48,1127.66,3019.47,1130.12Z" transform="translate(-2931.72 -1033.31)" style="fill:#e6e6e6"/><path d="M3045.93,1121.84c0.17,2.26-.95,3.1-3.13,3.1s-3.09-1-3.1-3.18,1-3.1,3.19-3.1S3046.13,1119.62,3045.93,1121.84Z" transform="translate(-2931.72 -1033.31)" style="fill:#e6e6e6"/><path d="M3054.55,1121.67c0.17,2.15-.67,3.27-3,3.27-2.13,0-3.25-.72-3.26-3,0-2.15.74-3.25,3-3.26C3053.45,1118.66,3054.73,1119.35,3054.55,1121.67Z" transform="translate(-2931.72 -1033.31)" style="fill:#e6e6e6"/><path d="M2974.44,1103c0.14,2.33-1.22,2.88-3.28,2.88-2.33,0-2.93-1.23-2.94-3.3,0-2.34,1.2-3,3.28-2.95C2973.76,1099.67,2974.58,1100.86,2974.44,1103Z" transform="translate(-2931.72 -1033.31)" style="fill:#e6e6e6"/><path d="M2983.05,1103c0.13,2.33-1.27,2.84-3.31,2.83-2.35,0-2.89-1.28-2.9-3.33,0-2.36,1.26-3,3.31-2.91C2982.43,1099.67,2983.19,1100.92,2983.05,1103Z" transform="translate(-2931.72 -1033.31)" style="fill:#e6e6e6"/><path d="M2968.28,1121.64c-0.16-2.56,1.34-3,3.34-3,2.34,0.05,2.86,1.45,2.86,3.45,0,2.4-1.43,2.81-3.43,2.79C2968.66,1124.9,2968.09,1123.55,2968.28,1121.64Z" transform="translate(-2931.72 -1033.31)" style="fill:#e6e6e6"/><path d="M3043.1,1105.8c-2.27.21-3.39-.62-3.39-2.9,0-2.11.8-3.24,3-3.27s3.23,0.81,3.24,3S3045.31,1106.07,3043.1,1105.8Z" transform="translate(-2931.72 -1033.31)" style="fill:#e6e6e6"/><path d="M3051.41,1099.66c2.19-.12,3.14.93,3.17,3.09s-0.88,3.13-3.09,3.12-3.18-.81-3.16-3.05S3049.23,1099.57,3051.41,1099.66Z" transform="translate(-2931.72 -1033.31)" style="fill:#e6e6e6"/><path d="M2980,1124.88c-2.18.2-3.11-.81-3.12-3s0.77-3.21,3-3.19,3.23,0.85,3.22,3.06S2982.22,1125,2980,1124.88Z" transform="translate(-2931.72 -1033.31)" style="fill:#e6e6e6"/><path d="M2971.11,1109.39c2.1-.19,3.31.48,3.35,2.66,0,2-.71,3.06-2.86,3.06s-3.39-.48-3.36-2.88C2968.26,1110.15,2969.16,1109.18,2971.11,1109.39Z" transform="translate(-2931.72 -1033.31)" style="fill:#e6e6e6"/><path d="M2979.86,1109.38c2-.18,3.18.48,3.22,2.67,0,2-.7,3.07-2.85,3.07s-3.39-.46-3.37-2.87C2976.87,1110.15,2977.8,1109.22,2979.86,1109.38Z" transform="translate(-2931.72 -1033.31)" style="fill:#e6e6e6"/><path d="M3045.91,1112.17c0.12,2.29-1.08,2.92-3.06,2.95-2.21,0-3.19-.88-3.13-3.12s1.37-2.67,3.25-2.67C3045,1109.33,3046.08,1110.17,3045.91,1112.17Z" transform="translate(-2931.72 -1033.31)" style="fill:#e6e6e6"/><path d="M3054.53,1112.2c0.13,2.13-1,2.93-3,2.92s-3.16-.49-3.21-2.72,1-3.09,3.17-3.07C3053.53,1109.35,3054.65,1110.08,3054.53,1112.2Z" transform="translate(-2931.72 -1033.31)" style="fill:#e6e6e6"/></svg>