<svg id="Layer_1" data-name="Layer 1" xmlns="http://www.w3.org/2000/svg" viewBox="0 0 155.89 155.89"><title>claim</title><circle cx="77.94" cy="77.94" r="77.94" style="fill:#fb8c00"/><path d="M2257.78,172.39a3.05,3.05,0,0,1-.33-1.92q0-20.91,0-41.81c0-2,0-2-2.05-2q-30.23,0-60.46,0c-1.49,0-1.84.42-1.84,1.8q0.06,39.05,0,78.11c0,1.36.45,1.69,1.81,1.69q30.38-.05,60.75,0c1.5,0,1.86-.45,1.83-1.81-0.09-4.18,0-8.37-.06-12.56a3.93,3.93,0,0,1,1-2.78c1.15-1.34,2.23-2.74,3.32-4.09,0.64,0.21.47,0.64,0.47,1q0,11.11,0,22.22c0,2-.65,2.6-2.78,2.6H2192c-2.54,0-3.71-1.15-3.71-3.68q0-42,0-84c0-2.48.5-3,3.11-3h61.18c2.5,0,5,0,7.49,0,1.68,0,2.09.39,2.09,1.93q0,20.84,0,41.67a2,2,0,0,1-.27,1.33C2260.6,168.8,2259.25,170.52,2257.78,172.39Z" transform="translate(-2147.54 -82.12)" style="fill:#4d4d4d"/><path d="M2244.31,198.75c0.16-1.87.33-3.75,0.47-5.63a2.62,2.62,0,0,1,.77-1.44l21.71-27.31c2.31-2.91,2.3-2.91,5.35-.66,0.57,0.42,1.13.85,1.73,1.24,1.05,0.7,2.18,1.31.82,2.73-0.52.55,0.17,0.88,0.57,1.18,2.1,1.63,2.11,1.63.46,3.72-1.82,2.31-3.67,4.6-5.48,6.92-0.56.72-1,1.09-2,.43s-0.59-1.24,0-1.91c1.62-2,3.21-4,4.81-6,0.4-.5,1-1,0.13-1.6s-1,.3-1.28.68q-10.06,12.59-20.07,25.22a5,5,0,0,1-2.66,1.72c-1.41.43-2.81,0.94-4.21,1.41C2244.72,199.65,2244.22,199.61,2244.31,198.75Z" transform="translate(-2147.54 -82.12)" style="fill:#e6e6e6"/><path d="M2225.24,159.83h-25.77c-1.91,0-1.93,0-1.92-1.84,0-3.05-.29-2.73,2.87-2.73q25.26,0,50.52,0c2.05,0,2.06,0,2.05,2,0,2.87.26,2.58-2.71,2.59h-25Z" transform="translate(-2147.54 -82.12)" style="fill:#4d4d4d"/><path d="M2225.42,164.09H2251c2,0,2,0,2,1.8,0,3.08.32,2.76-2.83,2.76h-50.67c-1.94,0-2,0-2-1.8,0-3.08-.31-2.76,2.82-2.76Q2212.9,164.07,2225.42,164.09Z" transform="translate(-2147.54 -82.12)" style="fill:#4d4d4d"/><path d="M2225.27,172.91h25.48c2.23,0,2.23,0,2.25,2.09,0,2.5,0,2.49-2.53,2.49h-50.24c-3,0-2.65.11-2.68-2.5,0-2.09,0-2.08,2.1-2.08h25.62Z" transform="translate(-2147.54 -82.12)" style="fill:#4d4d4d"/><path d="M2223.15,205.29c0.27-1.91.23-3.93,1.68-5.51a6.4,6.4,0,0,0,1.6-4.86c0-.57.14-1.36-0.76-1.4s-1.88-.06-2.38.89a5.22,5.22,0,0,0-.32,1.2,18.51,18.51,0,0,1-6.12,10.39c-0.94.78-1.94,1.88-3.41,1.18s-1.55-2-1.49-3.34c0.23-4.93,2.89-8.54,7.14-11a2.92,2.92,0,0,0,1.76-3.41c-0.06-.46-0.18-0.9-0.23-1.36-0.11-1-.65-1-1.39-0.6a12.9,12.9,0,0,0-3,2.12c-2.12,2.06-4.29,4.11-5.53,6.82-0.46,1-1.12.57-1.79,0.39-0.87-.23-0.86-0.78-0.52-1.39,2.46-4.43,5.68-8.2,10.49-10.43,2.09-1,3.53-.24,4.09,1.94a25.25,25.25,0,0,1,.49,3.13,1,1,0,0,0,1.33,1c3-.31,4.22.66,4.25,3.48,0,1.37.42,1.55,1.67,1.11a21.34,21.34,0,0,1,4.88-1.15c1.78-.17,2.72.22,3.49,1.7,0.3,0.59.6,0.47,1,.25,1.13-.61,1.27.38,1.63,0.94,0.47,0.73,0,1.08-.63,1.4a3.06,3.06,0,0,1-4.52-1.31,0.88,0.88,0,0,0-1.19-.63c-3.4.95-6.92,1.57-8.76,5.12-0.68,1.31-2,2.3-3,3.44Zm-2.67-10.54a12.68,12.68,0,0,0-6.11,8.83,0.64,0.64,0,0,0,.26.85,0.72,0.72,0,0,0,.72-0.35A16.38,16.38,0,0,0,2220.49,194.75Z" transform="translate(-2147.54 -82.12)" style="fill:#e6e6e6"/><path d="M2210.29,135.54c-3.31,0-6.62,0-9.93,0-1.22,0-1.73-.31-1.69-1.56,0.12-3.51-.36-3,3.15-3,6,0,12.09,0,18.13,0,1.93,0,1.94,0,1.94,1.82,0,3,.28,2.75-2.83,2.75h-8.78Z" transform="translate(-2147.54 -82.12)" style="fill:#4d4d4d"/><path d="M2202.84,117.74a4.57,4.57,0,0,1-1.67-1.74,4.94,4.94,0,0,1-.61-2.44,4.88,4.88,0,0,1,.61-2.42,4.62,4.62,0,0,1,1.67-1.74,4.45,4.45,0,0,1,2.35-.64,4.66,4.66,0,0,1,1.58.24,4.73,4.73,0,0,1,1.35.79,0.57,0.57,0,0,1,.19.22,0.69,0.69,0,0,1,0,.27,0.51,0.51,0,0,1-.17.4,0.59,0.59,0,0,1-.4.16,0.65,0.65,0,0,1-.42-0.16,3.48,3.48,0,0,0-1-.61,3.32,3.32,0,0,0-1.21-.19,3.19,3.19,0,0,0-1.72.49,3.56,3.56,0,0,0-1.25,1.34,3.91,3.91,0,0,0,0,3.69,3.57,3.57,0,0,0,1.25,1.33,3.18,3.18,0,0,0,1.72.49,3.63,3.63,0,0,0,2.21-.79,0.69,0.69,0,0,1,.4-0.14,0.49,0.49,0,0,1,.38.16,0.6,0.6,0,0,1,.15.43,0.61,0.61,0,0,1-.19.44,4.56,4.56,0,0,1-2.94,1A4.48,4.48,0,0,1,2202.84,117.74Z" transform="translate(-2147.54 -82.12)" style="fill:#e6e6e6;stroke:#e6e6e6;stroke-linecap:round;stroke-linejoin:round;stroke-width:0.9231399893760681px"/><path d="M2212.88,118.07a0.61,0.61,0,0,1-.17-0.44V109.5a0.6,0.6,0,0,1,.18-0.44,0.59,0.59,0,0,1,.43-0.18,0.62,0.62,0,0,1,.62.62V117h4.34a0.62,0.62,0,1,1,0,1.25h-5A0.58,0.58,0,0,1,2212.88,118.07Z" transform="translate(-2147.54 -82.12)" style="fill:#e6e6e6;stroke:#e6e6e6;stroke-linecap:round;stroke-linejoin:round;stroke-width:0.9231399893760681px"/><path d="M2229.88,117.64a0.59,0.59,0,0,1-.18.43,0.6,0.6,0,0,1-.44.18,0.63,0.63,0,0,1-.34-0.1,0.58,0.58,0,0,1-.23-0.28l-0.67-1.68h-4.31l-0.68,1.68a0.67,0.67,0,0,1-.24.28,0.61,0.61,0,0,1-.34.1,0.58,0.58,0,0,1-.44-0.19,0.62,0.62,0,0,1-.17-0.44,0.79,0.79,0,0,1,.06-0.28l3.37-8.05a0.61,0.61,0,0,1,.59-0.42,0.58,0.58,0,0,1,.59.42l3.38,8.08A0.76,0.76,0,0,1,2229.88,117.64Zm-5.76-2.48h3.47l-1.72-4.27Z" transform="translate(-2147.54 -82.12)" style="fill:#e6e6e6;stroke:#e6e6e6;stroke-linecap:round;stroke-linejoin:round;stroke-width:0.9231399893760681px"/><path d="M2233.83,118.07a0.6,0.6,0,0,1-.18-0.44V109.5a0.6,0.6,0,0,1,.18-0.45,0.62,0.62,0,0,1,1.07.45v8.13a0.62,0.62,0,0,1-.17.44A0.65,0.65,0,0,1,2233.83,118.07Z" transform="translate(-2147.54 -82.12)" style="fill:#e6e6e6;stroke:#e6e6e6;stroke-linecap:round;stroke-linejoin:round;stroke-width:0.9231399893760681px"/><path d="M2248.91,109.06a0.6,0.6,0,0,1,.18.44v8.13a0.6,0.6,0,0,1-.19.44,0.62,0.62,0,0,1-1.06-.44v-6l-2.9,5.92a0.62,0.62,0,0,1-.54.31,0.6,0.6,0,0,1-.58-0.37l-2.87-5.75v5.86a0.62,0.62,0,1,1-1.25,0V109.5a0.62,0.62,0,0,1,1.18-.29l3.56,7.14,3.47-7.14A0.63,0.63,0,0,1,2248.91,109.06Z" transform="translate(-2147.54 -82.12)" style="fill:#e6e6e6;stroke:#e6e6e6;stroke-linecap:round;stroke-linejoin:round;stroke-width:0.9231399893760681px"/><rect x="43.22" y="21.65" width="69.16" height="20.3" rx="0.97" ry="0.97" style="fill:none;stroke:#4d4d4d;stroke-miterlimit:10;stroke-width:4.685090000000001px"/></svg>