<svg id="Layer_1" data-name="Layer 1" xmlns="http://www.w3.org/2000/svg" xmlns:xlink="http://www.w3.org/1999/xlink" viewBox="0 0 155.89 161.09"><defs><clipPath id="clip-path" transform="translate(-63.13 -533.43)"><circle cx="141.08" cy="611.38" r="77.94" style="fill:none"/></clipPath></defs><title>click-to-claim</title><circle cx="77.94" cy="77.94" r="77.94" style="fill:#fb8c00"/><g id="q8WQW7"><path d="M97.28,610.78q0-25.62,0-51.24a7,7,0,0,1,5.75-7.07,8.47,8.47,0,0,1,1.69-.16h50.65a7.12,7.12,0,0,1,7.3,5.72,8.51,8.51,0,0,1,.17,1.75q0,51,0,102a7.18,7.18,0,0,1-7.48,7.47H104.7a7.15,7.15,0,0,1-7.35-6,7.61,7.61,0,0,1-.07-1.46Q97.28,636.32,97.28,610.78Zm62.11-5.38q0-18.52,0-37a6.19,6.19,0,0,0-.07-1.17,4.08,4.08,0,0,0-4.19-3.45H105a4.2,4.2,0,0,0-3.41,1.53,4.81,4.81,0,0,0-1,3.25q0,36.86,0,73.71c0,0.18,0,.35,0,0.53a4.18,4.18,0,0,0,4.4,4.27h50a4.61,4.61,0,0,0,.88-0.06,4.11,4.11,0,0,0,3.46-4.25Q159.39,624.07,159.39,605.4Zm-36,52.34a6.59,6.59,0,0,0,6.59,6.67,6.66,6.66,0,0,0,6.7-6.73A6.65,6.65,0,0,0,123.4,657.74Z" transform="translate(-63.13 -533.43)" style="fill:#4d4d4d"/><path d="M159.39,605.4q0-18.52,0-37a6.19,6.19,0,0,0-.07-1.17,4.08,4.08,0,0,0-4.19-3.45H105a4.2,4.2,0,0,0-3.41,1.53,4.81,4.81,0,0,0-1,3.25q0,36.86,0,73.71c0,0.18,0,.35,0,0.53a4.18,4.18,0,0,0,4.4,4.27h50a4.61,4.61,0,0,0,.88-0.06,4.11,4.11,0,0,0,3.46-4.25Q159.39,624.07,159.39,605.4Z" transform="translate(-63.13 -533.43)" style="fill:#e6e6e6"/></g><g id="aK8CrL"><path d="M129,574.27h2.27c0.29,0,.59.07,0.88,0.13a12.52,12.52,0,0,1,10.15,8.94,12.93,12.93,0,0,1,.48,2.44V588c0,0.29-.07.59-0.13,0.88a12.53,12.53,0,0,1-8.89,10.14,12.79,12.79,0,0,1-2.48.49H129c-0.29,0-.59-0.07-0.88-0.13A12.52,12.52,0,0,1,118,590.48a12.93,12.93,0,0,1-.48-2.44v-2.27c0-.29.07-0.59,0.13-0.88a12.53,12.53,0,0,1,8.89-10.14A12.79,12.79,0,0,1,129,574.27Zm1.15,1.63a11,11,0,1,0,11,11.13A11,11,0,0,0,130.16,575.9Z" transform="translate(-63.13 -533.43)" style="fill:#4d4d4d"/><path d="M129.35,593.91c0-.21,0-0.41,0-0.62a0.22,0.22,0,0,0-.22-0.26,4.27,4.27,0,0,1-1.07-.29,4,4,0,0,1-2.29-3,0.16,0.16,0,0,1,.14-0.23l2-.52a0.15,0.15,0,0,1,.23.14,2.44,2.44,0,0,0,.09.36,2,2,0,0,0,2.8,1.27,1.26,1.26,0,0,0,.77-1.12,1.12,1.12,0,0,0-.62-1.19,10.78,10.78,0,0,0-1.48-.62,10.28,10.28,0,0,1-1.92-.84,3.24,3.24,0,0,1-1.62-2.67,3.87,3.87,0,0,1,.88-2.85,3.28,3.28,0,0,1,1.95-1.08c0.35-.07.35-0.07,0.35-0.43s0-.51,0-0.76a0.21,0.21,0,0,1,.26-0.24h1.09a0.2,0.2,0,0,1,.24.23c0,0.27,0,.54,0,0.81a0.31,0.31,0,0,0,.3.38,3.55,3.55,0,0,1,2.86,2.53c0.1,0.3.1,0.31-.2,0.43l-1.6.66a0.2,0.2,0,0,1-.32-0.13,2.91,2.91,0,0,0-.62-1,1.48,1.48,0,0,0-2.3.09,1.18,1.18,0,0,0,.39,1.71,11.61,11.61,0,0,0,1.66.7,12,12,0,0,1,1.73.78,3.27,3.27,0,0,1,1.72,2.91,3.73,3.73,0,0,1-1.2,3,3.93,3.93,0,0,1-2,.92c-0.38.07-.38,0.06-0.38,0.45s0,0.74,0,1.11a0.22,0.22,0,0,1-.26.27c-0.36,0-.72,0-1.09,0a0.2,0.2,0,0,1-.24-0.23c0-.23,0-0.46,0-0.69h0Z" transform="translate(-63.13 -533.43)" style="fill:#4d4d4d"/></g><g style="clip-path:url(#clip-path)"><path d="M162.75,675.27a2.74,2.74,0,0,1-2.5-.49l-1.15-1.08-0.23-.1c-6.72-3.2-11.27-10-14-16.81-0.15-.38-0.3-0.75-0.44-1.13-1-2.42.42-4.74,1.43-6.8-5.55-15.15-12-29.94-18-44.84-2.42-6.21,9.3-9.69,11.2-3.56l0.83,2.06c4,9.84,8,19.68,11.78,29.58l0.75-.3c-1.34-3.54-3.12-7-4.13-10.68a4.39,4.39,0,0,1,.54-1.91,4.83,4.83,0,0,1,.43-0.65c2.51-3.22,9.13-3.63,10.7.66,1.37,3.14,2.35,6.53,4.05,9.54,0-3.51-2.6-6.43-2.62-9.83h0c0.9-3.22,4.85-4.79,8.05-4.06a5.66,5.66,0,0,1,2.74,1.45c1.46,2.33,2.13,5,3,7.53a4.82,4.82,0,0,1-.06-2.33,4.94,4.94,0,0,1,1.35-2.38c2.55-2.56,7.68-2.94,9.41.78l0.17,0.42c3.17,7.71,5.41,15.86,8.53,23.58a76,76,0,0,1,2.29,7.79,33.3,33.3,0,0,1,.78,5.25,8.24,8.24,0,0,1-5,6.21l-29.48,11.93-0.24.1Z" transform="translate(-63.13 -533.43)" style="fill:none;stroke:#e6e6e6;stroke-linecap:round;stroke-linejoin:round;stroke-width:5px"/><rect x="162.18" y="666.22" width="41.26" height="19.79" rx="3.3" ry="3.3" transform="translate(-303.45 -415.45) rotate(-22.04)" style="fill:none;stroke:#e6e6e6;stroke-linecap:round;stroke-linejoin:round;stroke-width:5px"/><path d="M162.75,675.27a2.74,2.74,0,0,1-2.5-.49l-1.15-1.08-0.23-.1c-6.72-3.2-11.27-10-14-16.81-0.15-.38-0.3-0.75-0.44-1.13-1-2.42.42-4.74,1.43-6.8-5.55-15.15-12-29.94-18-44.84-2.42-6.21,9.3-9.69,11.2-3.56l0.83,2.06c4,9.84,8,19.68,11.78,29.58l0.75-.3c-1.34-3.54-3.12-7-4.13-10.68a4.39,4.39,0,0,1,.54-1.91,4.83,4.83,0,0,1,.43-0.65c2.51-3.22,9.13-3.63,10.7.66,1.37,3.14,2.35,6.53,4.05,9.54,0-3.51-2.6-6.43-2.62-9.83h0c0.9-3.22,4.85-4.79,8.05-4.06a5.66,5.66,0,0,1,2.74,1.45c1.46,2.33,2.13,5,3,7.53a4.82,4.82,0,0,1-.06-2.33,4.94,4.94,0,0,1,1.35-2.38c2.55-2.56,7.68-2.94,9.41.78l0.17,0.42c3.17,7.71,5.41,15.86,8.53,23.58a76,76,0,0,1,2.29,7.79,33.3,33.3,0,0,1,.78,5.25,8.24,8.24,0,0,1-5,6.21l-29.48,11.93-0.24.1Z" transform="translate(-63.13 -533.43)" style="fill:#4d4d4d"/><rect x="162.18" y="666.22" width="41.26" height="19.79" rx="3.3" ry="3.3" transform="translate(-303.45 -415.45) rotate(-22.04)" style="fill:#4d4d4d"/></g></svg>