<svg id="Layer_1" data-name="Layer 1" xmlns="http://www.w3.org/2000/svg" viewBox="0 0 155.89 155.89"><title>dangerous-sport</title><circle cx="77.94" cy="77.94" r="77.94" style="fill:#fb8c00"/><path d="M326.57,1023.14c2.25,4,2.88,8.35,3.74,12.61a11.45,11.45,0,0,1,.21,2,2.27,2.27,0,0,1-2,2.51,2.24,2.24,0,0,1-2.73-1.7c-0.57-1.87-1.07-3.76-1.52-5.66-0.9-3.81-2.51-7.15-5.8-9.51-3.66-2.61-4.46-6.6-5-10.69-0.11-.81-0.25-1.63-0.36-2.44-0.27-2-.28-2-2-1.17-4.16,2-8,1.28-11.57-1.39-2.12-1.59-2.1-2.6-.05-4.18a2.6,2.6,0,0,0,.75-1.48c1.13-3.73,2.55-7.37,3.46-11.18a2.17,2.17,0,0,0-.45-2.21,5.92,5.92,0,0,1-.61-4.33,1.13,1.13,0,0,0-.42-1.26q-10-9.21-19.9-18.43c-5.1-4.7-10.12-9.5-15.36-14-4.89-4.23-10-8.18-15.08-12.24-1.95-1.57-2.34-2.94-1-5.05a11,11,0,0,1,8.43-5.56,1.88,1.88,0,0,0,1.66-1.06c2.19-3.75,5.7-5.3,9.86-5.59a1.65,1.65,0,0,0,1.57-.61c2.56-3.57,6.22-4.68,10.4-4.42a2.47,2.47,0,0,0,2.16-.71,11,11,0,0,1,10.4-2.81,2.54,2.54,0,0,0,2.23-.42,11.27,11.27,0,0,1,11-1.48,1.89,1.89,0,0,0,1.86-.08,10.77,10.77,0,0,1,11.54-.06,1.35,1.35,0,0,0,1.4,0c4.08-1.63,8-1.59,11.62,1.23a1.37,1.37,0,0,0,1.39.26c4.33-1.19,8.24-.43,11.49,2.79a1.59,1.59,0,0,0,1.69.28,11.46,11.46,0,0,1,8.84,2.33c2.45,1.77,2.65,3.49,1.1,6.08C354,932.61,349,942,343.87,951.34s-10,18.41-15.09,27.6a2.2,2.2,0,0,0-.28,1.84,31.78,31.78,0,0,1,.6,3.8,0.85,0.85,0,0,1,0,.59c-1.39,1.26-.17,2.22.43,3.12,2.15,3.2,4.39,6.34,6.59,9.51a2.46,2.46,0,0,0,1.17.92c1.47,0.59,1.75,1.56.93,2.93a10.51,10.51,0,0,1-11.42,5.13c-1.81-.41-2-0.17-1.76,1.65s0.37,3.68.58,5.52c0.12,1.08.26,2.19,1.46,2.68,6.08,2.51,8.36,7.86,10.18,13.56,0.41,1.27.85,2.54,1.17,3.83,0.4,1.61-.24,2.86-1.55,3.23a2.45,2.45,0,0,1-3-1.76,86.32,86.32,0,0,0-3.8-8.77A7.52,7.52,0,0,0,326.57,1023.14ZM292,935.7c1.27,3.89,2.47,7.54,3.67,11.19q5.76,17.49,11.5,35A1.43,1.43,0,0,0,309,983c4.31-.66,8.64-1.23,13-1.86,2.52-.37,2.61-0.39,2.75-2.79,0.3-5,.82-10,1.27-15,0.84-9.46,1.59-18.92,2.41-28.38,0.11-1.21-.17-1.57-1.41-1.25a6.31,6.31,0,0,1-6.29-1.49c-0.66-.64-1-0.23-1.57.08a7.14,7.14,0,0,1-7.73.08,1.15,1.15,0,0,0-1.6.11,7.11,7.11,0,0,1-7.79,1.06,0.86,0.86,0,0,0-1.22.1C298.49,936.41,295.51,936.61,292,935.7ZM306.34,989l-0.38,0q-2.33,7.17-4.65,14.33c-0.3.94,0.36,1.3,1,1.61a7.48,7.48,0,0,0,7.48-.53,21.24,21.24,0,0,1,18.06-2.33c2.62,0.79,4.71-.15,6.64-1.82a1.27,1.27,0,0,0,.17-2c-2.52-3.57-5-7.17-7.49-10.75a2.38,2.38,0,0,0-1.2-1.12c-0.17,4.05-.31,7.94-0.53,11.83,0,0.76.44,2.16-.78,2.1s-0.75-1.45-.72-2.29c0.13-3.49.31-7,.51-10.46,0.06-1.05-.21-1.57-1.39-1.28-0.9.21-1.83,0.27-2.74,0.4l-11,1.57c-1.15.17-1.6,0.64-1.09,1.88a45.81,45.81,0,0,1,2.11,5.53c0.47,1.78,1.24,3.48,1.87,5.22,0.18,0.5.32,1.06-.36,1.29s-0.86-.37-1-0.83c-0.45-1.2-.85-2.42-1.32-3.62s-1.35-2.23-1.5-3.19C307.73,992.63,306.76,990.95,306.34,989Zm-37.87-39.11L300,979.1l0.29-.28c-0.33-.45-0.64-0.91-1-1.36l-18.09-24c-1.85-2.46-3.69-4.94-5.56-7.38-0.23-.3-0.63-1.26-1.07-0.44C273.31,948,271.18,949.11,268.47,949.94Zm36.11,29.24a1.88,1.88,0,0,0-.25-1.35q-4.14-12.59-8.31-25.16c-1.55-4.68-3.08-9.37-4.65-14-0.16-.49-0.19-1.43-1.16-0.68a7.94,7.94,0,0,1-5.2,1.6c-1.06,0-1.11.45-.69,1.23,0.32,0.59.61,1.19,0.92,1.78q9.11,17.49,18.23,35A3.6,3.6,0,0,0,304.58,979.17Zm-1.74.68,0.26-.14c-0.32-.63-0.62-1.27-1-1.9l-12.62-24c-2.06-3.91-4.1-7.83-6.18-11.73-0.21-.4-0.32-1.55-1.2-0.65a8.33,8.33,0,0,1-5,2.56c-0.78.11-1,.51-0.45,1.16q1.13,1.46,2.24,2.94Q286,957.52,293.1,967C296.33,971.27,299.59,975.56,302.84,979.85Zm25.22-5.75,0.2,0.06,5-12.72,8.9-22.66c0.33-.84-1-3.48-1.79-3.55a3.37,3.37,0,0,0-3.67,2.64q-2.52,10.56-5,21.13Zm-1.39-1.68,0.28,0q2.76-11.53,5.51-23.05,1.45-6.07,2.88-12.14c0.14-.57.5-1.39-0.37-1.55a10.68,10.68,0,0,1-5-2.23Zm4.42-1.43,0.3,0.09q4.19-7.62,8.38-15.24c2.84-5.18,5.64-10.38,8.49-15.55,0.52-.94.55-1.4-0.72-1.34a6.28,6.28,0,0,1-2.29-.19c-1.11-.39-1.53,0-1.92,1-2.21,5.75-4.49,11.48-6.74,17.21Zm-8.39,24.32a4.68,4.68,0,1,1-4.68-4.68A4.68,4.68,0,0,1,322.7,995.32Z" transform="translate(-231.97 -893.56)" style="fill:#4d4d4d"/><path d="M311.54,1017.07s-1,7.21,4.41,8.64" transform="translate(-231.97 -893.56)" style="fill:none;stroke:#4d4d4d;stroke-linecap:round;stroke-linejoin:round;stroke-width:2px"/><path d="M307.78,1020.8s-1.19,5.89,4.17,6.91" transform="translate(-231.97 -893.56)" style="fill:none;stroke:#4d4d4d;stroke-linecap:round;stroke-linejoin:round;stroke-width:1.7996900000000002px"/></svg>