<?xml version="1.0" encoding="utf-8"?>
<!-- Generator: Adobe Illustrator 19.2.0, SVG Export Plug-In . SVG Version: 6.00 Build 0)  -->
<svg version="1.1" id="Layer_1" xmlns="http://www.w3.org/2000/svg" xmlns:xlink="http://www.w3.org/1999/xlink" x="0px" y="0px"
	 viewBox="0 0 155.9 155.9" style="enable-background:new 0 0 155.9 155.9;" xml:space="preserve">
<circle style="fill:#FB8C00;" cx="77.9" cy="77.9" r="77.9"/>
<g>
	<path style="fill:#4D4D4D;" d="M120.9,61.6c0.4-2.1,1.9-2.6,3.7-2.6c3.1,0,6.1,0,9.2,0c2.6,0,4,1.3,4,3.9c0,18.1,0,36.2,0,54.3
		c0,0.4-0.1,0.8-0.5,1c-0.6-0.4-1.2-0.3-1.8-0.3c-13.4,0-26.8,0-40.2,0c-0.6,0-1.3-0.1-1.8,0.3c-1.9-5.3-2.5-10.9-3.7-16.3
		c-0.4-1.7-1-2.4-2.7-2.9c-5-1.6-9.3-4-10.4-10.6c6.5,4.2,13.2,5.4,20.3,5.1c6.5-0.3,8.8-3.7,6.4-10.2c3.9,0,7.6-0.1,11.4,0
		c2.4,0.1,4.3-0.6,5.7-2.6c0.2-0.2,0.6-0.2,0.6-0.6C121,73.9,121.4,67.7,120.9,61.6z"/>
	<path style="fill:#4D4D4D;" d="M45.8,104.1c-1.4-4.5-4.2-8.2-7-11.9c-3.6-4.9-4.1-9.2-0.8-14.4c6.3-10,14.7-17.7,25.1-23.2
		c3.2-1.7,6.6-2.3,10.2-1.5c8.3,1.9,10.6,8.8,5.1,15.7c-1.1-1.3-0.8-2.8-0.8-4.1c-0.2-4.1-2.6-6.8-6.1-6.7c-3.5,0.1-5.9,2.9-5.9,6.9
		c0,3.4,0.4,6.8,1.7,10c0.9,2.1,0.3,3.2-1.4,4.4c-3.4,2.7-6.5,5.7-9.5,8.9c-1.1,1.3-1.2,2.2-0.3,3.6c3.2,5.1,6.4,10.2,9.5,15.4
		c2.7,4.6,1,9-4,11c-10.3,0.1-20.6,0-30.9,0.1c-2.6,0-5.2,0-7.8-0.1c-3.4-1.5-5.1-4-5-7.1c0.2-3.3,2.1-5.5,5.6-6.6
		C31,104.6,38.4,104.9,45.8,104.1z"/>
	<path style="fill:#4D4D4D;" d="M97.9,78.1c0,1.1,1.6,2.4,0.3,3.1c-1.1,0.6-2.9,1-4-0.4c-0.3-0.4-0.6-0.8-1.2-0.7
		c-2,0.4-2.4,0.3-1.7-1.4c1.5-4-0.8-8.2,0.9-12.2c0.7-1.6-1.3-1.6-2.1-2.2c-4.6-3.1-6.9-7.4-6.2-13c0.7-5.6,3.8-9.4,9.2-11
		c5.3-1.6,10.1-0.4,13.9,3.8c3.4,3.8,4.2,8.2,2.7,13c-1.6,5-5.2,8.1-10.3,8.8c-2.8,0.4-2.9,1.5-1.8,3.3c1.7,2.8-0.7,5.6,0.1,8.4
		c-0.4,0.3-0.9,0.1-1.3,0.4C96.8,77.9,97.4,77.7,97.9,78.1z"/>
	<path style="fill:#4D4D4D;" d="M94.7,92.1c-15.9,0-25.9-8.9-27.7-24.6c-0.1-1.2-0.2-2.3-0.1-3.5c0.2-2.9,2.2-4.9,4.8-4.8
		c2.5,0.1,4.4,1.9,4.6,4.7c0.1,1.9,0.1,3.8,0.6,5.7c1.9,7.9,6.8,12.3,14.8,13c2.1,0.2,4.2,0.1,6.3,0.1c3.2,0,5.3,1.7,5.3,4.6
		c0.1,2.8-1.7,4.6-4.8,4.8C97.2,92.2,96,92.1,94.7,92.1z"/>
	<path style="fill:#4D4D4D;" d="M23,118c0.7-0.7,1.6-0.5,2.4-0.5c11.3,0,22.6,0,33.9,0c0.8,0,1.7-0.1,2.4,0.6
		c-0.9,0.2-1.9,0.4-2.8,0.4c-10.9,0-21.9,0-32.8,0C25,118.5,24,118.2,23,118z"/>
	<path style="fill:#00FFFF;" d="M115.7,48.3c2.7-1.8,5.2-2.9,8-3.2c1.9-0.2,3.9,0.6,3.9,2.8c0,2.2-2.2,2-3.6,2
		C121.3,49.8,118.6,49.4,115.7,48.3z"/>
	<path style="fill:#00FFFF;" d="M112.4,41c1-2.9,2.5-4.9,4.6-6.3c1.3-0.9,3-1.1,4,0.4c1,1.5-0.7,2.2-1.6,2.9
		C117.4,39.4,115.1,40.2,112.4,41z"/>
	<path style="fill:#4D4D4D;" d="M93.5,118.1c0.7-0.9,1.8-0.6,2.7-0.6c12.8,0,25.7,0,38.5,0c0.9,0,1.9-0.2,2.6,0.6
		C122.7,118.4,108.1,118.5,93.5,118.1z"/>
	<path style="fill:#4D4D4D;" d="M45.8,104.1c-0.1,0.2-0.3,0.4-0.4,0.4c-7.3,0.3-14.5,0.8-21.8-0.3C31,103.7,38.4,104.1,45.8,104.1z"
		/>
	<path style="fill:#4D4D4D;" d="M120.9,61.6c1.3,4.7,0.3,9.6,0.5,14.4c0.1,1.5,0.9,3.4-0.9,4.7C120.6,74.3,120.8,68,120.9,61.6z"/>
	<path style="fill:#4D4D4D;" d="M66.5,47.8c1.8-3.3,4.4-3.7,7.4-0.9C70.9,45.9,68.6,45.9,66.5,47.8z"/>
	<path style="fill:#4D4D4D;" d="M97.9,78.1c-0.2,0-0.4,0-0.6,0.1c-0.9,0.6-1.6,1.9-2.8,0.5c-0.5-0.5-0.4-1.1,0-1.7
		c1.2-1.3,2,0.2,2.9,0.5C97.6,77.7,97.8,77.9,97.9,78.1z"/>
	<path style="fill:#4D4D4D;" d="M105.9,38.8c-1.4-0.8-2.6-1.9-4.7-1.7C103.9,35.6,104.6,35.9,105.9,38.8z"/>
	<path style="fill:#4D4D4D;" d="M104.2,34.9c2.6,0.1,2.6,0.1,3.7,3.1C106.3,37,105.7,35.4,104.2,34.9z"/>
	<path style="fill:#4D4D4D;" d="M72.4,48.4c-1.5,0-3.1-0.6-4.2,1.1C68.9,47.1,69.5,47,72.4,48.4z"/>
	<circle style="fill:#FB8C00;" cx="94.2" cy="68.4" r="1.6"/>
	<circle style="fill:#FB8C00;" cx="93.3" cy="72.5" r="1.3"/>
	<circle style="fill:#FB8C00;" cx="96.2" cy="71.7" r="0.9"/>
	
		<ellipse transform="matrix(0.5514 -0.8343 0.8343 0.5514 -18.0448 106.3827)" style="fill:#4D4D4D;" cx="89.9" cy="70" rx="0.9" ry="0.9"/>
	
		<ellipse transform="matrix(0.5514 -0.8342 0.8342 0.5514 -19.3141 117.0717)" style="fill:#4D4D4D;" cx="99.2" cy="76.5" rx="0.9" ry="0.9"/>
	<circle style="fill:#FB8C00;" cx="95.3" cy="76.1" r="1.6"/>
	<circle style="fill:#FB8C00;" cx="92.8" cy="78.5" r="0.8"/>
</g>
<g>
</g>
<g>
</g>
<g>
</g>
<g>
</g>
<g>
</g>
<g>
</g>
<g>
</g>
<g>
</g>
<g>
</g>
<g>
</g>
<g>
</g>
<g>
</g>
<g>
</g>
<g>
</g>
<g>
</g>
</svg>
