<svg id="Layer_1" data-name="Layer 1" xmlns="http://www.w3.org/2000/svg" viewBox="0 0 155.89 155.89"><title>free-wifi</title><circle cx="77.94" cy="77.94" r="77.94" style="fill:#fb8c00"/><g id="_0mJ7F6" data-name="0mJ7F6"><path d="M2894.31,2490.12a3.38,3.38,0,0,1-3.53,2.25c-3.67,0-7.33,0-11,0a1.82,1.82,0,0,0-1.53.71c-4,4.62-8,9.21-12,13.84a2.16,2.16,0,0,1-2,.89,11.32,11.32,0,0,0-1.56,0c-0.67,0-.77-0.25-0.47-0.8,0.74-1.37,1.47-2.75,2.21-4.12l5.12-9.64c0.45-.84.43-0.86-0.54-0.86-2.55,0-5.1,0-7.65,0a1.36,1.36,0,0,0-1.24.62c-1.08,1.49-2.26,2.92-3.29,4.45a2.17,2.17,0,0,1-2.47,1.12v-1.09c0.3-1.73.62-3.46,0.89-5.2a11.51,11.51,0,0,0,.44-3.45c-0.39-2.64-.88-5.26-1.33-7.88v-1.09a2.17,2.17,0,0,1,2.47,1.12c1,1.55,2.23,3,3.34,4.51a1.24,1.24,0,0,0,1.11.56c2.63,0,5.25,0,7.88,0,0.66,0,.77-0.15.46-0.74-2.43-4.54-4.83-9.08-7.26-13.62-0.51-1-.46-1.09.63-1.07,3,0,2.07-.43,4,1.78q5.66,6.44,11.25,12.95a1.82,1.82,0,0,0,1.53.71c3.67,0,7.33,0,11,0a3.38,3.38,0,0,1,3.53,2.25v1.87Z" transform="translate(-2792.72 -2364.97)" style="fill:#e6e6e6"/></g><ellipse cx="78.28" cy="52.74" rx="56.39" ry="45.71" style="fill:#4d4d4d"/><path d="M2852.91,2433.64a3.24,3.24,0,0,0-.79,2.28v0.63h2.38a1.12,1.12,0,0,1,.79.28,1,1,0,0,1,.3.75,0.91,0.91,0,0,1-.3.7,1.12,1.12,0,0,1-.79.28h-2.38v9.09a1.17,1.17,0,0,1-.33.86,1.23,1.23,0,0,1-.91.33,1.12,1.12,0,0,1-.8-0.33,1.14,1.14,0,0,1-.34-0.86v-9.09h-1a1.12,1.12,0,0,1-.79-0.28,0.91,0.91,0,0,1-.3-0.7,1,1,0,0,1,.3-0.75,1.12,1.12,0,0,1,.79-0.28h1v-0.4a6.08,6.08,0,0,1,.66-2.9,4.76,4.76,0,0,1,1.86-1.93,5.41,5.41,0,0,1,2.74-.69,1.23,1.23,0,0,1,.85.3,1,1,0,0,1,0,1.54,1.23,1.23,0,0,1-.85.3A2.71,2.71,0,0,0,2852.91,2433.64Z" transform="translate(-2792.72 -2364.97)" style="fill:#fb8c00"/><path d="M2866.24,2436.32a1.08,1.08,0,0,1,.7.93,0.82,0.82,0,0,1,0,.23,0.9,0.9,0,0,1-.93.75,2,2,0,0,1-.35,0,9.23,9.23,0,0,0-1.51-.16,4.39,4.39,0,0,0-2.7.77,2.46,2.46,0,0,0-1,2.07v6.8a1.2,1.2,0,0,1-.29.86,1.16,1.16,0,0,1-.87.3,1.19,1.19,0,0,1-.86-0.29,1.16,1.16,0,0,1-.3-0.87v-10.42a1.06,1.06,0,0,1,1.17-1.17,1,1,0,0,1,1.17,1.17v0.44a4.91,4.91,0,0,1,1.72-1.28,5.22,5.22,0,0,1,2.19-.47A4.16,4.16,0,0,1,2866.24,2436.32Z" transform="translate(-2792.72 -2364.97)" style="fill:#fb8c00"/><path d="M2879.59,2443a1.06,1.06,0,0,1-.77.29H2870a4.1,4.1,0,0,0,1.48,2.63,4.74,4.74,0,0,0,4.45.75,4.34,4.34,0,0,0,1.25-.63,1.21,1.21,0,0,1,.77-0.26,1,1,0,0,1,.7.23,1,1,0,0,1,.42.79,0.84,0.84,0,0,1-.37.7,6.47,6.47,0,0,1-2,1,7.12,7.12,0,0,1-5.67-.43,6,6,0,0,1-2.37-2.29,6.53,6.53,0,0,1-.85-3.33,6.89,6.89,0,0,1,.8-3.34,5.81,5.81,0,0,1,2.24-2.31,6.39,6.39,0,0,1,3.25-.83,5.87,5.87,0,0,1,3.1.79,5.23,5.23,0,0,1,2,2.21,7.3,7.3,0,0,1,.7,3.26A1,1,0,0,1,2879.59,2443Zm-8.26-4.07a4.18,4.18,0,0,0-1.34,2.49h7.76a4.13,4.13,0,0,0-1.17-2.49,3.42,3.42,0,0,0-2.49-.93A4,4,0,0,0,2871.33,2438.93Z" transform="translate(-2792.72 -2364.97)" style="fill:#fb8c00"/><path d="M2893.6,2443a1.06,1.06,0,0,1-.77.29H2884a4.1,4.1,0,0,0,1.48,2.63,4.74,4.74,0,0,0,4.45.75,4.34,4.34,0,0,0,1.25-.63,1.21,1.21,0,0,1,.77-0.26,1,1,0,0,1,.7.23,1,1,0,0,1,.42.79,0.84,0.84,0,0,1-.37.7,6.47,6.47,0,0,1-2,1,7.12,7.12,0,0,1-5.67-.43,6,6,0,0,1-2.37-2.29,6.53,6.53,0,0,1-.85-3.33,6.89,6.89,0,0,1,.8-3.34,5.81,5.81,0,0,1,2.24-2.31,6.39,6.39,0,0,1,3.25-.83,5.87,5.87,0,0,1,3.1.79,5.23,5.23,0,0,1,2,2.21,7.3,7.3,0,0,1,.7,3.26A1,1,0,0,1,2893.6,2443Zm-8.26-4.07a4.18,4.18,0,0,0-1.34,2.49h7.76a4.13,4.13,0,0,0-1.17-2.49,3.42,3.42,0,0,0-2.49-.93A4,4,0,0,0,2885.34,2438.93Z" transform="translate(-2792.72 -2364.97)" style="fill:#fb8c00"/><path d="M2860.58,2409.33a1.13,1.13,0,0,1,.23.75,2.22,2.22,0,0,1-.09.65l-4.68,15.54a1.66,1.66,0,0,1-.48.71,1.1,1.1,0,0,1-.73.27,1.14,1.14,0,0,1-.75-0.27,1.47,1.47,0,0,1-.47-0.69l-3.47-13.42-3.52,13.4a1.67,1.67,0,0,1-.48.71,1.1,1.1,0,0,1-.73.27,1.18,1.18,0,0,1-.75-0.26,1.4,1.4,0,0,1-.47-0.7l-4.68-15.57a2.12,2.12,0,0,1-.09-0.63,1.07,1.07,0,0,1,.27-0.77,1,1,0,0,1,.73-0.28,1.2,1.2,0,0,1,.73.23,1.3,1.3,0,0,1,.45.67l3.82,13.28,3.52-13.14a1,1,0,0,1,.42-0.58,1.24,1.24,0,0,1,.75-0.23,1.31,1.31,0,0,1,.72.21,1,1,0,0,1,.42.58l3.57,13.26,3.87-13.49a1,1,0,0,1,.41-0.61,1.43,1.43,0,0,1,.78-0.19A0.86,0.86,0,0,1,2860.58,2409.33Z" transform="translate(-2792.72 -2364.97)" style="fill:#fb8c00"/><path d="M2866,2413.54a3.24,3.24,0,1,1,2.31,1A3.15,3.15,0,0,1,2866,2413.54Zm1.46,13.42a1,1,0,0,1-.34-0.75v-9.11a0.94,0.94,0,0,1,.34-0.76,1.42,1.42,0,0,1,1.71,0,1,1,0,0,1,.33.76v9.11a1,1,0,0,1-.33.75A1.39,1.39,0,0,1,2867.43,2427Z" transform="translate(-2792.72 -2364.97)" style="fill:#fb8c00"/><path d="M2873,2421.73a1.11,1.11,0,0,1-.34-0.84,1.15,1.15,0,0,1,1.19-1.19h5.2a1.12,1.12,0,0,1,.84.34,1.18,1.18,0,0,1,.33.85,1.12,1.12,0,0,1-1.17,1.16h-5.2A1.17,1.17,0,0,1,2873,2421.73Z" transform="translate(-2792.72 -2364.97)" style="fill:#fb8c00"/><path d="M2884.58,2426.91a1.17,1.17,0,0,1-.35-0.86v-15.78a1.16,1.16,0,0,1,.35-0.87,1.19,1.19,0,0,1,.86-0.34H2896a1.2,1.2,0,0,1,.86.31,1.1,1.1,0,0,1,.33.83,1,1,0,0,1-.33.79,1.21,1.21,0,0,1-.86.3h-9.32V2417h6.69a1.2,1.2,0,0,1,.85.31,1.13,1.13,0,0,1,0,1.61,1.2,1.2,0,0,1-.85.31h-6.69V2426A1.22,1.22,0,0,1,2884.58,2426.91Z" transform="translate(-2792.72 -2364.97)" style="fill:#fb8c00"/><path d="M2900.37,2412a1.52,1.52,0,1,1,1.08.46A1.48,1.48,0,0,1,2900.37,2412Zm0.23,14.94a1.16,1.16,0,0,1-.34-0.85V2415.7a1.14,1.14,0,0,1,.34-0.86,1.18,1.18,0,0,1,2,.86v10.37a1.18,1.18,0,0,1-.33.85A1.26,1.26,0,0,1,2900.6,2426.92Z" transform="translate(-2792.72 -2364.97)" style="fill:#fb8c00"/><path d="M2886.94,2391.78l-2.62,2.5a23,23,0,0,0-32.2-.08l-2.5-2.56a24.18,24.18,0,0,1,10.06-6.27c9.74-3.08,18.51-1.23,26.28,5.41,0.31,0.26.66,0.48,1,.72v0.28Z" transform="translate(-2792.72 -2364.97)" style="fill:#fb8c00"/><path d="M2880.25,2398.2l-2.36,2.27c-6.32-5.21-12.82-5.26-19.49.09-0.33-.31-0.71-0.7-1.12-1s-0.87-.71-1.28-1C2861.56,2391.68,2874,2391.12,2880.25,2398.2Z" transform="translate(-2792.72 -2364.97)" style="fill:#fb8c00"/><path d="M2864.11,2406.31l-1.63-1.77c2.66-3.29,8.39-3.32,11.6.07l-1.8,1.67C2869.22,2404.12,2867.2,2404.11,2864.11,2406.31Z" transform="translate(-2792.72 -2364.97)" style="fill:#fb8c00"/></svg>