<svg id="Layer_1" data-name="Layer 1" xmlns="http://www.w3.org/2000/svg" viewBox="0 0 155.89 155.89"><title>medical-reimbursement</title><circle cx="77.94" cy="77.94" r="77.94" style="fill:#fb8c00"/><g id="_8QZi7m" data-name="8QZi7m"><path d="M3335.92,233.88c0.67-2.57-.35-3.87-2.9-4.67s-3.9-3.23-3.68-6a6,6,0,0,1,4.8-5.74c1.2-.27,2-0.56,1.82-2a1,1,0,0,1,1.08-1.22,1,1,0,0,1,.95,1.3c-0.15,1.23.39,1.66,1.54,1.87a6.16,6.16,0,0,1,4.59,3.68,2.32,2.32,0,0,1-.18,2.8,2,2,0,0,1-2.2.57,2,2,0,0,1-1.27-1.52,3.67,3.67,0,0,0-1.51-2.12c-0.5-.32-0.91-0.35-0.92.39,0,1.62,0,3.23,0,4.85a0.92,0.92,0,0,0,.78.88c0.62,0.21,1.24.41,1.86,0.63,2.52,0.91,4.2,2.58,4.46,5.34a6.63,6.63,0,0,1-3.49,6.87,7,7,0,0,1-2.49.89,1.18,1.18,0,0,0-1.16,1.49,5.12,5.12,0,0,1,0,1.15,0.91,0.91,0,0,1-.88.9,1,1,0,0,1-1-.74,0.69,0.69,0,0,1-.08-0.33c0.31-1.78-.57-2.35-2.21-2.82a6.69,6.69,0,0,1-4.93-5.17,2.19,2.19,0,0,1,1.58-2.88,2,2,0,0,1,2.41,1.46,6.13,6.13,0,0,0,1.77,3,1.16,1.16,0,0,0,1.11.46c0.42-.18.22-0.69,0.23-1C3335.94,235.42,3335.92,234.65,3335.92,233.88Zm2.11,0.29h0q0,1.26,0,2.53c0,0.77.37,0.91,1,.65a3.35,3.35,0,0,0,2.13-3.35,3,3,0,0,0-2.49-2.79c-0.56-.15-0.69.07-0.68,0.55C3338,232.56,3338,233.36,3338,234.17Zm-2.12-10.86h0c0-.69,0-1.38,0-2.06,0-.54-0.27-0.79-0.82-0.56a2.31,2.31,0,0,0-1.66,1.88c-0.11,1-.18,2,0.82,2.68,0.43,0.28.91,0.77,1.43,0.49s0.19-.84.22-1.28S3335.91,223.69,3335.91,223.31Z" transform="translate(-3274.77 -128.82)" style="fill:#4d4d4d"/><path d="M3353.93,202.66h22c2,0,3.33.92,3.3,2.39s-1.27,2.49-3.28,2.49h-43.86a8.08,8.08,0,0,1-1.27-.06,2.47,2.47,0,0,1-2.13-2.71,2.24,2.24,0,0,1,2.44-2.09q9.12,0,18.24,0h4.5Z" transform="translate(-3274.77 -128.82)" style="fill:#e6e6e6"/><path d="M3354,190.89h22.5a2.37,2.37,0,0,1,2.67,1.87c0.39,1.53-.79,2.91-2.66,3-2.34.06-4.69,0-7,0h-36.58a8.1,8.1,0,0,1-2.18-.16,2.37,2.37,0,0,1,.56-4.7c5.39,0,10.77,0,16.16,0H3354Z" transform="translate(-3274.77 -128.82)" style="fill:#e6e6e6"/><path d="M3373.13,164.88h1c1.58,0,1.58,0,1.58,1.64,0,0.72,0,1.45,0,2.17a0.72,0.72,0,0,0,.88.86c1,0,1.91,0,2.86,0a0.76,0.76,0,0,1,.94.9q0,1.6,0,3.21a0.81,0.81,0,0,1-1,1c-1,0-1.91,0-2.86,0a0.69,0.69,0,0,0-.82.82c0,1,0,1.91,0,2.86a0.77,0.77,0,0,1-.88.88,23.13,23.13,0,0,1-3.37,0,0.71,0.71,0,0,1-.81-0.85c0-.92,0-1.85,0-2.77a0.75,0.75,0,0,0-.91-0.92c-1,0-1.91,0-2.86,0a0.75,0.75,0,0,1-.9-0.87c0-1.13,0-2.25,0-3.38a0.7,0.7,0,0,1,.85-0.8c1,0,2,0,2.95,0a0.71,0.71,0,0,0,.87-0.86c0-1,0-2,0-2.95a0.72,0.72,0,0,1,.88-0.87c0.55,0,1.1,0,1.65,0h0Z" transform="translate(-3274.77 -128.82)" style="fill:red"/><path d="M3332.52,178.12h-3.38a1.27,1.27,0,0,1-1-.39,2,2,0,0,1-.31-1.23v-9.78a1.91,1.91,0,0,1,.32-1.24,1.29,1.29,0,0,1,1-.38h3.58a7.17,7.17,0,0,1,1.37.12,2.66,2.66,0,0,1,1,.44,2.91,2.91,0,0,1,.69.7,3.26,3.26,0,0,1,.46.93,3.63,3.63,0,0,1,.16,1.08,3,3,0,0,1-1.66,2.86,3.11,3.11,0,0,1,2.18,3.18,4.05,4.05,0,0,1-.47,2,3,3,0,0,1-1.28,1.29,4,4,0,0,1-1.16.35A10,10,0,0,1,3332.52,178.12Zm-2.5-11v3.37h2.05a3.54,3.54,0,0,0,1.29-.19,1.32,1.32,0,0,0,.7-0.71,1.83,1.83,0,0,0,.19-0.83,1.35,1.35,0,0,0-.6-1.31,3.94,3.94,0,0,0-1.82-.32H3330Zm2.33,5.26H3330v3.8h2.41q2.27,0,2.27-1.93a1.67,1.67,0,0,0-.59-1.43A2.9,2.9,0,0,0,3332.36,172.34Z" transform="translate(-3274.77 -128.82)" style="fill:#4d4d4d;stroke:#4d4d4d;stroke-linecap:round;stroke-linejoin:round"/><path d="M3339,176.73V166.48a1.94,1.94,0,0,1,.31-1.2,1,1,0,0,1,.8-0.4,1,1,0,0,1,.82.4,1.92,1.92,0,0,1,.31,1.2v10.26a1.94,1.94,0,0,1-.31,1.21,1,1,0,0,1-.82.4,1,1,0,0,1-.8-0.4A1.94,1.94,0,0,1,3339,176.73Z" transform="translate(-3274.77 -128.82)" style="fill:#4d4d4d;stroke:#4d4d4d;stroke-linecap:round;stroke-linejoin:round"/><path d="M3345.94,166.48V176h4.54a1.09,1.09,0,0,1,.83.31,1.1,1.1,0,0,1,.29.78,1.07,1.07,0,0,1-.29.78,1.11,1.11,0,0,1-.84.3h-5.41a1.3,1.3,0,0,1-1.05-.38,1.91,1.91,0,0,1-.32-1.23v-10a2,2,0,0,1,.31-1.2,1,1,0,0,1,.8-0.4,1,1,0,0,1,.82.4A1.92,1.92,0,0,1,3345.94,166.48Z" transform="translate(-3274.77 -128.82)" style="fill:#4d4d4d;stroke:#4d4d4d;stroke-linecap:round;stroke-linejoin:round"/><path d="M3355.27,166.48V176h4.54a1.09,1.09,0,0,1,.83.31,1.1,1.1,0,0,1,.29.78,1.08,1.08,0,0,1-.29.78,1.11,1.11,0,0,1-.84.3h-5.41a1.3,1.3,0,0,1-1.05-.38,1.91,1.91,0,0,1-.32-1.23v-10a2,2,0,0,1,.31-1.2,1,1,0,0,1,.8-0.4,1,1,0,0,1,.82.4A1.92,1.92,0,0,1,3355.27,166.48Z" transform="translate(-3274.77 -128.82)" style="fill:#4d4d4d;stroke:#4d4d4d;stroke-linecap:round;stroke-linejoin:round"/><path d="M3367.66,238c3.08,0,6.15,0,9.23,0a2.49,2.49,0,0,1,2.69,2.53,2.29,2.29,0,0,1-2.59,2.32q-9.29,0-18.57,0c-1.73,0-2.65-.88-2.67-2.36s1-2.47,2.69-2.48C3361.51,238,3364.59,238,3367.66,238Z" transform="translate(-3274.77 -128.82)" style="fill:#e6e6e6"/><path d="M3367.38,231.1c-3,0-6,0-9,0a2.48,2.48,0,0,1-2.58-1.72,2.38,2.38,0,0,1,2.5-3.13c2.88,0,5.76,0,8.65,0h9c0.23,0,.46,0,0.69,0a2.55,2.55,0,0,1,2.63,2.38,2.49,2.49,0,0,1-2.66,2.47C3373.53,231.13,3370.45,231.1,3367.38,231.1Z" transform="translate(-3274.77 -128.82)" style="fill:#e6e6e6"/><path d="M3367.56,219.31c-3,0-6.07,0-9.1,0-1.59,0-2.51-.73-2.68-2a2.33,2.33,0,0,1,2.49-2.86q9.22,0,18.44,0a2.4,2.4,0,0,1,2.55,2.42,2.43,2.43,0,0,1-2.58,2.41c-3,0-6.07,0-9.1,0h0Z" transform="translate(-3274.77 -128.82)" style="fill:#e6e6e6"/><polygon points="43.97 128.66 48.64 124.66 52.6 128.66 57.14 124.66 61.89 128.66 67 124.66 71.33 128.66 76.64 124.66 81.39 128.66 87.39 124.66 92.11 128.66 97.14 124.66 101.89 128.66 107.39 124.66 112.22 128.66 112.22 25.91 43.97 25.91 43.97 128.66" style="fill:none;stroke:#e6e6e6;stroke-linecap:round;stroke-linejoin:round;stroke-width:3px"/></g></svg>