<svg id="Layer_1" data-name="Layer 1" xmlns="http://www.w3.org/2000/svg" viewBox="0 0 155.89 155.89"><title>medical-reimbursement-1</title><circle cx="77.94" cy="77.94" r="77.94" style="fill:#fb8c00"/><path d="M3523.45,219c-5,4.08-7.39,9.5-8.67,15.51-1.4,6.59-1,13.19.2,19.76a23.6,23.6,0,0,1,.39,2.55c0.23,3.44-1.76,6.06-4.89,6.51-3.44.5-6.27-1.25-7-4.66-2.95-14.85-2.8-29.3,6-42.53a5.3,5.3,0,0,0,.63-2.67c0.08-2.75,0-5.51,0-8.47,3,0.84,5.86,1.59,8.67,2.5a2.93,2.93,0,0,1,1.2,1.45c1.42,2.66,3.5,3.74,6.42,2.93,3.37-.93,6.68-2.09,10-3.14a0.51,0.51,0,0,1,.18.16c-0.6,4.82,1.82,8.62,3.84,12.71,5.4,10.95,5.52,22.57,3.48,34.35-0.15.85-.28,1.7-0.48,2.54-0.89,3.64-3.75,5.5-7.34,4.8-3.22-.63-4.92-3.65-4.54-7.28,0.57-5.55,1.32-11.14,1.15-16.68-0.22-7.11-2.52-13.69-7.68-18.95A21.19,21.19,0,0,0,3523.45,219Z" transform="translate(-3445.6 -128.82)" style="fill:#4d4d4d"/><path d="M3537.3,190.07c-0.48,2.13-.28,5.1-1.66,6.46-2.21,2.2-5.48,3.34-7.2,4.31-3.23-1.49-5.34-2.61-7.55-3.46s-4.44-1.35-6.64-2.08c-2.91-1-4.95-2.63-3.94-6.64-2.44,2.56-2.58,4.45-.18,5.69,3.54,1.83,7.44,3,11.17,4.46,1.4,0.55,2.76,1.2,4.14,1.81l-6.86,5.36c-4.15-.89-9.09-2.28-13.26-5.54-5.08-4-6-9.71-2.6-15.13a18.59,18.59,0,0,1,8.48-7.29,2.41,2.41,0,0,1,3.14.63c5.39,5.58,13,5.59,18.24,0A2.47,2.47,0,0,1,3536,178c5.67,3,9.38,7.62,10.26,14,0.86,6.21-2.3,10.76-7.5,13.55a80.93,80.93,0,0,1-12.66,5,3.63,3.63,0,0,1-4.91-2.48c-0.61-2.15.66-3.88,3.09-4.84,4-1.56,8.1-2.94,11.73-5.13S3539.63,192.68,3537.3,190.07Zm-9.39.81-2.23,5,0.55,0.25,3.78-6.26-2.61-.71c0.41-.95.75-1.73,1.08-2.52s0.58-1.49,1-2.43c-1.62.3-4.1,5.11-3.46,6.2Zm-5.26,5,0.72,0,0.46-5.64-2.11.19-0.4-4.17c-1.78,2.8-1,5.64,1.32,5.62v4Zm5.16,1.4,0.41,0.46,5-2.82-1.4-1.64,3.24-2.85-0.68-.75-4.5,3.6,1.36,1.52Z" transform="translate(-3445.6 -128.82)" style="fill:#4d4d4d"/><path d="M3534.48,170.33a11,11,0,1,1-11-10.91A10.91,10.91,0,0,1,3534.48,170.33Z" transform="translate(-3445.6 -128.82)" style="fill:#4d4d4d"/><path d="M3533.58,145a2.2,2.2,0,0,1,2.19,1.07,1.8,1.8,0,0,1-.51,2,22.34,22.34,0,0,1-5.39,4.21c-0.49.31-1.09,0.58-1.22-.42-0.21-1.64,2.51-6.12,4.1-6.7A5.87,5.87,0,0,1,3533.58,145Z" transform="translate(-3445.6 -128.82)" style="fill:aqua"/><path d="M3539.86,160.87c-1.37-.39-3.68.67-4-0.78s2.12-1.89,3.43-2.62a5.32,5.32,0,0,1,4-.54,2.11,2.11,0,0,1,1.75,2.09c0,1.1-.92,1.51-1.85,1.63C3542.16,160.82,3541,160.81,3539.86,160.87Z" transform="translate(-3445.6 -128.82)" style="fill:aqua"/><path d="M3539.45,167.12c2.16,0.5,4.25,1.15,5.79,2.89,0.91,1,1.17,2.23.16,3.29s-2,.27-2.76-0.45c-1.42-1.34-2.75-2.77-4.08-4.19a1.13,1.13,0,0,1-.45-1.29C3538.39,166.85,3539,167.15,3539.45,167.12Z" transform="translate(-3445.6 -128.82)" style="fill:aqua"/></svg>