<svg id="Layer_1" data-name="Layer 1" xmlns="http://www.w3.org/2000/svg" viewBox="0 0 98.47 105.34"><title>microumbrella-favicon</title><path d="M3328.67,1180.78a16.69,16.69,0,0,1-7-5.9,15.33,15.33,0,0,1-2.49-8.63v-44a3,3,0,0,1,.9-2.25,3.1,3.1,0,0,1,5.33,2.25v44a9.9,9.9,0,0,0,1.71,5.69,11.35,11.35,0,0,0,4.73,3.92,16.22,16.22,0,0,0,6.92,1.41,15.19,15.19,0,0,0,6.65-1.41,11,11,0,0,0,4.58-3.92,10.16,10.16,0,0,0,1.65-5.69v-28a3,3,0,0,1,.9-2.25,3.07,3.07,0,0,1,2.22-.87,3,3,0,0,1,2.19.87,3,3,0,0,1,.87,2.25v28a15.65,15.65,0,0,1-2.43,8.6,16.36,16.36,0,0,1-6.77,5.93,22.15,22.15,0,0,1-9.86,2.13A23.35,23.35,0,0,1,3328.67,1180.78Z" transform="translate(-3273.54 -1077.58)" style="fill:#fb8c00"/><path d="M3371.93,1119.9a43.6,43.6,0,0,0-31.75-39.51c-0.71-.2-1.44-0.38-2.16-0.56a46.32,46.32,0,0,0-9.91-2H3328c-1.72-.16-3.5-0.25-5.32-0.25a51.15,51.15,0,0,0-14.06,1.87c-14.76,3.72-25.93,12-32,26.67a39.65,39.65,0,0,0-3.06,16.36,3.53,3.53,0,0,0,1.17,2.29,2.4,2.4,0,0,0,2-.13,5.2,5.2,0,0,0,1.37-1.42c7.39-8.38,19.86-8.46,26.6-.17,2.18,2.68,3.19,2.62,5.39,0a15.65,15.65,0,0,1,14.84-5.93,15.83,15.83,0,0,1,10.85,6.42c1.56,2.05,3,2,4.65,0a21.9,21.9,0,0,1,3.23-3.24c6-4.63,13.15-4.55,20,.25,1.57,1.1,2.85,2.61,4.43,3.7a3.43,3.43,0,0,0,2.69.49c0.58-.21,1-1.39,1.14-2.21A9.1,9.1,0,0,0,3371.93,1119.9Z" transform="translate(-3273.54 -1077.58)" style="fill:#fb8c00"/></svg>