<svg id="Layer_1" data-name="Layer 1" xmlns="http://www.w3.org/2000/svg" viewBox="0 0 381.75 100.33"><title>microassure</title><path d="M2149.56,1150.18q3.21,3.42,3.21,9.53v17.14a3,3,0,0,1-.84,2.19,3.07,3.07,0,0,1-5.27-2.19v-17.14a7.67,7.67,0,0,0-1.83-5.54,6.48,6.48,0,0,0-4.88-1.89,6.69,6.69,0,0,0-5.12,2.16,7.77,7.77,0,0,0-2,5.51v16.9a3,3,0,0,1-.84,2.19,3.07,3.07,0,0,1-5.27-2.19v-17.14a7.67,7.67,0,0,0-1.83-5.54,6.49,6.49,0,0,0-4.88-1.89,6.76,6.76,0,0,0-5.18,2.16,7.77,7.77,0,0,0-2,5.51v16.9a3,3,0,0,1-.84,2.19,3.07,3.07,0,0,1-5.27-2.19v-26.67a2.94,2.94,0,0,1,.87-2.22,3,3,0,0,1,2.19-.84,3,3,0,0,1,2.16.81,3,3,0,0,1,.9,2.13,11,11,0,0,1,3.72-2.43,12.4,12.4,0,0,1,4.67-.87,12,12,0,0,1,5.48,1.23,10.53,10.53,0,0,1,4,3.51,12.5,12.5,0,0,1,4.49-3.48,14,14,0,0,1,6-1.26A11,11,0,0,1,2149.56,1150.18Z" transform="translate(-2106.68 -1079.58)" style="fill:#fb8c00"/><path d="M2163.76,1140.62a3.91,3.91,0,1,1,2.79,1.17A3.8,3.8,0,0,1,2163.76,1140.62Zm0.6,38.41a3,3,0,0,1-.87-2.19v-26.67a2.94,2.94,0,0,1,.87-2.22,3,3,0,0,1,5.24,2.22v26.67a3,3,0,0,1-.84,2.19A3.23,3.23,0,0,1,2164.36,1179Z" transform="translate(-2106.68 -1079.58)" style="fill:#fb8c00"/><path d="M2187.35,1177.75a15.37,15.37,0,0,1-5.9-6,17.07,17.07,0,0,1-2.13-8.48,17.73,17.73,0,0,1,2.07-8.6,14.9,14.9,0,0,1,5.78-5.93,16.59,16.59,0,0,1,8.39-2.13,14.89,14.89,0,0,1,11.75,5.39,2.24,2.24,0,0,1,.6,1.56,2.63,2.63,0,0,1-1.32,2.22,2.35,2.35,0,0,1-1.38.42,3,3,0,0,1-2.34-1.08,9.55,9.55,0,0,0-3.27-2.37,10.3,10.3,0,0,0-4-.75,9.77,9.77,0,0,0-7.49,3.09,11.52,11.52,0,0,0-2.88,8.18,12.17,12.17,0,0,0,1.35,5.78,9.94,9.94,0,0,0,3.78,4,10.66,10.66,0,0,0,5.54,1.44,10,10,0,0,0,6.59-2.1,3.75,3.75,0,0,1,2.22-.84,2.55,2.55,0,0,1,1.56.54,2.79,2.79,0,0,1,1.14,2.16,2.23,2.23,0,0,1-.72,1.62,15.23,15.23,0,0,1-10.79,4A16.85,16.85,0,0,1,2187.35,1177.75Z" transform="translate(-2106.68 -1079.58)" style="fill:#fb8c00"/><path d="M2238,1147.72a2.79,2.79,0,0,1,1.8,2.4,2.1,2.1,0,0,1-.06.6,2.32,2.32,0,0,1-2.4,1.92,5,5,0,0,1-.9-0.12,23.68,23.68,0,0,0-3.9-.42,11.29,11.29,0,0,0-7,2,6.32,6.32,0,0,0-2.64,5.33v17.5a3.07,3.07,0,0,1-.75,2.22,3,3,0,0,1-2.25.78,3.07,3.07,0,0,1-2.22-.75,3,3,0,0,1-.78-2.25v-26.79a2.72,2.72,0,0,1,3-3,2.65,2.65,0,0,1,3,3v1.14a12.67,12.67,0,0,1,4.43-3.3,13.46,13.46,0,0,1,5.63-1.2A10.69,10.69,0,0,1,2238,1147.72Z" transform="translate(-2106.68 -1079.58)" style="fill:#fb8c00"/><path d="M2250,1177.78a15,15,0,0,1-5.87-5.9,18.68,18.68,0,0,1,0-17.2,15,15,0,0,1,5.87-5.9,17.15,17.15,0,0,1,8.57-2.13,16.87,16.87,0,0,1,8.48,2.13,15.31,15.31,0,0,1,5.87,5.9,18.57,18.57,0,0,1,0,17.2,15.09,15.09,0,0,1-5.84,5.9A18.26,18.26,0,0,1,2250,1177.78Zm14.05-4.7a10,10,0,0,0,3.78-4,12.18,12.18,0,0,0,1.35-5.78,12.36,12.36,0,0,0-1.35-5.81,9.9,9.9,0,0,0-3.78-4,11.18,11.18,0,0,0-11,0,10.1,10.1,0,0,0-3.81,4,12.13,12.13,0,0,0-1.38,5.81,12,12,0,0,0,1.38,5.78,10.15,10.15,0,0,0,3.81,4A11.17,11.17,0,0,0,2264.09,1173.07Z" transform="translate(-2106.68 -1079.58)" style="fill:#fb8c00"/><path d="M2330.58,1178.65a14.69,14.69,0,0,1-5.63-3.3,2.53,2.53,0,0,1-.78-1.86,2.79,2.79,0,0,1,1.2-2.34,3.64,3.64,0,0,1,2.1-.84,3.21,3.21,0,0,1,2.28,1.08,9.22,9.22,0,0,0,3.42,2.19,12.72,12.72,0,0,0,4.85.93,10.31,10.31,0,0,0,5.3-1.14,3.45,3.45,0,0,0,1.89-3.06,3.62,3.62,0,0,0-1.86-3.09,18.31,18.31,0,0,0-6.29-2.07q-11.51-2.22-11.51-9.47a7.4,7.4,0,0,1,1.74-5,10.57,10.57,0,0,1,4.55-3.06,17.47,17.47,0,0,1,6-1,18.35,18.35,0,0,1,7,1.26,11.93,11.93,0,0,1,4.88,3.48,3.05,3.05,0,0,1,.78,1.92,2.4,2.4,0,0,1-1,1.86,2.78,2.78,0,0,1-1.68.48,4.1,4.1,0,0,1-2.82-1.14,9,9,0,0,0-3.18-1.95,12.79,12.79,0,0,0-4.08-.57,9.7,9.7,0,0,0-4.52.93,2.86,2.86,0,0,0-1.77,2.61,3.28,3.28,0,0,0,.6,2,5.32,5.32,0,0,0,2.28,1.5,28.9,28.9,0,0,0,4.85,1.35q6.53,1.32,9.26,3.66a7.6,7.6,0,0,1,2.73,6.05,8.83,8.83,0,0,1-1.5,5,10,10,0,0,1-4.41,3.54,17.13,17.13,0,0,1-7,1.29A23.05,23.05,0,0,1,2330.58,1178.65Z" transform="translate(-2106.68 -1079.58)" style="fill:#fb8c00"/><path d="M2363.12,1178.65a14.7,14.7,0,0,1-5.63-3.3,2.53,2.53,0,0,1-.78-1.86,2.79,2.79,0,0,1,1.2-2.34,3.64,3.64,0,0,1,2.1-.84,3.21,3.21,0,0,1,2.28,1.08,9.22,9.22,0,0,0,3.42,2.19,12.71,12.71,0,0,0,4.85.93,10.31,10.31,0,0,0,5.3-1.14,3.45,3.45,0,0,0,1.89-3.06,3.62,3.62,0,0,0-1.86-3.09,18.31,18.31,0,0,0-6.29-2.07q-11.51-2.22-11.51-9.47a7.4,7.4,0,0,1,1.74-5,10.57,10.57,0,0,1,4.55-3.06,17.47,17.47,0,0,1,6-1,18.36,18.36,0,0,1,7,1.26,11.94,11.94,0,0,1,4.88,3.48,3.05,3.05,0,0,1,.78,1.92,2.4,2.4,0,0,1-1,1.86,2.78,2.78,0,0,1-1.68.48,4.1,4.1,0,0,1-2.82-1.14,9,9,0,0,0-3.18-1.95,12.79,12.79,0,0,0-4.08-.57,9.7,9.7,0,0,0-4.52.93,2.86,2.86,0,0,0-1.77,2.61,3.28,3.28,0,0,0,.6,2,5.32,5.32,0,0,0,2.28,1.5,28.89,28.89,0,0,0,4.85,1.35q6.53,1.32,9.26,3.66a7.6,7.6,0,0,1,2.73,6.05,8.83,8.83,0,0,1-1.5,5,10,10,0,0,1-4.4,3.54,17.14,17.14,0,0,1-7,1.29A23.06,23.06,0,0,1,2363.12,1178.65Z" transform="translate(-2106.68 -1079.58)" style="fill:#fb8c00"/><path d="M2420.65,1147.6a3,3,0,0,1,.84,2.22v26.73a3,3,0,0,1-.84,2.19,3.07,3.07,0,0,1-5.27-2.19v-0.66a13.3,13.3,0,0,1-4.55,3,15.1,15.1,0,0,1-5.63,1,15.27,15.27,0,0,1-7.43-1.8,12.66,12.66,0,0,1-5.15-5.24,17.27,17.27,0,0,1-1.86-8.3v-14.74a3.06,3.06,0,1,1,6.11,0v14.74q0,4.85,2.61,7.34a9.61,9.61,0,0,0,6.92,2.49,10.23,10.23,0,0,0,4.59-1,8.13,8.13,0,0,0,3.24-2.76,6.82,6.82,0,0,0,1.17-3.9v-16.9a2.94,2.94,0,0,1,.87-2.22A3.31,3.31,0,0,1,2420.65,1147.6Z" transform="translate(-2106.68 -1079.58)" style="fill:#fb8c00"/><path d="M2453.31,1147.72a2.78,2.78,0,0,1,1.8,2.4,2.14,2.14,0,0,1-.06.6,2.32,2.32,0,0,1-2.4,1.92,5,5,0,0,1-.9-0.12,23.68,23.68,0,0,0-3.9-.42,11.29,11.29,0,0,0-7,2,6.32,6.32,0,0,0-2.64,5.33v17.5a3.07,3.07,0,0,1-.75,2.22,3,3,0,0,1-2.25.78,3.07,3.07,0,0,1-2.22-.75,3,3,0,0,1-.78-2.25v-26.79a2.72,2.72,0,0,1,3-3,2.65,2.65,0,0,1,3,3v1.14a12.65,12.65,0,0,1,4.43-3.3,13.46,13.46,0,0,1,5.63-1.2A10.69,10.69,0,0,1,2453.31,1147.72Z" transform="translate(-2106.68 -1079.58)" style="fill:#fb8c00"/><path d="M2487.65,1164.65a2.74,2.74,0,0,1-2,.75H2462.9a10.55,10.55,0,0,0,3.81,6.77,12.17,12.17,0,0,0,11.45,1.92,11.17,11.17,0,0,0,3.21-1.62,3.11,3.11,0,0,1,2-.66,2.58,2.58,0,0,1,1.8.6,2.62,2.62,0,0,1,1.08,2,2.17,2.17,0,0,1-1,1.8,16.56,16.56,0,0,1-5.06,2.64,18.29,18.29,0,0,1-14.59-1.11,15.43,15.43,0,0,1-6.08-5.9,16.77,16.77,0,0,1-2.19-8.57,17.73,17.73,0,0,1,2.07-8.6,15,15,0,0,1,5.75-5.93,16.42,16.42,0,0,1,8.36-2.13,15.08,15.08,0,0,1,8,2,13.45,13.45,0,0,1,5.15,5.69,18.78,18.78,0,0,1,1.8,8.39A2.51,2.51,0,0,1,2487.65,1164.65Zm-21.25-10.46a10.76,10.76,0,0,0-3.45,6.41h20a10.63,10.63,0,0,0-3-6.41,8.8,8.8,0,0,0-6.41-2.4A10.36,10.36,0,0,0,2466.41,1154.2Z" transform="translate(-2106.68 -1079.58)" style="fill:#fb8c00"/><path d="M2285.52,1122.4v54.55a2.51,2.51,0,1,1-5,0V1122.4A2.51,2.51,0,1,1,2285.52,1122.4Z" transform="translate(-2106.68 -1079.58)" style="fill:#fb8c00"/><path d="M2308.37,1169h-26.23c-0.72,0-1.31-.9-1.31-2.5s0.59-2.5,1.31-2.5h26.23c0.72,0,1.31.9,1.31,2.5S2309.1,1169,2308.37,1169Z" transform="translate(-2106.68 -1079.58)" style="fill:#fb8c00"/><path d="M2285.58,1134.37l34.1,41.28a2.51,2.51,0,1,1-3.85,3.18l-34.1-41.28A2.51,2.51,0,1,1,2285.58,1134.37Z" transform="translate(-2106.68 -1079.58)" style="fill:#fb8c00"/><path d="M2331.93,1121.9a43.6,43.6,0,0,0-31.75-39.51c-0.71-.2-1.44-0.38-2.16-0.56a46.32,46.32,0,0,0-9.91-2H2288c-1.72-.16-3.5-0.25-5.32-0.25a51.15,51.15,0,0,0-14.06,1.87c-14.76,3.72-25.93,12-32,26.67a39.65,39.65,0,0,0-3.06,16.36,3.53,3.53,0,0,0,1.17,2.29,2.4,2.4,0,0,0,2-.13,5.2,5.2,0,0,0,1.37-1.42c7.39-8.38,19.86-8.46,26.6-.17,2.18,2.68,3.19,2.62,5.39,0a15.65,15.65,0,0,1,14.84-5.93,15.83,15.83,0,0,1,10.85,6.42c1.56,2.05,3,2,4.65,0a21.9,21.9,0,0,1,3.23-3.24c6-4.63,13.15-4.55,20,.25,1.57,1.1,2.85,2.61,4.43,3.7a3.43,3.43,0,0,0,2.69.49c0.58-.21,1-1.39,1.14-2.21A9.09,9.09,0,0,0,2331.93,1121.9Z" transform="translate(-2106.68 -1079.58)" style="fill:#fb8c00"/></svg>