<svg id="Layer_1" data-name="Layer 1" xmlns="http://www.w3.org/2000/svg" viewBox="0 0 155.89 155.89"><title>natural-disaster</title><circle cx="77.94" cy="77.94" r="77.94" style="fill:#fb8c00"/><path d="M161.05,998.35s-12.62-10.25-4-4.93S170.9,994,170.9,994c4.07-6.08,6.7-12.68,6.46-20.1a47.57,47.57,0,0,0-1.26-7.4,1.22,1.22,0,0,0-.72-0.77,9.09,9.09,0,0,1-5.25-4.26l-0.73.93a12.15,12.15,0,0,1-6.42,4.5c-3.15.82-5.16,0-7.93-3-2.71,1.59-5.67,1.29-7.82-3.07a32,32,0,0,1-1.57-5.2,10.76,10.76,0,0,1-2.47-.43c-1.87-.75-2.45-2.43-2.62-4.26a13.5,13.5,0,0,1,1.38-6.91,25.45,25.45,0,0,1,2.71-4.9c3.23-4.21,6.27-8.65,10.66-11.78,6.18-4.42,13.25-5.95,20.72-5.69,8.82,0.31,16.83,2.93,23.54,8.87a25.06,25.06,0,0,1,7.75,12.57c0.58,2.19,1.43,4.32,1.86,6.54a40.16,40.16,0,0,1-.11,13.3c-1.66,11.92-8,21-17.43,28.08a78.37,78.37,0,0,1-16.58,9.32C166.2,1003.13,161.05,998.35,161.05,998.35Zm9.16-40.52c0.25,0.78.36,1.23,0.53,1.66,1.54,4.06,5.46,6,9.38,4.62,2.55-.89,3.47-2.4,3.18-5.06a12.11,12.11,0,0,1,1-6.42,16.18,16.18,0,0,1,9.78-8.72c5-1.76,9.87-.83,12.55,2.81a0.81,0.81,0,0,0,.29,0,33.28,33.28,0,0,0-3.61-8.38c-2.27-3.82-5.74-5.28-9.93-4.87-5.34.53-8.9,3.75-11.19,8.42a11.22,11.22,0,0,0-.64,9.1,2.31,2.31,0,0,1-.52,2.63,6.09,6.09,0,0,1-6.87,1.21,5.25,5.25,0,0,1-1.29-1.43,2.34,2.34,0,0,0-.65-0.81c-0.86.08-1-.57-1.27-1.08s-0.42-1-.58-1.44c-0.54.25-.94,0.45-1.35,0.62-0.75.32-1.39,0.8-1.15,1.69a1.71,1.71,0,0,1-.83,2,17.43,17.43,0,0,1-1.78,1.21c-3.07,1.69-5.9.85-7.56-2.22-0.12-.21-0.27-0.41-0.43-0.65-0.27.28-.48,0.52-0.7,0.74a2.52,2.52,0,0,1-3.67.18,5.46,5.46,0,0,1-1.14-1.28,8,8,0,0,1-1-6.79l-0.59.27c-2.72,1.21-4.5.1-4.51-2.87a28.68,28.68,0,0,1,.37-3.31,20.38,20.38,0,0,0-3.39,6.79,17.74,17.74,0,0,0-.5,5.09c0.11,2,1.77,3,3.72,2.51,0.66-.16,1.31-0.4,2-0.61a8.81,8.81,0,0,0,1.37,8c1.8,2.5,4.19,2.57,5.87.32a1.4,1.4,0,0,1,.28-0.21,2.62,2.62,0,0,1,.26.34c2.19,4.16,5.61,5,9.57,2.49A12.64,12.64,0,0,0,170.21,957.83Zm30-13.14c4.09,15.62,2.88,29.87-10.13,41.49a23.48,23.48,0,0,0,5.82-5c8.49-10.34,9.49-22.21,6.92-34.75A2.45,2.45,0,0,0,200.26,944.69Zm-5.84,2.76a39,39,0,0,1,3.79,19.66A27.09,27.09,0,0,1,190,985a3.37,3.37,0,0,0,.9-0.58,25.26,25.26,0,0,0,8.36-15,39.12,39.12,0,0,0-1.71-19.75A2.84,2.84,0,0,0,194.43,947.45Z" transform="translate(-63.13 -893.56)" style="fill:#4d4d4d"/><path d="M144.23,995.38a4.21,4.21,0,0,0-.5.76,9,9,0,0,1-17-.2c0-.14-0.09-0.29-0.18-0.6-1.55,4.52-4.63,6.89-9.23,6.69-4.2-.18-7-2.55-8.26-6.63-2.07,4.82-5.56,7.21-9.66,6.64s-7.27-3.35-7.7-6.88A10.61,10.61,0,0,0,97,998.85l-1.13-5.29a8,8,0,0,1-6.2,0,7.41,7.41,0,0,1-4.15-4.77c-1.79,4.22-4.83,6.11-9.23,5.14a6.63,6.63,0,0,1-5.18-5.23,9.32,9.32,0,0,0,7.2,3.32,8.85,8.85,0,0,0,7.16-3.75c0.35,0.41.59,0.73,0.87,1a8.78,8.78,0,0,0,8.21,2.56,0.75,0.75,0,0,0,.75-1q-1.63-7.48-3.25-15a1.42,1.42,0,0,0-.17-0.29l-6.88.92c0.52-.41.82-0.68,1.14-0.91,2.71-2,5.4-4,8.14-5.93a1.38,1.38,0,0,0,.63-1.79c-0.35-1.18-.53-2.41-0.82-3.81l4.91-1.16,0.68,2.77,12-8.79c1-.71,1.9-1.46,2.92-2.1a1.55,1.55,0,0,1,1.26-.12c9.57,4.49,19.11,9,28.68,13.78l-4.15.63c0.2,1.53.38,3,.59,4.5,0.68,4.7,1.37,9.4,2.11,14.09a3.21,3.21,0,0,0,.76,1.08l0,0a2.79,2.79,0,0,0-.51,1.17c0.24,1.88.59,3.75,0.9,5.62Z" transform="translate(-63.13 -893.56)" style="fill:#4d4d4d"/><path d="M144.21,995.4a4.14,4.14,0,0,1,.54.42c4.63,5,11.65,4.86,16.2-.23a1.71,1.71,0,0,1,.28-0.38c0,2.69-2.84,5.59-5.73,6.45a9,9,0,0,1-10.91-4.8,8.66,8.66,0,0,1-.36-1.48Z" transform="translate(-63.13 -893.56)" style="fill:#4d4d4d"/><path d="M74.49,995.4a4.15,4.15,0,0,1,.54.42c4.63,5,11.65,4.86,16.2-.23a1.71,1.71,0,0,1,.28-0.38c0,2.69-2.84,5.59-5.73,6.45a9,9,0,0,1-10.91-4.8,8.66,8.66,0,0,1-.36-1.48Z" transform="translate(-63.13 -893.56)" style="fill:#4d4d4d"/><path d="M143.79,988.63a8.91,8.91,0,0,0,12.71,1.24c0.45-.38.86-0.82,1.49-1.43a7,7,0,0,1-3.57,4.79,7.48,7.48,0,0,1-10.33-3.17,5.84,5.84,0,0,1-.28-1.45Z" transform="translate(-63.13 -893.56)" style="fill:#4d4d4d"/><path d="M161.65,995.4a4.15,4.15,0,0,1,.54.42c4.63,5,11.65,4.86,16.2-.23a1.71,1.71,0,0,1,.28-0.38c0,2.69-2.84,5.59-5.73,6.45a9,9,0,0,1-10.91-4.8,8.66,8.66,0,0,1-.36-1.48Z" transform="translate(-63.13 -893.56)" style="fill:#4d4d4d"/><path d="M158,988.63a8.91,8.91,0,0,0,12.71,1.24c0.45-.38.86-0.82,1.49-1.43a7,7,0,0,1-3.57,4.79,7.48,7.48,0,0,1-10.33-3.17,5.84,5.84,0,0,1-.28-1.45Z" transform="translate(-63.13 -893.56)" style="fill:#4d4d4d"/><path d="M114.71,975.34l-11.14,1.72,2.3,9.87,10.35-1.49Z" transform="translate(-63.13 -893.56)" style="fill:#e6e6e6"/><path d="M134.12,972.51L123,974.23l2.3,9.87,10.35-1.49Z" transform="translate(-63.13 -893.56)" style="fill:#e6e6e6"/><path d="M96.86,1002.94a2.51,2.51,0,0,1,.64.39,9.78,9.78,0,0,0,12.84,1.84,31.13,31.13,0,0,0,2.89-2.49,1.47,1.47,0,0,0,.2.41,9.77,9.77,0,0,0,15.21.15,2.75,2.75,0,0,1,.42-0.33l0,0a7.82,7.82,0,0,1-6.15,6.12c-4.45.89-8.23-1.36-9.83-6-0.15.34-.26,0.57-0.35,0.81a8.27,8.27,0,0,1-15.53-.19,7.85,7.85,0,0,0-.34-0.76Z" transform="translate(-63.13 -893.56)" style="fill:#4d4d4d"/><path d="M129.06,1002.91a2.63,2.63,0,0,1,.66.41,9.83,9.83,0,0,0,13.62,1.31c0.69-.55,1.34-1.16,2.15-1.87a1.46,1.46,0,0,0,.22.39,9.79,9.79,0,0,0,15.09.17,4.34,4.34,0,0,1,.48-0.41l0,0c-0.33,2.81-3,5.5-6.15,6.12-4.45.89-8.25-1.37-9.82-6-0.13.32-.22,0.53-0.3,0.75a8.28,8.28,0,0,1-15.59-.14,7.18,7.18,0,0,0-.35-0.75Z" transform="translate(-63.13 -893.56)" style="fill:#4d4d4d"/><path d="M161.27,1002.91a2.56,2.56,0,0,1,.66.4,9.78,9.78,0,0,0,12.58,2,26.39,26.39,0,0,0,2.82-2.32c-0.26,2.63-3,5.36-6.12,6a8.17,8.17,0,0,1-9.66-5.55,4.09,4.09,0,0,0-.3-0.56Z" transform="translate(-63.13 -893.56)" style="fill:#4d4d4d"/><path d="M96.84,1002.92a8,8,0,0,1-8,6.27,7.77,7.77,0,0,1-7.84-6.41c0.12,0.17.23,0.34,0.36,0.5a9.83,9.83,0,0,0,14.83.23,5.8,5.8,0,0,1,.67-0.57Z" transform="translate(-63.13 -893.56)" style="fill:#4d4d4d"/></svg>