<svg id="Layer_1" data-name="Layer 1" xmlns="http://www.w3.org/2000/svg" viewBox="0 0 155.89 155.89" height="100%" width="100%"><title>permanent-disablement</title><circle cx="77.94" cy="77.94" r="77.94" style="fill:#fb8c00"/><path d="M140.91,252.55q-1.67,17-3.34,34c-0.46,4.67-.91,9.34-1.43,14-0.35,3.12-2.25,4.75-5.16,4.56-2.68-.17-4.42-2.06-4.34-5.11,0.27-10.4.64-20.79,1-31.19,0.45-14.23,1.36-28.45.87-42.69-0.14-4.06-.48-8.11-0.85-12.34-0.88,1.9-1.78,3.8-2.64,5.71q-5,11-9.95,22a12.17,12.17,0,0,1-1.09,2.07,2.8,2.8,0,0,1-5.14-1.63,5.38,5.38,0,0,1,.24-1.61c3.83-11.84,7.51-23.72,12.11-35.3,2.27-5.73,6.38-9.26,12.47-10.12a48.78,48.78,0,0,1,15.65.15,14.46,14.46,0,0,1,11.19,9.08c4.95,11.86,8.57,24.19,12.6,36.37,0.57,1.72.29,3.4-1.62,4.11s-3.23-.4-4-2.18q-5.35-11.88-10.73-23.75a46.36,46.36,0,0,0-2.46-4.84c-0.29,3.33-.47,6.64-0.6,9.93-0.68,17.3.58,34.57,0.94,51.85,0.17,8,.61,15.94.85,23.91,0.1,3.44-1.53,5.38-4.37,5.54-3,.17-4.83-1.6-5.17-5.05q-2.38-23.78-4.78-47.55h-0.19Z" transform="translate(-63.13 -158.17)" style="fill:#4d4d4d"/><path d="M141.07,168.77a11.55,11.55,0,0,1,11.78,11.72,11.84,11.84,0,1,1-23.68-.09A11.67,11.67,0,0,1,141.07,168.77Z" transform="translate(-63.13 -158.17)" style="fill:#4d4d4d"/><g id="VrYnPN"><path d="M147.75,214.38h-3a1.06,1.06,0,0,0-1.19.81c-0.23.55-.44,1.1-0.67,1.65a0.59,0.59,0,0,1-.31.46,0.5,0.5,0,0,1-.36-0.4q-1.67-2.91-3.34-5.83l-0.5-.86a0.32,0.32,0,0,0-.24-0.25,0.3,0.3,0,0,0-.2.28c-0.43,1-.89,2.06-1.27,3.11a1.4,1.4,0,0,1-1.5,1c-1.51,0-3,0-4.52,0a0.57,0.57,0,0,1-.66-0.44c-0.81-3.12-.23-6.49,2.56-8.61a5.18,5.18,0,0,1,5.91-.34,11.57,11.57,0,0,1,2.18,1.55,0.4,0.4,0,0,0,.63,0c0.39-.33.78-0.65,1.19-1a6,6,0,0,1,8.88,1.85,8.87,8.87,0,0,1,.85,6.05,1.08,1.08,0,0,1-1.29.9c-1,0-2.1,0-3.15,0h0Z" transform="translate(-63.13 -158.17)" style="fill:#e6e6e6"/><path d="M133.71,215.5h2.52a1.31,1.31,0,0,0,1.45-1c0.13-.36.27-0.72,0.42-1.07a0.43,0.43,0,0,1,.25-0.37c0.19,0,.21.2,0.29,0.33l3.89,6.54a0.28,0.28,0,1,0,.53,0c0.46-1.15.92-2.31,1.36-3.47a0.91,0.91,0,0,1,1-.69c1.84,0,3.68,0,5.51,0,0.54,0,.56,0,0.33.52a21.75,21.75,0,0,1-9,9.24,2.34,2.34,0,0,1-2.77-.08,22.31,22.31,0,0,1-8.22-8.14c-0.22-.4-0.39-0.82-0.59-1.23s-0.11-.54.33-0.54c0.89,0,1.79,0,2.68,0h0Z" transform="translate(-63.13 -158.17)" style="fill:#e6e6e6"/></g></svg>