<svg id="Layer_1" data-name="Layer 1" xmlns="http://www.w3.org/2000/svg" viewBox="0 0 155.89 155.89"><title>no-broker</title><circle cx="77.94" cy="77.94" r="77.94" style="fill:#fb8c00"/><circle cx="77.42" cy="21.61" r="12.44" style="fill:#4d4d4d"/><path d="M2449.59,722.51h-1.12v-1.84a6.55,6.55,0,0,0,2.8-3c0-12.83-.22-38.86-0.27-39.07-1.54-6.46-5.7-10.57-11.76-11.63a0.31,0.31,0,0,0-.12,0h0c-2.59,0-23.52,0-25.23,0a18.88,18.88,0,0,0-2.92.26c-6.13,1-10.33,5.15-11.88,11.66,0,0.2-.27,26.24-0.27,39.07,0.85,1.42,1.73,2.79,3.5,3.21a4.88,4.88,0,0,0,6.36-4.47,22.12,22.12,0,0,0,0-2.32q0-13.84,0-27.69v-1.88H2411V687q0,41.38,0,82.75a19,19,0,0,0,.27,3.62c0.49,2.47,2.37,3.69,4.49,4.64h3.32c3.85-1.34,5.1-4.14,5.08-8.08-0.11-15.59,0-31.17,0-46.76v-2h2.26v2c0,15.53.08,31.06-.05,46.59,0,4,1.15,6.86,5,8.28h3.32c3.85-1.39,5-4.3,5-8.17q0-18.21,0-36.43v-48.9h1.79v1.88q0,13.85,0,27.69c0,0.77,0,1.55,0,2.32a4.84,4.84,0,0,0,3.71,4.52v1.55H2444a3.71,3.71,0,0,0-3.51,3.88v25.69A3.71,3.71,0,0,0,2444,756h5.59a3.71,3.71,0,0,0,3.51-3.88V726.39A3.71,3.71,0,0,0,2449.59,722.51Zm-24.44-54.16h3l-1.74,4.48h-2.39l-1.73-4.48h2.82Zm0.11,29.39-3.2-2.6,2-20.31h2.33l2,20.31Z" transform="translate(-2347.83 -631.7)" style="fill:#4d4d4d"/><path d="M2445.12,721v1.55H2444a3.71,3.71,0,0,0-3.51,3.88v25.69A3.71,3.71,0,0,0,2444,756h5.59a3.71,3.71,0,0,0,3.51-3.88V726.39a3.71,3.71,0,0,0-3.51-3.88h-1.12v-1.84" transform="translate(-2347.83 -631.7)" style="fill:#e6e6e6"/><polygon points="77.32 36.66 77.53 36.66 80.35 36.66 78.62 41.14 77.53 41.14 77.32 41.14 76.23 41.14 74.5 36.66 77.32 36.66" style="fill:#e6e6e6"/><polygon points="77.42 66.05 74.22 63.45 76.26 43.14 77.42 43.14 78.59 43.14 80.62 63.45 77.42 66.05" style="fill:#e6e6e6"/><g style="opacity:0.5"><path d="M2386.27,756a7,7,0,0,1-5.2-11.68l77.57-86.24a7,7,0,0,1,10.41,9.36l-77.57,86.24A7,7,0,0,1,2386.27,756Z" transform="translate(-2347.83 -631.7)" style="fill:red"/></g><g style="opacity:0.5"><path d="M2463.84,756a7,7,0,0,0,5.2-11.68l-77.57-86.24a7,7,0,0,0-10.41,9.36l77.57,86.24A7,7,0,0,0,2463.84,756Z" transform="translate(-2347.83 -631.7)" style="fill:red"/></g></svg>