<?xml version="1.0" encoding="utf-8"?>
<!-- Generator: Adobe Illustrator 19.2.0, SVG Export Plug-In . SVG Version: 6.00 Build 0)  -->
<svg version="1.1" id="Layer_1" xmlns="http://www.w3.org/2000/svg" xmlns:xlink="http://www.w3.org/1999/xlink" x="0px" y="0px"
	 viewBox="0 0 155.9 155.9" style="enable-background:new 0 0 155.9 155.9;" xml:space="preserve">
<g>
	<circle style="fill:#FB8C00;" cx="77.9" cy="77.9" r="77.9"/>
	<g>
		<g id="_x35_zoiof_1_">
			<g>
				<path style="fill:#4D4D4D;" d="M25,57.4c1.8,1.6,3.6,3.1,5.3,4.6C40.9,71.1,51.5,80.2,62,89.4c0.7,0.6,1.1,0.7,1.9,0
					c4.7-4.1,9.3-8.1,14-12.2c0.4-0.3,0.8-0.7,1.2-1c0.8-0.5,1.8-0.4,2.4,0.3c0.6,0.7,0.6,1.6-0.1,2.4c-0.2,0.2-0.4,0.4-0.7,0.6
					c-5.3,4.6-10.7,9.2-16,13.8c-1.5,1.3-2,1.3-3.6,0c-12.4-10.7-24.7-21.4-37.1-32c-0.2-0.2-0.5-0.4-0.9-0.7c0,0.5-0.1,0.9-0.1,1.3
					c0,15.6,0,31.2,0,46.9c0,1.3,0.3,2.5,1.2,3.6c0.4-0.3,0.7-0.5,1.1-0.8c8.4-6.7,16.8-13.3,25.2-20c0.1,0,0.1-0.1,0.2-0.1
					c1.1-0.9,2.1-0.9,2.8,0c0.7,0.9,0.5,1.8-0.6,2.7c-2.1,1.7-4.1,3.3-6.2,4.9c-6,4.7-11.9,9.5-17.9,14.2c-0.3,0.2-0.6,0.5-1.1,0.9
					c24,0,47.8,0,71.9,0c-0.5-0.4-0.8-0.7-1.1-0.9c-8.2-6.2-16.5-12.4-24.7-18.5c-0.3-0.2-0.7-0.5-1-0.8c-0.9-0.7-1-1.7-0.4-2.5
					c0.6-0.8,1.6-1,2.5-0.3c1.4,1,2.7,2,4,3c7.5,5.6,15,11.2,22.4,16.8c0.3,0.2,0.7,0.5,1.2,0.9c0.1-0.9,0.2-1.6,0.2-2.3
					c0-10,0-20,0-30c0-1.9,0.6-2.7,1.8-2.7c1.2,0,1.8,0.8,1.8,2.7c0,10,0,19.9,0,29.9c0,4.8-3.5,8.4-8.3,8.4c-23.1,0-46.1,0-69.2,0
					c-5.2,0-9.4-4.1-9.4-9.3c0-15.4,0-30.9,0-46.3c0-5.4,4.1-9.5,9.6-9.5c14.1,0,42.7,0,56.8,0c1.6,0,2.5,0.7,2.5,1.8
					c0,1.1-0.9,1.7-2.4,1.7c-14.1,0-42.7,0-56.8,0C27.7,56.2,26.3,56.3,25,57.4z"/>
			</g>
		</g>
		<g id="KPdn9k_1_">
			<g>
				<path style="fill:#FF0000;stroke:#4D4D4D;stroke-width:2;stroke-miterlimit:10;" d="M96.9,62.3c-2.4,1.4-4.7,2.8-7.1,4.3
					c0.1-0.2,0.2-0.3,0.2-0.4c2.3-4.1,4.5-8.1,6.8-12.2c0.1-0.2,0.2-0.5,0.2-0.7c0-2.7,0-5.5,0-8.2c0-5.3,3.6-9.3,8.2-10.2
					c0.7-0.1,1.4-0.2,2.1-0.2c6.3,0,12.5,0,18.8,0c5,0,9.1,3.3,10.2,8.2c0.2,0.7,0.2,1.5,0.2,2.2c0,5.8,0,11.5,0,17.3
					c0,5-3.4,9.1-8.3,10.2c-0.7,0.2-1.5,0.2-2.3,0.2c-6.1,0-12.2,0-18.3,0c-4,0-7.1-1.7-9.2-5.2c-0.9-1.4-1.2-3-1.3-4.7
					C96.9,62.6,96.9,62.5,96.9,62.3z"/>
			</g>
		</g>
		<g>
			<path style="fill:#E6E6E6;" d="M116.9,39.2c0.3,0,0.8,0,1.3,0.1c1.2,0.2,1.9,0.9,1.7,2.3c-0.8,5-1.5,9.9-2.3,14.9
				c-0.1,0.4-0.6,0.9-1,0.9c-0.3,0-0.9-0.5-1-0.9c-0.8-5-1.6-10-2.3-15C113.2,39.7,114.1,39.2,116.9,39.2z"/>
			<path style="fill:#E6E6E6;" d="M113.7,63.2c0-1.8,1.3-3.1,3-3.2c1.7,0,3,1.3,3,3.1c0,1.9-1.3,3.3-3.1,3.2
				C114.9,66.4,113.7,65.1,113.7,63.2z"/>
		</g>
	</g>
</g>
<g>
</g>
<g>
</g>
<g>
</g>
<g>
</g>
<g>
</g>
<g>
</g>
<g>
</g>
<g>
</g>
<g>
</g>
<g>
</g>
<g>
</g>
<g>
</g>
<g>
</g>
<g>
</g>
<g>
</g>
</svg>
