<svg id="Layer_1" data-name="Layer 1" xmlns="http://www.w3.org/2000/svg" viewBox="0 0 155.89 155.89"><title>overseas-medical-expenses</title><circle cx="77.94" cy="77.94" r="77.94" style="fill:#fb8c00"/><path d="M2869.65,1710.44h2.16q24.48,0,49,0c2,0,3.54-.25,3.34-2.07-0.14-1.33.73-3.24-2.35-3.22-3.34,0-3.8-1.25-3.78-3.29,0.09-9.9.05-19.8,0-29.7,0-3-1.07-3.76-5.13-3.78-5,0-10.06,0-15.09,0-4.09,0-4.28.16-4.28,3.26,0,9.82,0,19.65,0,29.47a12.45,12.45,0,0,1-.31,2.7,1.51,1.51,0,0,1-1.71,1.07,1.1,1.1,0,0,1-1.24-1.3c0-.45,0-0.91,0-1.36q0-21,0-41.94c0-3.39-1-4.13-5.64-4.14q-14.47,0-28.94,0c-5.64,0-6.43.57-6.43,4.7q0,20.52,0,41c0,0.6,0,1.21,0,1.81a1,1,0,0,1-1.07,1.19,1.53,1.53,0,0,1-1.83-.93,10.22,10.22,0,0,1-.37-2.69c0-9.75,0-19.5,0-29.24,0-3.56-.06-3.6-4.73-3.61q-6.62,0-13.24,0c-5.08,0-5.94.63-5.95,4.33,0,9.75-.06,19.5,0,29.24,0,2.13-.65,3.37-3.91,3.16-1.14-.07-2.23.08-2.7,1.11-1.23,2.68.17,4.21,4,4.21h50.19Z" transform="translate(-2792.72 -1582.17)" style="fill:#4d4d4d"/><path d="M2869.87,1659.65c7.78,0,13.71,5.31,13.74,12.24s-6.22,12.35-14,12.32c-7.58,0-13.75-5.55-13.74-12.29C2855.86,1664.89,2861.88,1659.62,2869.87,1659.65Zm-0.16,19.45c1.78,0.1,3.28-.21,3.3-2.28,0-1.71,1.26-2.14,2.86-2.23,1.79-.1,2.09-1.21,2.09-2.53s-0.09-2.7-2.09-2.8c-1.82-.09-2.85-0.75-2.91-2.52-0.06-2-1.7-2-3.31-2s-3,.07-3.12,1.88-0.86,2.57-2.78,2.62-2.24,1.26-2.24,2.69,0.31,2.61,2.26,2.68c1.7,0.06,2.69.73,2.72,2.35C2866.51,1678.89,2868,1679.16,2869.71,1679.1Z" transform="translate(-2792.72 -1582.17)" style="fill:#e6e6e6"/><path d="M2878.68,1697.17c0,1.81,0,3.63,0,5.44,0,1.4-.89,2.08-2.82,2.07q-5.54,0-11.08,0c-1.89,0-2.86-.61-2.85-2,0-3.63,0-7.25,0-10.88,0-1.52.9-2.21,3-2.19q5.39,0.05,10.77,0c2.05,0,3,.64,3,2.16C2878.67,1693.55,2878.69,1695.36,2878.68,1697.17Z" transform="translate(-2792.72 -1582.17)" style="fill:#e6e6e6"/><path d="M2905.14,1691.08c0.17,1.66-.95,2.28-3.13,2.28s-3.09-.73-3.1-2.34,1-2.28,3.19-2.28S2905.34,1689.44,2905.14,1691.08Z" transform="translate(-2792.72 -1582.17)" style="fill:#e6e6e6"/><path d="M2913.76,1690.95c0.17,1.58-.67,2.41-3,2.41-2.13,0-3.25-.53-3.26-2.22s0.74-2.4,3-2.4C2912.66,1688.73,2913.94,1689.24,2913.76,1690.95Z" transform="translate(-2792.72 -1582.17)" style="fill:#e6e6e6"/><path d="M2833.65,1677.2c0.14,1.71-1.22,2.12-3.28,2.12-2.33,0-2.93-.91-2.94-2.43,0-1.72,1.2-2.2,3.28-2.17C2833,1674.75,2833.79,1675.63,2833.65,1677.2Z" transform="translate(-2792.72 -1582.17)" style="fill:#e6e6e6"/><path d="M2842.26,1677.23c0.13,1.71-1.27,2.09-3.31,2.08-2.35,0-2.89-.94-2.9-2.45,0-1.74,1.26-2.18,3.31-2.15C2841.64,1674.75,2842.4,1675.67,2842.26,1677.23Z" transform="translate(-2792.72 -1582.17)" style="fill:#e6e6e6"/><path d="M2827.49,1690.93c-0.16-1.88,1.34-2.2,3.34-2.17,2.34,0,2.86,1.07,2.86,2.54,0,1.77-1.43,2.07-3.43,2.06C2827.87,1693.33,2827.3,1692.34,2827.49,1690.93Z" transform="translate(-2792.72 -1582.17)" style="fill:#e6e6e6"/><path d="M2902.31,1679.27c-2.27.16-3.39-.46-3.39-2.13s0.8-2.39,3-2.41,3.23,0.6,3.24,2.24S2904.52,1679.46,2902.31,1679.27Z" transform="translate(-2792.72 -1582.17)" style="fill:#e6e6e6"/><path d="M2910.62,1674.74c2.19-.09,3.14.68,3.17,2.28s-0.88,2.3-3.09,2.3-3.18-.6-3.16-2.25S2908.44,1674.68,2910.62,1674.74Z" transform="translate(-2792.72 -1582.17)" style="fill:#e6e6e6"/><path d="M2839.17,1693.32c-2.18.15-3.11-.6-3.12-2.22s0.77-2.36,3-2.35,3.23,0.62,3.22,2.25S2841.43,1693.42,2839.17,1693.32Z" transform="translate(-2792.72 -1582.17)" style="fill:#e6e6e6"/><path d="M2830.32,1681.91c2.1-.14,3.31.35,3.35,2s-0.71,2.25-2.86,2.26-3.39-.35-3.36-2.12C2827.47,1682.47,2828.37,1681.75,2830.32,1681.91Z" transform="translate(-2792.72 -1582.17)" style="fill:#e6e6e6"/><path d="M2839.07,1681.9c2-.13,3.18.36,3.22,2s-0.7,2.26-2.85,2.26-3.39-.34-3.37-2.11C2836.08,1682.47,2837,1681.78,2839.07,1681.9Z" transform="translate(-2792.72 -1582.17)" style="fill:#e6e6e6"/><path d="M2905.12,1684c0.12,1.69-1.08,2.15-3.06,2.17-2.21,0-3.19-.64-3.13-2.29s1.37-2,3.25-2C2904.25,1681.86,2905.29,1682.49,2905.12,1684Z" transform="translate(-2792.72 -1582.17)" style="fill:#e6e6e6"/><path d="M2913.74,1684c0.13,1.57-1,2.15-3,2.15s-3.16-.36-3.21-2,1-2.27,3.17-2.26C2912.74,1681.88,2913.86,1682.42,2913.74,1684Z" transform="translate(-2792.72 -1582.17)" style="fill:#e6e6e6"/><g id="Elr2ab"><path d="M2869.19,1625.54c-2.59-.09-5.56.15-8.51-0.16a13.7,13.7,0,0,1-3.2-.68,5.32,5.32,0,0,1-3.65-5,17,17,0,0,1,.94-6.21,27,27,0,0,1,7.77-12.1,2.12,2.12,0,0,1,1.5-.59q5.52,0,11,0a2.13,2.13,0,0,1,1.52.56,26.53,26.53,0,0,1,8.55,15.35,11.1,11.1,0,0,1,.11,3.5c-0.33,2.62-1.95,4.25-4.71,4.86a20.9,20.9,0,0,1-4.28.49h-7.08Zm0.37-2.19c0.77,0.16,1-.21.94-0.93,0-1.24,0-1.26,1.23-1.6a4.35,4.35,0,0,0,3.34-3.51,4.43,4.43,0,0,0-1.45-4.63,8.1,8.1,0,0,0-2-1.09c-0.89-.37-1.79-0.7-2.66-1.09a1.65,1.65,0,0,1-1.16-1.49,1.79,1.79,0,0,1,1.15-1.82,2.28,2.28,0,0,1,2.62.85c0.29,0.37.31,1.07,0.81,1.09a4,4,0,0,0,1.41-.5,2.53,2.53,0,0,1,.3-0.12c0.59-.14.58-0.49,0.37-1a4.39,4.39,0,0,0-3.15-2.7,0.83,0.83,0,0,1-.79-1c0.11-.71-0.21-0.92-0.9-0.92s-1,.19-0.91.91a0.84,0.84,0,0,1-.77,1.06,4.32,4.32,0,0,0-3.39,4,4.37,4.37,0,0,0,2.61,4.53c0.5,0.24,1,.44,1.55.64a15.37,15.37,0,0,1,2.36,1,1.87,1.87,0,0,1-.07,3.18,3,3,0,0,1-3.7-.92c-0.27-.4-0.15-1.14-0.77-1.19a5,5,0,0,0-1.47.33,3,3,0,0,1-.31.08c-0.66.09-.73,0.43-0.52,1A4.78,4.78,0,0,0,2868,1621a0.66,0.66,0,0,1,.67.79c0,0.24,0,.48,0,0.72C2868.59,1623.13,2868.8,1623.51,2869.55,1623.35Z" transform="translate(-2792.72 -1582.17)" style="fill:#4d4d4d"/><path d="M2869.54,1596.5c-1.81,0-3.63,0-5.44,0a1.74,1.74,0,0,1-1.35-.55,11.53,11.53,0,0,1-2.5-3.3c-0.79-1.79.09-3.1,2-3.08a9.13,9.13,0,0,1,3.44,1c0.69,0.29,1.37.59,2,.93a3.77,3.77,0,0,0,3.6,0c1-.5,2-0.94,3.07-1.36a6.28,6.28,0,0,1,2.8-.57,1.89,1.89,0,0,1,1.83,2.6,9.91,9.91,0,0,1-3.08,4.12,1.39,1.39,0,0,1-1,.2h-5.44Z" transform="translate(-2792.72 -1582.17)" style="fill:#4d4d4d"/><path d="M2869.57,1597.42h5.19c1.07,0,1.55.37,1.58,1.16s-0.5,1.27-1.58,1.28c-2.88,0-5.75,0-8.63,0-0.67,0-1.33,0-2,0a1.21,1.21,0,0,1-1.34-1.26,1.19,1.19,0,0,1,1.42-1.16h5.35Z" transform="translate(-2792.72 -1582.17)" style="fill:#4d4d4d"/><path d="M2869.55,1623.35c0.77,0.16,1-.21.94-0.93,0-1.24,0-1.26,1.23-1.6a4.35,4.35,0,0,0,3.34-3.51,4.43,4.43,0,0,0-1.45-4.63,8.1,8.1,0,0,0-2-1.09c-0.89-.37-1.79-0.7-2.66-1.09a1.65,1.65,0,0,1-1.16-1.49,1.79,1.79,0,0,1,1.15-1.82,2.28,2.28,0,0,1,2.62.85c0.29,0.37.31,1.07,0.81,1.09a4,4,0,0,0,1.41-.5,2.53,2.53,0,0,1,.3-0.12c0.59-.14.58-0.49,0.37-1a4.39,4.39,0,0,0-3.15-2.7,0.83,0.83,0,0,1-.79-1c0.11-.71-0.21-0.92-0.9-0.92s-1,.19-0.91.91a0.84,0.84,0,0,1-.77,1.06,4.32,4.32,0,0,0-3.39,4,4.37,4.37,0,0,0,2.61,4.53c0.5,0.24,1,.44,1.55.64a15.37,15.37,0,0,1,2.36,1,1.87,1.87,0,0,1-.07,3.18,3,3,0,0,1-3.7-.92c-0.27-.4-0.15-1.14-0.77-1.19a5,5,0,0,0-1.47.33,3,3,0,0,1-.31.08c-0.66.09-.73,0.43-0.52,1A4.78,4.78,0,0,0,2868,1621a0.66,0.66,0,0,1,.67.79c0,0.24,0,.48,0,0.72C2868.59,1623.13,2868.8,1623.51,2869.55,1623.35Z" transform="translate(-2792.72 -1582.17)" style="fill:#e6e6e6"/></g><path d="M2848.49,1639.75c0.87,0.08,1.73.17,2.6,0.23,3,0.21,6,.8,9,1a25.68,25.68,0,0,0,11.88-1.49,5.7,5.7,0,0,0,3.88-5.49,1.53,1.53,0,0,1,.88-1.37c1.53-.87,3.07-1.74,4.65-2.53,2.23-1.12,4.49-2.17,6.74-3.25a11.09,11.09,0,0,1,2.86-1,2,2,0,0,1,2.4,2.71,6.69,6.69,0,0,1-2.16,3.1c-1.93,1.62-3.88,3.22-5.81,4.84a34.65,34.65,0,0,1-11.25,6.39c-3.49,1.18-6.88,2.68-10.46,3.6a33.53,33.53,0,0,1-7.94,1c-3.53,0-7.07,0-10.61,0a7.9,7.9,0,0,0-4.68,1.45,77.21,77.21,0,0,0-9.48,7.6c-0.49.47-.76,0.39-1.17-0.09q-5.74-6.84-11.51-13.65c-0.44-.51-0.31-0.75.2-1.07a111.38,111.38,0,0,0,9.19-6.31,24,24,0,0,0,3.71-3.66,13.41,13.41,0,0,1,10.44-5.08c4.56-.15,8.76,1.21,12.91,2.86a16.7,16.7,0,0,0,5.33,1.64c1.61,0.07,3.22.11,4.82,0.2a41.73,41.73,0,0,1,7,.65c2.6,0.6,3.38,2.61,1.9,4.82a4.38,4.38,0,0,1-1.85,1.5,21.14,21.14,0,0,1-4.69,1.39c-3.39.73-6.77,0.3-10.16,0.07-2.56-.17-5.13-0.38-7.7-0.38a6.58,6.58,0,0,0-.91.13v0.14Z" transform="translate(-2792.72 -1582.17)" style="fill:#4d4d4d"/></svg>