<svg id="Layer_1" data-name="Layer 1" xmlns="http://www.w3.org/2000/svg" viewBox="0 0 155.89 155.89"><title>permanent-disablement</title><circle cx="77.94" cy="77.94" r="77.94" style="fill:#fb8c00"/><g style="opacity:0.5"><path d="M3143.41,230.83l3.61,7.44a2.1,2.1,0,0,0,.65.07c7.37-3.78,14.07-.69,18.91,3.81a2.54,2.54,0,0,1,.21,3.7c-1,1.06-2.35,1-3.71.06a33.83,33.83,0,0,0-4.94-3.24,8.38,8.38,0,0,0-9.15,1l1.13,0.88c4.15,3.25,8.33,6.47,12.43,9.78,1.61,1.3,1.78,2.85.72,4s-2.59,1.16-4.22-.32c-5.43-5-11.19-9.44-17.88-12.6a2.87,2.87,0,0,1-1.29-1.18c-1.91-3.85-3.74-7.75-5.63-11.61a2.24,2.24,0,0,0-1-1.21c-5.34-1.27-6.89-5.31-6.43-9.91a37,37,0,0,1,1.08-5.09c0.27-1.1.92-1.91,2.19-1.55s1.26,1.34,1,2.46a30.83,30.83,0,0,0-1,5.82c-0.08,3.81,2,5.42,5.74,4.94,2.67-.34,5.35-0.56,8-0.78,3.28-.27,5.28-2.3,6.9-4.89,0.7-1.13,1.21-2.93,3-1.8s0.43,2.44-.23,3.57A12.48,12.48,0,0,1,3143.41,230.83Z" transform="translate(-3103.95 -128.82)" style="fill:#4d4d4d"/><path d="M3154.27,270.75h6.11c0,1.86.06,3.64-.06,5.41,0,0.33-.78.61-1.57,1.19V272.4h-6.13v-5.28h-6.12v-5.3h-6.16v-5.35h-6.09v-5.3h-6.07V246H3122v-5.34h-6v-6.09h1.56v4.3h6v5.32h6.13v5.32H3136v5.36h6V260h6.14v5.33h6.17v5.37Z" transform="translate(-3103.95 -128.82)" style="fill:#4d4d4d"/><path d="M3143.09,221.39a4.6,4.6,0,1,1-4.63-4.54A4.64,4.64,0,0,1,3143.09,221.39Z" transform="translate(-3103.95 -128.82)" style="fill:#4d4d4d"/><path d="M3142.2,207.52c0.34-1.37,1.05-2.34,1.58-2.16a2.73,2.73,0,0,1,1,3c-0.51,1.3-2.2,4.74-2.54,4.6S3141.86,208.89,3142.2,207.52Z" transform="translate(-3103.95 -128.82)" style="fill:#4d4d4d"/><circle cx="3141.79" cy="214.09" r="0.54" transform="translate(-557.77 3177.5) rotate(-83)" style="fill:#4d4d4d"/><path d="M3161.31,235.95s-2.66-4.05-7.5-1.22" transform="translate(-3103.95 -128.82)" style="fill:none;stroke:#4d4d4d;stroke-linecap:round;stroke-linejoin:round"/><path d="M3161.1,233.12a4.89,4.89,0,0,0-6.39-.89" transform="translate(-3103.95 -128.82)" style="fill:none;stroke:#4d4d4d;stroke-linecap:round;stroke-linejoin:round"/></g><path d="M3215.82,202.76c0-.54-0.06-1.08-0.09-1.61a4.83,4.83,0,0,0-.67-0.09c-6.16.18-12.32,0.47-18.48,0.52a5.13,5.13,0,0,1-5.11-5.26,5.27,5.27,0,0,1,5.34-5.25,30.55,30.55,0,0,0,3.32.07,2.62,2.62,0,0,0,1.84-1c2.09-4.46,4.25-8.91,6-13.52,1-2.77,1.34-5.82,2-8.74l-0.62-.47a30.26,30.26,0,0,0-3.56.68,13.64,13.64,0,0,1-7.83,0c-5.37-1.45-10.29-.55-14.41,3.36a26.89,26.89,0,0,0-7.31,13.27c-2.77,10.84-2.16,21.8-1,32.77a4.42,4.42,0,0,0,1,2.14c1.47,1.83,3.43,1.52,5.21,1a4,4,0,0,1,2.51-.81,4.45,4.45,0,0,1,1.16.16q0.56-16.11,1.07-32.23a9.93,9.93,0,0,0-.84-2.91h-0.64l2.62-5.2,0.49,0.2q0,2.22,0,4.44,0,19.21,0,38.41a4.82,4.82,0,0,1,0,2.63c0,0.65,0,1.3,0,2s0.13,2,.6,2.28a25.47,25.47,0,0,0,12.33,2.57V210.88L3203,211v2.27q0,21.87,0,43.74a6.57,6.57,0,0,0,2.83,5.89,6.17,6.17,0,0,0,6.67.32c2.44-1.28,3.39-3.46,3.39-6.13Q3215.82,229.91,3215.82,202.76Z" transform="translate(-3103.95 -128.82)" style="fill:#4d4d4d"/><path d="M3213.41,156a11.63,11.63,0,1,1-23.25-.13A11.63,11.63,0,1,1,3213.41,156Z" transform="translate(-3103.95 -128.82)" style="fill:#4d4d4d"/><path d="M3210.74,167.57c4-.23,6.65,1.82,8.65,4.84,3.07,4.65,4.1,10,5,15.35,0.14,0.79.19,1.59,0.34,2.38,1.07,5.77-2.48,8.27-7,9.17C3218.4,188.11,3214.66,177.89,3210.74,167.57Z" transform="translate(-3103.95 -128.82)" style="fill:#4d4d4d"/><path d="M3200.52,248.19a6.33,6.33,0,1,1-12.58-1.18Z" transform="translate(-3103.95 -128.82)" style="fill:#4d4d4d"/><path d="M3187.86,239.08v-6.56c2.69,0.65,5.29,1.32,7.91,1.88,1,0.22,2.08.14,3.11,0.3a10.38,10.38,0,0,1,1.72.56,6.62,6.62,0,0,1-1.25,1.37C3195.86,238.75,3192,239.17,3187.86,239.08Z" transform="translate(-3103.95 -128.82)" style="fill:#4d4d4d"/><path d="M3187.59,242.27l12.91-2.66v5.61a29.35,29.35,0,0,1-12-1.14C3188,243.91,3187.83,242.78,3187.59,242.27Z" transform="translate(-3103.95 -128.82)" style="fill:#4d4d4d"/><path d="M3200.88,192.26c-1.76,2.76-3.24,5.16-4.84,7.46a1.81,1.81,0,0,1-1.67,0,3.87,3.87,0,0,1-1.7-4.19,3.72,3.72,0,0,1,3.36-3.21A46,46,0,0,1,3200.88,192.26Z" transform="translate(-3103.95 -128.82)" style="fill:#4d4d4d"/><path d="M3183.47,223.7q0-18.77,0-37.54c0-2.3.19-2.49,1.62-2.42,0.77,0,1.07.59,1.07,1.72,0,0.8,0,1.6,0,2.41q0,35.93,0,71.86c0,0.67,0,1.34,0,2,0.05,1.58-.33,2.27-1.41,2.28s-1.32-.89-1.32-2.38Q3183.49,242.67,3183.47,223.7Z" transform="translate(-3103.95 -128.82)" style="fill:#4d4d4d"/></svg>