<svg id="Layer_1" data-name="Layer 1" xmlns="http://www.w3.org/2000/svg" viewBox="0 0 155.89 155.89"><title>phone-wet</title><circle cx="77.94" cy="77.94" r="77.94" style="fill:#fb8c00"/><g id="q8WQW7"><path d="M3513.3,589.56l-15.41-46.17a6.64,6.64,0,0,1,3.05-8.1,8,8,0,0,1,1.48-.65l45.64-15.23a6.76,6.76,0,0,1,8.3,3,8.08,8.08,0,0,1,.68,1.52l30.68,91.91a6.82,6.82,0,0,1-4.5,9L3537.58,640a6.8,6.8,0,0,1-8.42-3.16,7.25,7.25,0,0,1-.5-1.3ZM3567.64,566l-11.14-33.37a5.89,5.89,0,0,0-.41-1,3.87,3.87,0,0,0-4.81-1.85l-21.15,7.06-24,8a4,4,0,0,0-2.61,2.4,4.57,4.57,0,0,0,.11,3.21l22.17,66.42c0.05,0.16.1,0.32,0.16,0.47a4,4,0,0,0,5.25,2.52l45.05-15a4.38,4.38,0,0,0,.77-0.31,3.91,3.91,0,0,0,1.84-4.87ZM3551,624a6.26,6.26,0,0,0,7.94,4,6.32,6.32,0,0,0,4-8.08A6.31,6.31,0,0,0,3551,624Z" transform="translate(-3458.7 -501.79)" style="fill:#4d4d4d"/><path d="M3567.64,566l-11.14-33.37a5.89,5.89,0,0,0-.41-1,3.87,3.87,0,0,0-4.81-1.85l-21.15,7.06-24,8a4,4,0,0,0-2.61,2.4,4.57,4.57,0,0,0,.11,3.21l22.17,66.42c0.05,0.16.1,0.32,0.16,0.47a4,4,0,0,0,5.25,2.52l45.05-15a4.38,4.38,0,0,0,.77-0.31,3.91,3.91,0,0,0,1.84-4.87Z" transform="translate(-3458.7 -501.79)" style="fill:#e6e6e6"/><path d="M3531.2,619.89l45.05-15a4.37,4.37,0,0,0,.77-0.31,3.91,3.91,0,0,0,1.84-4.87l-5.55-16.62s-7.68,12.66-16.38,8.37-15.23,3.66-15.23,3.66-5.83,7.6-6.46,3.48c-0.49-3.21-14.25-10.85-20.27-14.06l10.81,32.39c0.05,0.16.1,0.32,0.16,0.47A4,4,0,0,0,3531.2,619.89Z" transform="translate(-3458.7 -501.79)" style="fill:aqua"/></g><path d="M3510.83,625.25a6,6,0,0,1-4,5.71,6.06,6.06,0,0,1-6.64-1.6,5.6,5.6,0,0,1-1-6.39c1.46-2.78,3.09-5.48,4.67-8.2,0.35-.6.92-1.26,1.47-0.35,2,3.25,4.24,6.32,5.38,10A3.91,3.91,0,0,1,3510.83,625.25Z" transform="translate(-3458.7 -501.79)" style="fill:aqua"/><path d="M3521.88,635.91a5,5,0,0,1-3.07,5.09,5.09,5.09,0,0,1-5.64-1.07,4.77,4.77,0,0,1-1.13-5.58c1.18-2.4,2.58-4.69,3.9-7,0.39-.69,1-1,1.48-0.18,1.44,2.56,3.18,5,4.27,7.7A4.19,4.19,0,0,1,3521.88,635.91Z" transform="translate(-3458.7 -501.79)" style="fill:aqua"/></svg>