<svg id="Layer_1" data-name="Layer 1" xmlns="http://www.w3.org/2000/svg" viewBox="0 0 155.89 155.89"><title>phone-wear-tear</title><circle cx="77.94" cy="77.94" r="77.94" style="fill:#fb8c00"/><g id="q8WQW7"><path d="M3435.26,2245.58q0.18-21.9.36-43.79a6,6,0,0,1,5-6,7.24,7.24,0,0,1,1.45-.12l43.29,0.36a6.08,6.08,0,0,1,6.2,4.94,7.27,7.27,0,0,1,.13,1.5q-0.36,43.59-.72,87.18a6.14,6.14,0,0,1-6.45,6.33l-43.29-.36a6.11,6.11,0,0,1-6.24-5.14,6.5,6.5,0,0,1,0-1.25Q3435.08,2267.4,3435.26,2245.58Zm53.12-4.16q0.13-15.83.26-31.65a5.3,5.3,0,0,0,0-1,3.48,3.48,0,0,0-3.56-3l-20.06-.17-22.77-.19a3.59,3.59,0,0,0-2.92,1.28,4.11,4.11,0,0,0-.84,2.77q-0.26,31.5-.52,63c0,0.15,0,.3,0,0.45a3.57,3.57,0,0,0,3.73,3.68l42.74,0.35a3.94,3.94,0,0,0,.75,0,3.51,3.51,0,0,0,3-3.61Q3488.26,2257.37,3488.39,2241.42Zm-31.13,44.48a5.63,5.63,0,0,0,5.58,5.75,5.69,5.69,0,0,0,5.78-5.7A5.68,5.68,0,0,0,3457.25,2285.9Z" transform="translate(-3381.08 -2169.87)" style="fill:#4d4d4d"/><path d="M3488.39,2241.42q0.13-15.83.26-31.65a5.3,5.3,0,0,0,0-1,3.48,3.48,0,0,0-3.56-3l-20.06-.17-22.77-.19a3.59,3.59,0,0,0-2.92,1.28,4.11,4.11,0,0,0-.84,2.77q-0.26,31.5-.52,63c0,0.15,0,.3,0,0.45a3.57,3.57,0,0,0,3.73,3.68l42.74,0.35a3.94,3.94,0,0,0,.75,0,3.51,3.51,0,0,0,3-3.61Q3488.26,2257.37,3488.39,2241.42Z" transform="translate(-3381.08 -2169.87)" style="fill:#1a1a1a"/></g><path d="M3507.54,2261.46c-1.21-3.08-2.24-5.62-3.2-8.19-2.09-5.63-4.12-11.28-6.23-16.9a4.72,4.72,0,0,0-1.52-2.43c-1.79-1-2.24-2.51-2.42-4.35-0.26-2.66-.69-5.3-1.07-8.12l2.77-1c1.86,2.95,3.68,5.79,5.44,8.67a2,2,0,0,1,.2,1.58c-0.87,2-.16,3.7.51,5.5,2.88,7.81,5.72,15.64,8.77,24a21,21,0,0,1,3.13-1.49,1.83,1.83,0,0,1,1.48.69c0,5.14,2.92,9.38,4.24,14.1,0.32,1.15.83,2.25,1.21,3.39,1,3.06-.39,5.71-3.58,6.82s-5.81-.07-6.92-3c-1.54-4-2.91-8.11-4.48-12.13a21.11,21.11,0,0,0-2.31-4.19c-0.74-1.08-.87-1.77.56-2.16C3505.12,2262,3506.15,2261.79,3507.54,2261.46Zm5.81,19.69a1.81,1.81,0,0,0,.68-0.57,3.34,3.34,0,0,0,0-1.57c-1.53-4.31-3.09-8.62-4.73-12.89a4.06,4.06,0,0,0-1.37-1.15,4.71,4.71,0,0,0-.07,1.69c1.52,4.32,3.11,8.61,4.69,12.91A17.06,17.06,0,0,0,3513.35,2281.15Zm-1.45-17.53a10.93,10.93,0,0,0,.29,1.27c1.6,4.43,3.2,8.87,4.86,13.28a3.48,3.48,0,0,0,1.11,1,3.85,3.85,0,0,0,.28-1.59c-0.51-1.68-1.16-3.31-1.76-5-1-2.77-2-5.56-3.05-8.32a2.5,2.5,0,0,0-.93-1A1.9,1.9,0,0,0,3511.9,2263.62Z" transform="translate(-3381.08 -2169.87)" style="fill:#e6e6e6"/><path d="M3431.62,2223.67c5.9,5.62,3.79,16.71-3.59,19.91-0.28.12-.56,0.24-0.85,0.33-3,1-6.14,1.73-6.1,5.77l-9.76-4c2.23-2.44,1.79-5,.5-8-3.9-9.06.05-16,10.35-18-0.9,2.22-1.7,4.2-2.51,6.18-2.42,5.92-2.43,5.92,3.47,8.29,2.78,1.11,3.56.81,4.76-1.91S3430.35,2226.58,3431.62,2223.67Z" transform="translate(-3381.08 -2169.87)" style="fill:#e6e6e6"/><path d="M3408.17,2252.31l10.48,4.28q-1.32,4-2.63,7.89c-1.59,4.75-3.12,9.52-4.8,14.24-1.6,4.47-5.81,6.49-9.76,4.86s-5.63-6-3.59-10.3C3401.16,2266.29,3404.67,2259.39,3408.17,2252.31ZM3406,2280.2a4.13,4.13,0,0,0,2.16-5.29,3.9,3.9,0,0,0-5.19-2.24,4.06,4.06,0,0,0-2.31,5.38A4.25,4.25,0,0,0,3406,2280.2Z" transform="translate(-3381.08 -2169.87)" style="fill:#e6e6e6"/><polygon points="27.09 82.44 30.24 75.78 40 79.81 37.56 86.73 27.09 82.44" style="fill:#e6e6e6"/><line x1="68.47" y1="58" x2="78.22" y2="68.75" style="fill:none;stroke:aqua;stroke-linecap:round;stroke-linejoin:round;stroke-width:3px"/><line x1="78.22" y1="58" x2="68.47" y2="68.75" style="fill:none;stroke:aqua;stroke-linecap:round;stroke-linejoin:round;stroke-width:3px"/><line x1="87.25" y1="58" x2="97" y2="68.75" style="fill:none;stroke:aqua;stroke-linecap:round;stroke-linejoin:round;stroke-width:3px"/><line x1="97" y1="58" x2="87.25" y2="68.75" style="fill:none;stroke:aqua;stroke-linecap:round;stroke-linejoin:round;stroke-width:3px"/><path d="M3455.24,2249.17c-1.66,0-3.06.78-4.57,2.62a6.85,6.85,0,0,1-3.05,2.51c-0.71.23-1.49,0.5-1.19,1.38a1.58,1.58,0,0,0,2,.82,6.91,6.91,0,0,0,3.42-2.42c2.86-3.37,4.06-3.38,6.87-.12,3.05,3.54,6.2,3.56,9.36,0,3-3.33,4.11-3.33,7.07.11a5.76,5.76,0,0,0,4.13,2.44,1.2,1.2,0,0,0,1.46-.87,1,1,0,0,0-1-1.33c-1.7-.15-2.58-1.36-3.53-2.52-2.9-3.51-6.43-3.49-9.36,0-2.78,3.33-4,3.35-6.84,0A6.49,6.49,0,0,0,3455.24,2249.17Z" transform="translate(-3381.08 -2169.87)" style="fill:aqua"/></svg>