<?xml version="1.0" encoding="utf-8"?>
<!-- Generator: Adobe Illustrator 19.2.0, SVG Export Plug-In . SVG Version: 6.00 Build 0)  -->
<svg version="1.1" id="Layer_1" xmlns="http://www.w3.org/2000/svg" xmlns:xlink="http://www.w3.org/1999/xlink" x="0px" y="0px"
	 viewBox="0 0 152.5 166.1" style="enable-background:new 0 0 152.5 166.1;" xml:space="preserve">
<g>
	<g id="Uf8Xmi_2_">
		<g>
			<path style="fill:#F78D1E;" d="M0,37.1c0-2.9,0-5.9,0-8.8c0-2.5,0.8-3.3,3.3-3.4C23.2,23.4,42.2,18.7,60,9.5
				c5-2.6,9.9-5.5,14.5-8.8c1.6-1.1,2.9-1,4.4,0.1c15.4,10.8,32.2,18.1,50.7,21.7c6.5,1.3,13.1,2.1,19.7,2.3c2.3,0.1,3.1,0.8,3.1,3
				c-0.2,23.1-3.5,45.7-12.1,67.3c-6.2,15.8-15.1,30-26.7,42.5c-10.4,11.2-22.4,20.3-35.5,27.9c-1.2,0.7-2.3,0.8-3.6,0.2
				C60.3,159,47.2,150.4,36.1,139c-14-14.3-23.5-31.3-29.2-50.4c-3.4-11.4-5.4-23-6.3-34.8C0.2,48.3-0.1,42.7,0,37.1z"/>
		</g>
	</g>
	<g id="q8WQW7_1_">
		<g>
			<path style="fill:#4E4E4E;" d="M45,83.8c0-4.6,0-9.3,0-13.9c0-1,0.6-1.7,1.6-1.9c0.2,0,0.3,0,0.5,0c4.6,0,9.2,0,13.8,0
				c1,0,1.8,0.6,2,1.6c0,0.2,0,0.3,0,0.5c0,9.2,0,18.5,0,27.7c0,1.2-0.8,2-2,2c-4.6,0-9.2,0-13.8,0c-1,0-1.8-0.6-2-1.6
				c0-0.1,0-0.3,0-0.4C45,93,45,88.4,45,83.8z M61.9,82.3c0-3.4,0-6.7,0-10.1c0-0.1,0-0.2,0-0.3c-0.1-0.6-0.5-0.9-1.1-0.9
				c-2.1,0-4.3,0-6.4,0c-2.4,0-4.8,0-7.2,0c-0.4,0-0.7,0.1-0.9,0.4c-0.2,0.3-0.3,0.6-0.3,0.9c0,6.7,0,13.4,0,20c0,0,0,0.1,0,0.1
				c0,0.7,0.5,1.2,1.2,1.2c4.5,0,9.1,0,13.6,0c0.1,0,0.2,0,0.2,0c0.6-0.1,0.9-0.6,0.9-1.2C61.9,89.1,61.9,85.7,61.9,82.3z
				 M52.1,96.5c0,1,0.8,1.8,1.8,1.8c1,0,1.8-0.8,1.8-1.8c0-1.1-0.9-1.8-1.8-1.8C52.9,94.7,52.1,95.5,52.1,96.5z"/>
		</g>
		<path style="fill:#E6E6E5;" d="M61.9,82.3c0-3.4,0-6.7,0-10.1c0-0.1,0-0.2,0-0.3c-0.1-0.6-0.5-0.9-1.1-0.9c-2.1,0-4.3,0-6.4,0
			c-2.4,0-4.8,0-7.2,0c-0.4,0-0.7,0.1-0.9,0.4c-0.2,0.3-0.3,0.6-0.3,0.9c0,6.7,0,13.4,0,20c0,0,0,0.1,0,0.1c0,0.7,0.5,1.2,1.2,1.2
			c4.5,0,9.1,0,13.6,0c0.1,0,0.2,0,0.2,0c0.6-0.1,0.9-0.6,0.9-1.2C61.9,89.1,61.9,85.7,61.9,82.3z"/>
	</g>
	<g id="TfrDyC_1_">
		<g>
			<path style="fill:#4E4E4E;" d="M121.1,99.7c-0.4,0.6-1,0.8-1.8,0.8c-14.8,0-29.7,0-44.5,0c-0.7,0-1.3-0.2-1.8-0.8
				c0-0.6,0-1.3,0-1.9c1.7-1.6,3.5-3.2,5.2-4.8c0.6-0.6,1.3-0.9,2.2-0.9c11.1,0,22.2,0,33.3,0c0.9,0,1.5,0.3,2.2,0.9
				c1.7,1.6,3.5,3.2,5.2,4.8C121.1,98.4,121.1,99,121.1,99.7z M97.1,95.9c-0.6,0-1.3,0-1.9,0c-1.2,0-2.5,0-3.7,0
				c-0.6,0-1.1,0.3-1.1,0.9c0,0.7,0.7,0.4,1,0.4c3.8,0,7.7,0,11.5,0c0.3,0,0.8,0.2,0.9-0.3c0-0.5-0.3-0.8-0.8-0.9
				c-0.3-0.1-0.6,0-1,0C100.4,95.9,98.7,95.9,97.1,95.9z M97.1,98.1C97.1,98.1,97.1,98.1,97.1,98.1c-0.9,0-1.8,0-2.6,0
				c-0.2,0-0.5,0-0.5,0.3c0,0.3,0.3,0.4,0.5,0.4c0.7,0,1.4,0,2,0c1,0,1.9,0,2.9,0c0.4,0,0.8,0,0.8-0.5c0-0.4-0.5-0.3-0.8-0.3
				C98.6,98.1,97.8,98.1,97.1,98.1z"/>
			<path style="fill:#4E4E4E;" d="M97,68.6c5.4,0,10.7,0,16.1,0c1.9,0,2.3,0.4,2.3,2.2c0,6.2,0,12.5,0,18.7c0,1.9-0.4,2.2-2.3,2.2
				c-10.7,0-21.4,0-32.2,0c-1.9,0-2.2-0.4-2.2-2.3c0-6.2,0-12.5,0-18.7c0-1.9,0.4-2.2,2.3-2.2C86.3,68.6,91.7,68.6,97,68.6z
				 M97.1,70.7c-5,0-10,0-15,0c-1.1,0-1.4,0.3-1.4,1.4c0,5.4,0,10.9,0,16.3c0,1,0.3,1.4,1.3,1.4c9.9,0,19.9,0,29.8,0
				c1.1,0,1.4-0.3,1.4-1.4c0-5.4,0-10.8,0-16.2c0-1.1-0.3-1.5-1.4-1.4C107,70.7,102.1,70.7,97.1,70.7z"/>
		</g>
		<path style="fill:#E6E6E5;" d="M97.1,70.7c-5,0-10,0-15,0c-1.1,0-1.4,0.3-1.4,1.4c0,5.4,0,10.9,0,16.3c0,1,0.3,1.4,1.3,1.4
			c9.9,0,19.9,0,29.8,0c1.1,0,1.4-0.3,1.4-1.4c0-5.4,0-10.8,0-16.2c0-1.1-0.3-1.5-1.4-1.4C107,70.7,102.1,70.7,97.1,70.7z"/>
	</g>
	<g id="Elr2ab_3_">
		<g>
			<path style="fill:#4E4E4E;" d="M75.8,62.8c-2.6-0.1-5.6,0.2-8.5-0.2c-1.1-0.1-2.2-0.3-3.2-0.7c-2.3-0.8-3.5-2.6-3.7-5
				c-0.1-2.1,0.3-4.2,0.9-6.2c1.6-4.7,4-8.8,7.8-12.1c0.4-0.4,0.9-0.6,1.5-0.6c3.7,0,7.4,0,11,0c0.6,0,1.1,0.2,1.5,0.6
				c4.7,4.1,7.4,9.3,8.5,15.4c0.2,1.2,0.3,2.3,0.1,3.5c-0.3,2.6-1.9,4.3-4.7,4.9c-1.4,0.3-2.8,0.5-4.3,0.5c-1.1,0-2.2,0-3.4,0
				C78.4,62.8,77.3,62.8,75.8,62.8z M76.2,60.6c0.8,0.2,1-0.2,0.9-0.9c0-1.2,0-1.3,1.2-1.6c1.8-0.5,3-1.7,3.3-3.5
				c0.3-1.8,0.1-3.4-1.5-4.6c-0.6-0.5-1.3-0.8-2-1.1c-0.9-0.4-1.8-0.7-2.7-1.1c-0.6-0.3-1.1-0.7-1.2-1.5c0-0.8,0.4-1.5,1.2-1.8
				c0.9-0.4,1.9,0,2.6,0.9c0.3,0.4,0.3,1.1,0.8,1.1c0.5,0,0.9-0.3,1.4-0.5c0.1,0,0.2-0.1,0.3-0.1c0.6-0.1,0.6-0.5,0.4-1
				c-0.6-1.4-1.6-2.4-3.2-2.7c-0.6-0.1-0.9-0.4-0.8-1c0.1-0.7-0.2-0.9-0.9-0.9c-0.7,0-1,0.2-0.9,0.9c0.1,0.6-0.2,0.9-0.8,1.1
				c-2,0.5-3.2,2-3.4,4c-0.2,2,0.7,3.6,2.6,4.5c0.5,0.2,1,0.4,1.6,0.6c0.8,0.3,1.6,0.5,2.4,1c1.2,0.7,1.1,2.5-0.1,3.2
				c-1.2,0.7-2.9,0.2-3.7-0.9c-0.3-0.4-0.1-1.1-0.8-1.2c-0.5,0-1,0.2-1.5,0.3c-0.1,0-0.2,0.1-0.3,0.1c-0.7,0.1-0.7,0.4-0.5,1
				c0.7,1.8,1.9,3,3.8,3.4c0.5,0.1,0.7,0.3,0.7,0.8c0,0.2,0,0.5,0,0.7C75.2,60.4,75.4,60.8,76.2,60.6z"/>
			<path style="fill:#4E4E4E;" d="M76.2,33.8c-1.8,0-3.6,0-5.4,0c-0.5,0-1-0.2-1.4-0.6c-1-1-1.9-2-2.5-3.3c-0.8-1.8,0.1-3.1,2-3.1
				c1.2,0,2.3,0.5,3.4,1c0.7,0.3,1.4,0.6,2,0.9c1.2,0.6,2.4,0.6,3.6,0c1-0.5,2-0.9,3.1-1.4c0.9-0.4,1.8-0.6,2.8-0.6
				c1.5,0.1,2.3,1.2,1.8,2.6c-0.6,1.7-1.8,2.9-3.1,4.1c-0.3,0.2-0.7,0.2-1,0.2C79.8,33.8,78,33.8,76.2,33.8z"/>
			<path style="fill:#4E4E4E;" d="M76.2,34.7c1.7,0,3.5,0,5.2,0c1.1,0,1.6,0.4,1.6,1.2c0,0.8-0.5,1.3-1.6,1.3c-2.9,0-5.8,0-8.6,0
				c-0.7,0-1.3,0-2,0c-0.9-0.1-1.4-0.5-1.3-1.3c0-0.7,0.5-1.2,1.4-1.2C72.6,34.7,74.4,34.7,76.2,34.7z"/>
		</g>
		<path style="fill:#E6E6E5;" d="M76.2,60.6c0.8,0.2,1-0.2,0.9-0.9c0-1.2,0-1.3,1.2-1.6c1.8-0.5,3-1.7,3.3-3.5
			c0.3-1.8,0.1-3.4-1.5-4.6c-0.6-0.5-1.3-0.8-2-1.1c-0.9-0.4-1.8-0.7-2.7-1.1c-0.6-0.3-1.1-0.7-1.2-1.5c0-0.8,0.4-1.5,1.2-1.8
			c0.9-0.4,1.9,0,2.6,0.9c0.3,0.4,0.3,1.1,0.8,1.1c0.5,0,0.9-0.3,1.4-0.5c0.1,0,0.2-0.1,0.3-0.1c0.6-0.1,0.6-0.5,0.4-1
			c-0.6-1.4-1.6-2.4-3.2-2.7c-0.6-0.1-0.9-0.4-0.8-1c0.1-0.7-0.2-0.9-0.9-0.9c-0.7,0-1,0.2-0.9,0.9c0.1,0.6-0.2,0.9-0.8,1.1
			c-2,0.5-3.2,2-3.4,4c-0.2,2,0.7,3.6,2.6,4.5c0.5,0.2,1,0.4,1.6,0.6c0.8,0.3,1.6,0.5,2.4,1c1.2,0.7,1.1,2.5-0.1,3.2
			c-1.2,0.7-2.9,0.2-3.7-0.9c-0.3-0.4-0.1-1.1-0.8-1.2c-0.5,0-1,0.2-1.5,0.3c-0.1,0-0.2,0.1-0.3,0.1c-0.7,0.1-0.7,0.4-0.5,1
			c0.7,1.8,1.9,3,3.8,3.4c0.5,0.1,0.7,0.3,0.7,0.8c0,0.2,0,0.5,0,0.7C75.2,60.4,75.4,60.8,76.2,60.6z"/>
	</g>
	<g>
		<defs>
			<path id="SVGID_1_" d="M0,37.1c0-2.9,0-5.9,0-8.8c0-2.5,0.8-3.3,3.3-3.4C23.2,23.4,42.2,18.7,60,9.5c5-2.6,9.9-5.5,14.5-8.8
				c1.6-1.1,2.9-1,4.4,0.1c15.4,10.8,32.2,18.1,50.7,21.7c6.5,1.3,13.1,2.1,19.7,2.3c2.3,0.1,3.1,0.8,3.1,3
				c-0.2,23.1-3.5,45.7-12.1,67.3c-6.2,15.8-15.1,30-26.7,42.5c-10.4,11.2-22.4,20.3-35.5,27.9c-1.2,0.7-2.3,0.8-3.6,0.2
				C60.3,159,47.2,150.4,36.1,139c-14-14.3-23.5-31.3-29.2-50.4c-3.4-11.4-5.4-23-6.3-34.8C0.2,48.3-0.1,42.7,0,37.1z"/>
		</defs>
		<clipPath id="SVGID_2_">
			<use xlink:href="#SVGID_1_"  style="overflow:visible;"/>
		</clipPath>
		<path style="clip-path:url(#SVGID_2_);fill:#4E4E4E;" d="M57.6,122.7c1.2,0.1,2.5,0.2,3.7,0.3c4.4,0.3,8.7,1.2,13,1.5
			c5.8,0.5,11.6,0.1,17.1-2.1c3.5-1.4,5.5-4,5.6-7.9c0-1,0.5-1.6,1.3-2c2.2-1.3,4.4-2.5,6.7-3.6c3.2-1.6,6.5-3.1,9.7-4.7
			c1.3-0.6,2.7-1.2,4.1-1.4c2.4-0.4,4.2,1.5,3.5,3.9c-0.6,1.8-1.7,3.3-3.1,4.5c-2.8,2.3-5.6,4.6-8.4,7c-4.8,4.1-10.2,7.2-16.2,9.2
			c-5,1.7-9.9,3.9-15.1,5.2c-3.7,1-7.6,1.4-11.4,1.4c-5.1,0.1-10.2,0.1-15.3,0c-2.5,0-4.7,0.7-6.7,2.1c-4.8,3.3-9.4,6.9-13.7,10.9
			c-0.7,0.7-1.1,0.6-1.7-0.1c-5.5-6.6-11-13.1-16.6-19.7c-0.6-0.7-0.4-1.1,0.3-1.5c4.5-2.9,9-5.8,13.2-9.1c2-1.6,3.7-3.3,5.3-5.3
			c3.9-4.8,8.9-7.1,15-7.3c6.6-0.2,12.6,1.8,18.6,4.1c2.5,1,4.9,2.2,7.7,2.4c2.3,0.1,4.6,0.2,7,0.3c3.4,0.2,6.7,0.2,10,0.9
			c3.7,0.9,4.9,3.8,2.7,7c-0.7,1-1.6,1.7-2.7,2.2c-2.1,1-4.5,1.5-6.8,2c-4.9,1.1-9.8,0.4-14.6,0.1c-3.7-0.3-7.4-0.6-11.1-0.5
			c-0.4,0-0.9,0.1-1.3,0.2C57.6,122.6,57.6,122.6,57.6,122.7z"/>
	</g>
</g>
</svg>
