<svg id="Layer_1" data-name="Layer 1" xmlns="http://www.w3.org/2000/svg" viewBox="0 0 155.89 155.89"><title>phone-stolen</title><circle cx="77.94" cy="77.94" r="77.94" style="fill:#fb8c00"/><path d="M3118.55,2427.47a4.84,4.84,0,0,0-6.54,2c-0.61,1.06-1.17,2.15-2,3.66a18,18,0,0,1-.57-1.76c-0.55-2.95-1.09-5.9-1.6-8.85s-2-5.17-5-6-5.19.24-7.26,2.32c-7,7.08-14,14.22-21.29,21.06a27.35,27.35,0,0,0-9,18.2c-0.42,4.67-1.55,9.28-2.39,14.08-6.27-.86-12.29-1.7-18.31-2.52-3.28-.45-6.25,1.12-6.72,3.51-0.6,3.06,1,5.35,4.65,6.32a46.42,46.42,0,0,0,5.83,1c6.74,0.89,13.47,1.86,20.23,2.53,3.29,0.33,5.74-1.63,6.79-4.8,0.37-1.12.58-2.3,0.85-3.45l3.4-14.27c2.66,2.8,4.85,5.28,7.24,7.55a19.23,19.23,0,0,1,6.41,12c0.82,6.57,2.27,13.05,3.51,19.91h-0.14c0,0.1.08,0.2,0.11,0.3a36.8,36.8,0,0,1,3.25,2.84c0.16,0.16.31,0.32,0.45,0.49h1.26c4,0,6.2-2.55,5.66-6.46-1.2-8.68-2.37-17.37-3.81-26a15.13,15.13,0,0,0-2.61-6c-2.78-3.94-5.91-7.63-8.79-11.51a2.48,2.48,0,0,1-.18-2.3c3-3.18,6.06-6.22,9.49-9.66,0.54,2.71,1,5,1.46,7.28a4.38,4.38,0,0,0,4,3.82,4.45,4.45,0,0,0,5-2.43c2.87-5.56,5.74-11.12,8.49-16.74A4.52,4.52,0,0,0,3118.55,2427.47Z" transform="translate(-2992.49 -2364.97)" style="fill:#4d4d4d"/><circle cx="109.5" cy="133.43" r="5.43" style="fill:#4d4d4d"/><path d="M3093.93,2407.19a28.44,28.44,0,0,0-8-3.23c-8.11-1.53-16.27-2.8-24.43-4.11-1.29.11-2.57,0.16-3.89,0.16l-0.41,0c-3.63.19-7.28,0.23-10.89,0.63-13.45,1.51-25.81,5.66-35.27,15.93-12.13,13.17-6.58,32.83,10.56,36.34a49.19,49.19,0,0,0,17.93-.1c17.19-3,31.29-12.37,44.08-23.68a90.57,90.57,0,0,0,12.44-14.16C3098.56,2411.57,3097.64,2409.2,3093.93,2407.19Z" transform="translate(-2992.49 -2364.97)" style="fill:#e6e6e6"/><path d="M3101.58,2407a9.67,9.67,0,1,1,19.34.28,9.67,9.67,0,0,1-9.66,9.65A9.79,9.79,0,0,1,3101.58,2407Z" transform="translate(-2992.49 -2364.97)" style="fill:#4d4d4d"/><g id="q8WQW7"><path d="M3037.1,2412.48l23.1-6.76a3.28,3.28,0,0,1,3.94,1.66,4,4,0,0,1,.29.74l6.69,22.83a3.34,3.34,0,0,1-1.62,4,4,4,0,0,1-.77.31l-46,13.47a3.37,3.37,0,0,1-4.35-2.39l-6.69-22.83a3.36,3.36,0,0,1,1.72-4.1,3.58,3.58,0,0,1,.65-0.22Zm10.63,27.29,16.69-4.89a2.91,2.91,0,0,0,.52-0.18,1.91,1.91,0,0,0,1-2.34l-3.1-10.58-3.52-12a2,2,0,0,0-1.14-1.33,2.26,2.26,0,0,0-1.59,0l-33.23,9.73-0.24.07a2,2,0,0,0-1.34,2.55l6.6,22.54a2.16,2.16,0,0,0,.14.39,1.93,1.93,0,0,0,2.37,1Zm-28.34-9.31a3.09,3.09,0,0,0-2.14,3.85,3.13,3.13,0,0,0,3.92,2.13A3.12,3.12,0,0,0,3019.39,2430.46Z" transform="translate(-2992.49 -2364.97)" style="fill:#4d4d4d"/><path d="M3047.73,2439.77l16.69-4.89a2.91,2.91,0,0,0,.52-0.18,1.91,1.91,0,0,0,1-2.34l-3.1-10.58-3.52-12a2,2,0,0,0-1.14-1.33,2.26,2.26,0,0,0-1.59,0l-33.23,9.73-0.24.07a2,2,0,0,0-1.34,2.55l6.6,22.54a2.16,2.16,0,0,0,.14.39,1.93,1.93,0,0,0,2.37,1Z" transform="translate(-2992.49 -2364.97)" style="fill:#e6e6e6"/></g></svg>