<svg id="Layer_1" data-name="Layer 1" xmlns="http://www.w3.org/2000/svg" viewBox="0 0 155.89 155.89"><title>preexisting-conditions</title><circle cx="77.94" cy="77.94" r="77.94" style="fill:#fb8c00"/><path d="M2973.33,901.25a0.65,0.65,0,0,1-.48-0.2l-6.26-6.19a0.65,0.65,0,0,1-.21-0.48,0.66,0.66,0,0,1,.2-0.47l1.83-1.85a3.43,3.43,0,0,1,1.52-.92,3,3,0,0,1,1.68,0,3.55,3.55,0,0,1,1.54.92,3.36,3.36,0,0,1,.91,1.49,3,3,0,0,1,0,1.66,3.54,3.54,0,0,1-.91,1.52l-1.35,1.37,2,2a0.66,0.66,0,0,1,.21.47A0.7,0.7,0,0,1,2973.33,901.25Zm-1.09-5.41a2,2,0,0,0,.62-1.43,2,2,0,0,0-.63-1.43,2.11,2.11,0,0,0-1.48-.66,1.93,1.93,0,0,0-1.45.62l-1.35,1.37,2.94,2.91Z" transform="translate(-2939.11 -863.33)" style="fill:#e6e6e6;stroke:#e6e6e6;stroke-miterlimit:10"/><path d="M2984.89,890.8a0.59,0.59,0,0,1,.12.46,0.64,0.64,0,0,1-.28.42,0.66,0.66,0,0,1-.66.09l-3.93-1.55-0.19.14-1.34,1,1.93,2.6a0.66,0.66,0,0,1,.13.5,0.64,0.64,0,0,1-.27.45,0.66,0.66,0,0,1-.95-0.14l-5.25-7.07a0.64,0.64,0,0,1-.13-0.51,0.66,0.66,0,0,1,.27-0.44l1.88-1.39a3.61,3.61,0,0,1,1.62-.7,2.91,2.91,0,0,1,1.62.2,3.26,3.26,0,0,1,1.33,1.08,2.9,2.9,0,0,1,.22,3.22l3.5,1.38A0.81,0.81,0,0,1,2984.89,890.8Zm-5.69-1.44a2.14,2.14,0,0,0,.87-1.27,1.64,1.64,0,0,0-.31-1.38,1.85,1.85,0,0,0-1.3-.79,2,2,0,0,0-1.49.43l-1.34,1,2.23,3Z" transform="translate(-2939.11 -863.33)" style="fill:#e6e6e6;stroke:#e6e6e6;stroke-miterlimit:10"/><path d="M2987.41,889.8a0.65,0.65,0,0,1-.39-0.34l-4-7.83a0.65,0.65,0,0,1,0-.52,0.66,0.66,0,0,1,.34-0.39l5.22-2.69A0.67,0.67,0,0,1,2989,878a0.62,0.62,0,0,1,.37.33,0.58,0.58,0,0,1,0,.48,0.68,0.68,0,0,1-.35.37l-4.62,2.38,1.45,2.81,3.32-1.71a0.67,0.67,0,0,1,.5-0.06,0.58,0.58,0,0,1,.37.31,0.59,0.59,0,0,1,0,.48,0.67,0.67,0,0,1-.34.37l-3.32,1.71,1.49,2.89,4.62-2.38a0.68,0.68,0,0,1,.51-0.07,0.57,0.57,0,0,1,.36.31,0.61,0.61,0,0,1,0,.49,0.65,0.65,0,0,1-.35.38l-5.23,2.69A0.65,0.65,0,0,1,2987.41,889.8Z" transform="translate(-2939.11 -863.33)" style="fill:#e6e6e6;stroke:#e6e6e6;stroke-miterlimit:10"/><path d="M3001.16,884a0.65,0.65,0,0,1-.3-0.43l-1.92-8.59a0.65,0.65,0,0,1,.08-0.52,0.66,0.66,0,0,1,.43-0.29l5.73-1.28a0.66,0.66,0,0,1,.51.07,0.61,0.61,0,0,1,.28.41,0.57,0.57,0,0,1-.08.47,0.67,0.67,0,0,1-.43.27l-5.08,1.13,0.69,3.08,3.64-.81a0.67,0.67,0,0,1,.5.07,0.63,0.63,0,0,1,.2.88,0.67,0.67,0,0,1-.43.27l-3.64.81,0.71,3.17,5.08-1.13a0.68,0.68,0,0,1,.51.06,0.58,0.58,0,0,1,.27.39,0.62,0.62,0,0,1-.08.49,0.66,0.66,0,0,1-.43.28l-5.73,1.28A0.65,0.65,0,0,1,3001.16,884Z" transform="translate(-2939.11 -863.33)" style="fill:#e6e6e6;stroke:#e6e6e6;stroke-miterlimit:10"/><path d="M3018,880.89a0.78,0.78,0,0,1,.16.44,0.68,0.68,0,0,1-.15.46,0.57,0.57,0,0,1-.44.22,0.63,0.63,0,0,1-.53-0.22l-3-3.77-2.8,4.1a0.63,0.63,0,0,1-.46.22,0.57,0.57,0,0,1-.46-0.16,0.64,0.64,0,0,1-.18-0.43,0.75,0.75,0,0,1,.13-0.47l2.83-4.17-3-3.82a0.64,0.64,0,0,1-.15-0.4,0.69,0.69,0,0,1,.15-0.47,0.58,0.58,0,0,1,.45-0.22,0.56,0.56,0,0,1,.49.17l3,3.74,2.72-4a0.63,0.63,0,0,1,.47-0.22,0.55,0.55,0,0,1,.44.16,0.64,0.64,0,0,1,.18.43,0.81,0.81,0,0,1-.12.45l-2.77,4.09Z" transform="translate(-2939.11 -863.33)" style="fill:#e6e6e6;stroke:#e6e6e6;stroke-miterlimit:10"/><path d="M3021.33,882.06a0.65,0.65,0,0,1-.15-0.5l0.71-8.77a0.65,0.65,0,0,1,.23-0.47,0.67,0.67,0,0,1,.5-0.15,0.64,0.64,0,0,1,.62.73l-0.71,8.77a0.66,0.66,0,0,1-.23.46,0.65,0.65,0,0,1-.5.16A0.66,0.66,0,0,1,3021.33,882.06Z" transform="translate(-2939.11 -863.33)" style="fill:#e6e6e6;stroke:#e6e6e6;stroke-miterlimit:10"/><path d="M3027.05,882.47a3.09,3.09,0,0,1-1.09-1.76,0.71,0.71,0,0,1,0-.27,0.48,0.48,0,0,1,.21-0.31,0.72,0.72,0,0,1,.42-0.12h0.13a0.72,0.72,0,0,1,.36.2,0.76,0.76,0,0,1,.21.38,1.92,1.92,0,0,0,.73,1,3.33,3.33,0,0,0,1.42.66,2.93,2.93,0,0,0,1.71-.1,1.4,1.4,0,0,0,.91-1.06,1.66,1.66,0,0,0-.3-1.36,3,3,0,0,0-1.57-1,4.48,4.48,0,0,1-2.29-1.44,2.48,2.48,0,0,1-.5-2.12,2.26,2.26,0,0,1,.76-1.31,3,3,0,0,1,1.46-.64,5.12,5.12,0,0,1,1.88.07,3.64,3.64,0,0,1,1.75.83,3.87,3.87,0,0,1,1,1.54,0.89,0.89,0,0,1,.06.49,0.55,0.55,0,0,1-.35.4,0.62,0.62,0,0,1-.35,0,0.72,0.72,0,0,1-.34-0.17,0.68,0.68,0,0,1-.2-0.31,2.48,2.48,0,0,0-.68-1.05,2.63,2.63,0,0,0-1.24-.57,3,3,0,0,0-1.64,0,1.23,1.23,0,0,0-.83,1,1.42,1.42,0,0,0,.3,1.22,3.75,3.75,0,0,0,1.79,1,4.07,4.07,0,0,1,2.17,1.42,2.68,2.68,0,0,1,.41,2.21,2.59,2.59,0,0,1-.83,1.47,3.05,3.05,0,0,1-1.52.7,4.87,4.87,0,0,1-1.83,0A4.67,4.67,0,0,1,3027.05,882.47Z" transform="translate(-2939.11 -863.33)" style="fill:#e6e6e6;stroke:#e6e6e6;stroke-miterlimit:10"/><path d="M3045.18,878a0.6,0.6,0,0,1,0,.48,0.6,0.6,0,0,1-.81.36l-2.61-1-2.93,7.69a0.66,0.66,0,0,1-.87.39,0.67,0.67,0,0,1-.39-0.87l2.93-7.69-2.62-1a0.6,0.6,0,0,1-.36-0.8,0.6,0.6,0,0,1,.81-0.36l6.5,2.47A0.6,0.6,0,0,1,3045.18,878Z" transform="translate(-2939.11 -863.33)" style="fill:#e6e6e6;stroke:#e6e6e6;stroke-miterlimit:10"/><path d="M3044.23,888.54a0.65,0.65,0,0,1,.05-0.52l4.13-7.77a0.65,0.65,0,0,1,.4-0.34,0.67,0.67,0,0,1,.79,1l-4.13,7.77a0.67,0.67,0,0,1-.39.34A0.7,0.7,0,0,1,3044.23,888.54Z" transform="translate(-2939.11 -863.33)" style="fill:#e6e6e6;stroke:#e6e6e6;stroke-miterlimit:10"/><path d="M3048.57,890.9a0.66,0.66,0,0,1,.14-0.5l5.19-7.11a0.65,0.65,0,0,1,1.12.07,0.75,0.75,0,0,1,.08.28l0.13,9.43,4.19-5.74a0.65,0.65,0,0,1,.45-0.28,0.67,0.67,0,0,1,.5.13,0.65,0.65,0,0,1,.27.43,0.67,0.67,0,0,1-.14.5l-5.19,7.11a0.66,0.66,0,0,1-.44.28,0.65,0.65,0,0,1-.49-0.13,0.81,0.81,0,0,1-.2-0.22,0.46,0.46,0,0,1-.08-0.28l-0.13-9.43-4.19,5.73a0.66,0.66,0,0,1-.44.28A0.7,0.7,0,0,1,3048.57,890.9Z" transform="translate(-2939.11 -863.33)" style="fill:#e6e6e6;stroke:#e6e6e6;stroke-miterlimit:10"/><path d="M3066.48,900.28a0.66,0.66,0,0,1-.23.47l-2.26,2.13a0.59,0.59,0,0,1-.49.18,5,5,0,0,1-4.25-3.86,5,5,0,0,1,.13-2.61,5.54,5.54,0,0,1,3.82-3.61,5,5,0,0,1,2.62,0,4.82,4.82,0,0,1,2.25,1.37,5.07,5.07,0,0,1,1,1.42,5.16,5.16,0,0,1,.38,1.65,0.61,0.61,0,0,1,0,.32,0.75,0.75,0,0,1-.18.24,0.55,0.55,0,0,1-.44.16,0.64,0.64,0,0,1-.43-0.21,0.69,0.69,0,0,1-.18-0.44,3.77,3.77,0,0,0-.24-1.21,3.62,3.62,0,0,0-.75-1.09,3.45,3.45,0,0,0-1.67-1,3.85,3.85,0,0,0-2,0,4.24,4.24,0,0,0-2.91,2.74,3.87,3.87,0,0,0-.12,2,3.43,3.43,0,0,0,.89,1.72,3.78,3.78,0,0,0,1.91,1.08l1.68-1.59-1.23-1.3a0.7,0.7,0,0,1-.21-0.47,0.55,0.55,0,0,1,.18-0.43,0.55,0.55,0,0,1,.44-0.16,0.7,0.7,0,0,1,.46.24l1.67,1.77A0.64,0.64,0,0,1,3066.48,900.28Z" transform="translate(-2939.11 -863.33)" style="fill:#e6e6e6;stroke:#e6e6e6;stroke-miterlimit:10"/><path d="M3074.93,912.35a2.2,2.2,0,0,0,2.2-2.19h-0.75a1.45,1.45,0,0,1-1.45,1.45h-7.72v-3H3065v3h-5.61a0.84,0.84,0,0,0-1.68,0h-0.5a1.45,1.45,0,0,1-1.45-1.45H3055a2.2,2.2,0,0,0,2.19,2.19h0.35c0,0.1,0,.19,0,0.3a3.91,3.91,0,0,0,0,.4h-1.32a1.68,1.68,0,0,0-1.68,1.68v8.08a1.68,1.68,0,0,0,1.68,1.68h0.5v1a9.13,9.13,0,0,1,1.28,0v-1h1.09v1h1.28v-1h0.47a1.68,1.68,0,0,0,1.68-1.68v-8.08a1.68,1.68,0,0,0-1.68-1.68h-1.32a3.68,3.68,0,0,0,0-.4c0-.1,0-0.2,0-0.3H3065v65h-1.34a5.66,5.66,0,0,0-5.25,3.58,2.17,2.17,0,1,0,2.21.58,3.38,3.38,0,0,1,3-1.91h5.06a3.39,3.39,0,0,1,3,1.91,2.17,2.17,0,1,0,2.21-.58,5.65,5.65,0,0,0-5.25-3.58h-1.47v-65h7.72Zm-16.64,0h0.46a3,3,0,0,1,0,.3,2.88,2.88,0,0,1,0,.4h-0.45a2.88,2.88,0,0,1,0-.4A2.83,2.83,0,0,1,3058.29,912.35Zm2,6.73a1.77,1.77,0,1,1-3.53,0c0-1,1.76-3.74,1.76-3.74S3060.26,918.11,3060.26,919.08Z" transform="translate(-2939.11 -863.33)" style="fill:#e6e6e6"/><path d="M3055.24,963.74a3.77,3.77,0,0,0-3.54-3.76,3.13,3.13,0,0,0-.9-6.07c0.72-3.95-.32-10.67-14.9-12.27l-4.87-.54c-1.09,0-2.15-.32-3.26-0.35l-0.2,0-12.64-1.39v0.91c-8.38,1.6-12.58-2.29-12.81-2.5a2.86,2.86,0,0,0-4.07,4c0.22,0.23,4.62,4.6,13,4.6a25.88,25.88,0,0,0,3.89-.31v1.29a26.58,26.58,0,0,1-3.91.31c-8.46,0-13-4.32-13.44-4.81a3.93,3.93,0,0,1-.93-1.56c0-.05,0-0.11,0-0.17a3.66,3.66,0,0,1-.11-0.5s0-.08,0-0.13,0-.15,0-0.22,0-.16,0-0.24,0-.09,0-0.14,0-.26,0-0.38a4,4,0,0,1,.07-0.4l0.07-.22a3.94,3.94,0,0,1,6.55-1.62c0.09,0.09,2.62,2.47,7.8,2.47h0.39a70.32,70.32,0,0,1-9.24-4.09c-2.15-1.39-4.81-.43-6.38,1a5,5,0,0,0-.89,1,9.26,9.26,0,0,0-.62,1.28v0a5,5,0,0,0,1.68,6.25s10.25,7.06,16.71,7.28c0.79,0,1.54,0,2.29,0v1.29h-5.54L2988.95,943a1.27,1.27,0,0,0,.15-2.32l-7-3.65a1.28,1.28,0,0,0-1.72.54,1.26,1.26,0,0,0-.11.79l-0.91-.49a3.14,3.14,0,0,0-2.82,5.62l28.06,15h-20.46a1.89,1.89,0,0,0-1.89,1.89v1a1.89,1.89,0,0,0,1.89,1.89h6.63a3.73,3.73,0,0,0,0,.42v16.11a2.83,2.83,0,1,0,3.77.21v-3.54h57v3.31a2.83,2.83,0,1,0,3.77.27V963.74ZM3051.46,974h-57V963.74h57V974Z" transform="translate(-2939.11 -863.33)" style="fill:#4d4d4d"/><circle cx="50.56" cy="70.05" r="6.25" style="fill:#4d4d4d"/><rect x="17.74" y="100.41" width="23" height="21.15" rx="2.84" ry="2.84" style="fill:#4d4d4d"/><rect x="20.65" y="102.3" width="17.42" height="5.42" style="fill:#e6e6e6"/><circle cx="22.68" cy="117.56" r="1.53" style="fill:#e6e6e6"/><circle cx="27.03" cy="117.56" r="1.53" style="fill:#e6e6e6"/><circle cx="31.38" cy="117.56" r="1.53" style="fill:#e6e6e6"/><line x1="21.53" y1="110.07" x2="36.99" y2="110.07" style="fill:none;stroke:#e6e6e6;stroke-miterlimit:10"/><line x1="21.53" y1="112.45" x2="36.99" y2="112.45" style="fill:none;stroke:#e6e6e6;stroke-miterlimit:10"/><rect x="44.13" y="103.39" width="3.13" height="16.28" style="fill:#4d4d4d"/><rect x="2983.24" y="979.88" width="3.13" height="5.53" transform="translate(1028.33 -2865.49) rotate(90)" style="fill:#4d4d4d"/><line x1="45.14" y1="107.23" x2="39.78" y2="107.23" style="fill:none;stroke:#4d4d4d;stroke-miterlimit:10;stroke-width:1.6180400000000001px"/><line x1="45.14" y1="115.83" x2="39.78" y2="115.83" style="fill:none;stroke:#4d4d4d;stroke-miterlimit:10;stroke-width:1.6180400000000001px"/><rect x="2983.24" y="963.95" width="3.13" height="5.53" transform="translate(1012.41 -2881.42) rotate(90)" style="fill:#4d4d4d"/><path d="M3004.89,937.87s3.6-.21,2.31,2.23-1.46-1.33.69,0.86,0,3.77,0,3.77-0.64.26-.64-0.34,2.66,0.3,2.19,2.27a2.24,2.24,0,0,1-2,2s-1.24.17-1.16-.43,2.27-.09,1.76,2-1.2,1.89-1.2,1.89a0.7,0.7,0,0,1-1-.34c-0.47-.69,1-0.43,1.2.9s-0.73,3.52-2.49,3.13,0-1.29.26-.56-0.73,3.82-1.67,4.33-1.63-.64-1.16-0.69,1.37,1.33.34,2.83-1.93,1.29-1.93,1.29-1-.17-0.64-0.77,1.2,0.6.9,1.33-1,2.87-2.91,2.4-1.11-1.46-.81-1.11a1.86,1.86,0,0,1-1.67,2.23s-2.44.77-2.61-.73c0,0-.17-0.64.3-0.47s0.3,1.84-1.16,2.49-3.26,1.07-3-.3,0.64-.13.64-0.13a1.14,1.14,0,0,1-.81,1.54,3.3,3.3,0,0,1-3.82-3.9s0.39-1.37,1.2-.77" transform="translate(-2939.11 -863.33)" style="fill:none;stroke:#e6e6e6;stroke-linecap:round;stroke-linejoin:round;stroke-width:0.5px"/><path d="M3059.67,925s3.64,33.22-21.47,33.92c0,0-14.65.93-21.62-18.36" transform="translate(-2939.11 -863.33)" style="fill:none;stroke:#e6e6e6;stroke-linecap:round;stroke-linejoin:round;stroke-width:0.5px"/></svg>