<svg id="Layer_1" data-name="Layer 1" xmlns="http://www.w3.org/2000/svg" viewBox="0 0 155.89 155.89"><title>pregnancy</title><circle cx="77.94" cy="77.94" r="77.94" style="fill:#fb8c00"/><path d="M460.86,792.64V789.7c0-.11,0-0.22.06-0.33A18.5,18.5,0,0,1,466,778a18.76,18.76,0,0,1,17.56-5.81,19.19,19.19,0,0,1,15.29,14.51c0.23,1,.35,2,0.48,3v2.93c-0.07.5-.13,1-0.21,1.49A19.31,19.31,0,0,1,484.23,810c-0.87.19-1.75,0.28-2.63,0.42h-3l-1.19-.16a19.3,19.3,0,0,1-16.14-15C461.08,794.37,461,793.5,460.86,792.64Zm13.19-1.37a0.31,0.31,0,0,0,.28-0.14,8.2,8.2,0,0,0,2.36-5.19,2.2,2.2,0,0,0-1.31-2.39c-0.36-.17-0.71-0.37-1.07-0.55a10.63,10.63,0,0,1-1.5-.86,3.56,3.56,0,0,1-1.48-2.18,2.37,2.37,0,0,1,2.66-3,5.37,5.37,0,0,1,2.33.87,13.41,13.41,0,0,0,1.65,1,3.86,3.86,0,0,0,1.55.41,1,1,0,0,0,1.09-1.15,2.88,2.88,0,0,0-.76-1.64,12.16,12.16,0,0,1-1.26-1.68c-0.33-.6-0.33-0.6-1-0.49l-0.15,0A17,17,0,1,0,497,788.71a17.07,17.07,0,0,0-16-14.61,0.56,0.56,0,0,0-.63.79,2.48,2.48,0,0,0,.56.92,5.52,5.52,0,0,1,.88,1.35,2.27,2.27,0,0,1,.2,1.17,2.71,2.71,0,0,1-2,2.2,3.71,3.71,0,0,1-2.69-.41l-2.52-1.35a3.79,3.79,0,0,0-1-.38,1,1,0,0,0-1.06.33,1,1,0,0,0-.1,1.06,2.18,2.18,0,0,0,.46.68,5.54,5.54,0,0,0,1.21.88l2.12,1.22a3.22,3.22,0,0,1,1.62,3.17,9.49,9.49,0,0,1-2.7,6.08c-0.27.29-.27,0.35,0.11,0.45a10,10,0,0,0,2.85.42c0.62,0,.64,0,0.53-0.62a0.74,0.74,0,0,1,0-.15,9.45,9.45,0,0,1,2.2-6,1.65,1.65,0,0,1,1.87-.56,2.09,2.09,0,0,1,1.44,1.55,3.23,3.23,0,0,1-.18,1.73c-0.28.94-.66,1.84-0.95,2.77a1.94,1.94,0,0,0,.48,2c0.38,0.42.8,0.79,1.22,1.17a3.12,3.12,0,0,1,1,1.32,3.72,3.72,0,0,1-.81,3.91,6.1,6.1,0,0,1-2.65,1.58,13.24,13.24,0,0,1-6.16.42,11.85,11.85,0,0,1-5.19-2,7.11,7.11,0,0,1-3-6.81,15.56,15.56,0,0,1,.82-3.39c0.39-1.27.19-1.64-1.06-2.08a13.28,13.28,0,0,1-1.35-.45,1.32,1.32,0,0,1-.85-1.07,1.94,1.94,0,0,1,1.94-2.36,8.4,8.4,0,0,1,2.38.3,13.74,13.74,0,0,1,3,.92,3.08,3.08,0,0,1,1.75,2.54,5.83,5.83,0,0,1-.22,2.19C474.37,790.21,474.21,790.72,474.05,791.26Z" transform="translate(-400.81 -716.22)" style="fill:#e6e6e6"/><path d="M495.61,792.47c0.08,3.26-2.83,4.87-5.12,4.93a5.19,5.19,0,0,1-5.19-5.11c-0.06-2.66,2.6-5.15,5.44-5.16A5.09,5.09,0,0,1,495.61,792.47Z" transform="translate(-400.81 -716.22)" style="fill:#e6e6e6"/><path d="M469.18,859.34c-3.26-1.27-4.58-3.69-4.52-7.13,0.09-5.52,0-11,0-16.56,0-1.51,0-1.52-1.55-1.52-2.12,0-4.25,0-6.37,0-0.95,0-1.21-.34-1.13-1.27,0.36-4.3.63-8.6,1-12.9,0.32-3.77.7-7.53,1.09-11.29,0.45-4.29,1-8.57,1.7-12.82,0.77-4.57,1.46-9.15,3.09-13.52a26.38,26.38,0,0,1,2.85-4.95,5.78,5.78,0,0,0,1-2.33,2,2,0,0,0-.81-2.05c-1.21-.86-1.81-0.71-2.38.62a51.19,51.19,0,0,0-4,15.88,6.81,6.81,0,0,1-9.7,5.69,5.29,5.29,0,0,1-2.69-5.34,77.05,77.05,0,0,1,6.63-24.46,52.57,52.57,0,0,1,4.37-7.76,11.62,11.62,0,0,1,5.52-4,20.54,20.54,0,0,1,7.75-1.6c3.79,0.06,7.57-.4,11.35-0.15s7.44-.18,11.1.63a35.85,35.85,0,0,1,4.21,1.08c2.45,0.86,4,2.7,5.28,4.83a72.48,72.48,0,0,1,9.79,27c0.2,1.33.3,2.67,0.51,4,0.73,4.72-3.25,7-6.83,6.19-3.42-.75-5-2.8-5.45-6.28a58.31,58.31,0,0,0-4.06-15.87,1.37,1.37,0,0,0-1.9-1c-1,.29-2.15.29-2.49,1.5s0.38,2,1.09,2.72a13,13,0,0,0,1.2,1.19,12.65,12.65,0,0,1,3.72,6.06c2.22,6.76,3.06,13.77,3.9,20.8,0.71,5.87,1,11.76,1.5,17.64,0.29,3.49.34,7,.52,10.49a1,1,0,0,1-1.2,1.16c-2.19,0-4.39,0-6.58,0a1.09,1.09,0,0,0-1.35,1.33c0,5.59-.05,11.18,0,16.77,0.06,3.45-1.26,5.86-4.53,7.12h-3.19a7,7,0,0,1-3.06-2,8.46,8.46,0,0,1-1.81-5.42c0-5.44,0-10.88,0-16.33,0-1.45,0-1.45-1.49-1.46h-2.44c-1.6,0-1.6,0-1.6,1.56,0,5.37,0,10.74,0,16.11,0,3.49-1.32,6.26-4.86,7.54h-3.19Zm27.18-68.14A16.24,16.24,0,0,0,480,774.7,16.42,16.42,0,1,0,496.36,791.2Z" transform="translate(-400.81 -716.22)" style="fill:#4d4d4d"/><path d="M482.56,726.41a14.07,14.07,0,0,1,7,4.56,11.83,11.83,0,0,1-17.89,15.37,10.93,10.93,0,0,1-3.43-8.9c0.36-5.67,3.5-9.11,8.76-10.83,0.17-.05.32-0.14,0.49-0.2h5.1Z" transform="translate(-400.81 -716.22)" style="fill:#4d4d4d"/></svg>