<svg id="Layer_1" data-name="Layer 1" xmlns="http://www.w3.org/2000/svg" viewBox="0 0 156.11 156.36"><title>self-inflicted-injury</title><circle cx="78.16" cy="78.13" r="77.94" style="fill:#fb8c00"/><circle cx="78.16" cy="77.94" r="77.94" style="fill:#fb8c00"/><circle cx="77.94" cy="78.41" r="77.94" style="fill:#fb8c00"/><g id="eaoor8"><path d="M617.88,761.38c1,0.77.54-3.83,0.5-2.62-0.14,4,6.29,3.66,9.38,5.2,7.42,3.69,14.37,3.95,21.43-.67a38.07,38.07,0,0,1,5.86-2.59,10.48,10.48,0,0,1,9.29.16c6.09,3.06,12.17,6.14,18.29,9.14a7.23,7.23,0,0,1,4.27,5.43c1.21,6.43,2.39,12.87,3.73,19.28,0.51,2.43-.46,3.53-2.68,3.93a28.22,28.22,0,0,0-3.55.62c-2.61.83-3.73-.37-4.17-2.76q-1.27-6.9-2.58-13.78a10.2,10.2,0,0,0-7.9-7.39c-2.27-.27-2.18,1.67-2.62,2.87-4.91,13.43-9.48,27-14.67,40.31-3.68,9.44-2.89,19.18-3.15,28.86-0.25,9.43-.21,9.51-9.77,8.61-2-.19-2.89-0.93-2.87-2.94,0.08-9.23-.46-18.5.38-27.66,0.48-5.31,3.15-10.43,5.15-16.62-5.85,4-11.12,7.41-16.22,11.09-0.94.68-1.28,2.28-1.73,3.52-2.46,6.78-5,13.56-7.27,20.39-0.91,2.7-2.15,3.64-5,2.51-10.11-4-8.7-1.68-5.5-11.37,2.14-6.47,4.67-12.81,6.85-19.26a11.9,11.9,0,0,1,5.09-6.43c6.17-4,12.22-8.18,18.39-12.19a9.41,9.41,0,0,0,4.12-5.16c1.67-5,3.59-10,5.4-15l-0.54-1c-6.93,5.55-12.83.64-19-1.36-2.41-.79-5.19-4.21-6.2-0.78" transform="translate(-572.18 -716.03)" style="fill:#4d4d4d"/><path d="M648,746.23a11.82,11.82,0,0,1,11.53-11.89,12.07,12.07,0,0,1,11.93,11.61c0.12,6.14-5.47,11.87-11.64,11.93A11.86,11.86,0,0,1,648,746.23Z" transform="translate(-572.18 -716.03)" style="fill:#4d4d4d"/></g><polygon points="97.12 70.06 97.46 58.51 100.44 59.94 100.51 70.17 97.12 70.06" style="fill:#4d4d4d"/><polygon points="97.57 59.28 101.24 49.38 103.94 50.73 100.75 60.45 97.57 59.28" style="fill:#e6e6e6"/><circle cx="95.73" cy="11.71" r="1.06" style="fill:#e6e6e6"/><circle cx="83.05" cy="16.76" r="1.06" style="fill:#e6e6e6"/><circle cx="76.84" cy="8.9" r="1.06" style="fill:#e6e6e6"/><circle cx="89.57" cy="9.97" r="1.06" style="fill:#e6e6e6"/><circle cx="87.65" cy="13.71" r="1.86" style="fill:#e6e6e6"/><circle cx="92.59" cy="15.15" r="1.06" style="fill:#e6e6e6"/><circle cx="88.51" cy="3.38" r="1.06" style="fill:#e6e6e6"/><circle cx="83.55" cy="5.8" r="1.06" style="fill:#e6e6e6"/><circle cx="97.57" cy="18.3" r="1.84" style="fill:#e6e6e6"/><circle cx="644.47" cy="736.42" r="1.06" transform="translate(-904.76 -34.6) rotate(-45.59)" style="fill:#e6e6e6"/><circle cx="672.93" cy="739.84" r="1.06" transform="translate(-898.66 -13.24) rotate(-45.59)" style="fill:#e6e6e6"/><circle cx="645.51" cy="731" r="1.86" transform="translate(-900.58 -35.47) rotate(-45.59)" style="fill:#e6e6e6"/><circle cx="649.99" cy="728.48" r="1.06" transform="translate(-897.43 -33.04) rotate(-45.59)" style="fill:#e6e6e6"/><circle cx="652.45" cy="723.91" r="0.78" transform="translate(-893.43 -32.62) rotate(-45.59)" style="fill:#e6e6e6"/><circle cx="647.96" cy="736" r="0.77" transform="translate(-903.42 -32.24) rotate(-45.59)" style="fill:#e6e6e6"/><circle cx="659.69" cy="723.08" r="0.78" transform="translate(-890.66 -27.74) rotate(-45.59)" style="fill:#e6e6e6"/><circle cx="650.34" cy="732.97" r="0.63" transform="translate(-900.54 -31.45) rotate(-45.59)" style="fill:#e6e6e6"/><circle cx="670.68" cy="737.63" r="0.63" transform="translate(-897.76 -15.48) rotate(-45.59)" style="fill:#e6e6e6"/><circle cx="657.38" cy="719.41" r="0.63" transform="translate(-888.74 -30.5) rotate(-45.59)" style="fill:#e6e6e6"/><circle cx="664.77" cy="723.91" r="0.63" transform="translate(-889.73 -23.87) rotate(-45.59)" style="fill:#e6e6e6"/><circle cx="670.79" cy="726" r="0.63" transform="translate(-889.42 -18.94) rotate(-45.59)" style="fill:#e6e6e6"/><circle cx="668.97" cy="731" r="0.63" transform="translate(-893.54 -18.69) rotate(-45.59)" style="fill:#e6e6e6"/><circle cx="663.71" cy="720.6" r="0.63" transform="translate(-887.69 -25.62) rotate(-45.59)" style="fill:#e6e6e6"/><circle cx="655.73" cy="727.12" r="1.84" transform="translate(-894.74 -29.32) rotate(-45.59)" style="fill:#e6e6e6"/><circle cx="675.9" cy="728.48" r="1.06" transform="translate(-796.98 -407.4) rotate(-22.15)" style="fill:#e6e6e6"/><circle cx="672.69" cy="730.07" r="1.06" transform="translate(-797.82 -408.47) rotate(-22.15)" style="fill:#e6e6e6"/><circle cx="677.25" cy="733.18" r="1.86" transform="translate(-798.66 -406.52) rotate(-22.15)" style="fill:#e6e6e6"/><circle cx="674.24" cy="736.18" r="1.06" transform="translate(-800.02 -407.43) rotate(-22.15)" style="fill:#e6e6e6"/><circle cx="668.69" cy="722.9" r="1.84" transform="translate(-795.41 -410.52) rotate(-22.15)" style="fill:#e6e6e6"/><g id="pmgBbU"><path d="M621.22,760.08v2.67s0,0.1,0,.15c0,0.88,0,1.77,0,2.65s0,1.79,0,2.68,0,1.79,0,2.68,0,1.77,0,2.66c0,1.38,0,2.76,0,4.14,0,0.53,0,1.07,0,1.6a6.21,6.21,0,0,1,0,1.07,1.32,1.32,0,0,1-1,1.19,11.45,11.45,0,0,1-2.47.36l-0.48,0h-1.87a15,15,0,0,1-2.09-.2,4.86,4.86,0,0,1-1.31-.38,0.82,0.82,0,0,1-.49-0.6,4.47,4.47,0,0,1-.09-0.77c0-.52,0-1,0-1.56,0-.92,0-1.83,0-2.75s0-1.82,0-2.73,0-1.84,0-2.76,0-1.8,0-2.7,0-1.86,0-2.79c0-.7,0-1.39,0-2.09,0-.06,0-0.11,0-0.17v-2.67a4.71,4.71,0,0,1,.76-2c0.27-.41.55-0.81,0.81-1.22a3.39,3.39,0,0,0,.59-1.51c0-.45.07-0.91,0.11-1.36s0.06-.76.09-1.14,0.07-.94.11-1.41,0.07-.94.11-1.41,0.07-.93.11-1.4,0.07-.94.1-1.41,0.09-1.17.14-1.76a0.13,0.13,0,0,0-.08-0.14,0.68,0.68,0,0,1-.38-0.73,2.75,2.75,0,0,1,.25-0.78,4.09,4.09,0,0,0,.19-0.46,0.14,0.14,0,0,0-.06-0.18,0.4,0.4,0,0,1-.19-0.51,0.48,0.48,0,0,1,.48-0.4h0.11c0.48,0,1-.08,1.43-0.09a18.63,18.63,0,0,1,1.94.06,1,1,0,0,1,.54.17,0.37,0.37,0,0,1,.16.39,1,1,0,0,1-.15.36,0.17,0.17,0,0,0,0,.17c0,0.11.09,0.22,0.13,0.33a2.63,2.63,0,0,1,.22,1,0.71,0.71,0,0,1-.36.63,0.14,0.14,0,0,0-.07.17q0,0.62.09,1.24l0.08,1.16,0.11,1.53,0.08,1.15,0.11,1.5c0,0.39.06,0.78,0.08,1.17s0.07,1,.12,1.55a7.48,7.48,0,0,0,.07.75,3,3,0,0,0,.38.94c0.27,0.46.58,0.89,0.87,1.34a6.77,6.77,0,0,1,.82,1.67A5.21,5.21,0,0,1,621.22,760.08Z" transform="translate(-572.18 -716.03)" style="fill:#e6e6e6"/></g><path d="M611,829.38h0.88a5.95,5.95,0,0,1,5.95,5.95v9.54a5.94,5.94,0,0,1-5.94,5.94H611a5.95,5.95,0,0,1-5.95-5.95v-9.54A5.94,5.94,0,0,1,611,829.38Z" transform="translate(-237.61 -877.43) rotate(20.59)" style="fill:#4d4d4d"/><rect x="64.28" y="120.98" width="12.77" height="21.43" rx="5.95" ry="5.95" style="fill:#4d4d4d"/><rect x="679.89" y="783.44" width="10.52" height="21.43" rx="4.83" ry="4.83" transform="translate(-711.75 -569.91) rotate(-11.06)" style="fill:#4d4d4d"/><g id="SRwCf3"><path d="M681.31,809.94a0.48,0.48,0,0,1-.19-0.29c-0.06-.25-0.13-0.5-0.18-0.76a0.17,0.17,0,0,0-.26-0.16l-2.56.63a0.45,0.45,0,0,1-.57-0.18c-0.08-.13-0.19-0.06-0.28,0l-4.21,1-2.51.61a0.49,0.49,0,0,1-.33,0,0.37,0.37,0,0,1,0-.68,1.38,1.38,0,0,1,.26-0.07l6.57-1.6a0.31,0.31,0,0,0,.32-0.29,0.38,0.38,0,0,1,.35-0.29l2.56-.62c0.2,0,.26-0.11.19-0.31s-0.11-.43-0.16-0.65a0.42,0.42,0,0,1,.38-0.61l2.67-.65,8.41-2c0.21-.05.27-0.12,0.2-0.33a5.42,5.42,0,0,1-.15-0.63,0.39,0.39,0,0,1,.27-0.47,0.36,0.36,0,0,1,.45.28c0.14,0.52.26,1,.39,1.56l0.7,2.86c0.13,0.56.27,1.11,0.4,1.67a0.35,0.35,0,0,1-.27.46,0.37,0.37,0,0,1-.45-0.29c-0.07-.24-0.13-0.49-0.18-0.74s-0.07-.16-0.18-0.12l-0.15,0-11,2.68A0.56,0.56,0,0,1,681.31,809.94Zm8.32-4.28a0.36,0.36,0,0,1,.36-0.18,0.39,0.39,0,0,1,.34.31c0.09,0.34.17,0.68,0.25,1a0.16,0.16,0,0,0,.23.14l1.86-.45a0.18,0.18,0,0,0,.15-0.27q-0.3-1.2-.59-2.41a0.16,0.16,0,0,0-.24-0.15l-10.69,2.6c-0.16,0-.21.09-0.17,0.26q0.3,1.2.59,2.41a0.17,0.17,0,0,0,.24.16l1.69-.41a0.18,0.18,0,0,0,.15-0.27c-0.09-.34-0.18-0.69-0.25-1a0.4,0.4,0,0,1,.27-0.53,0.39,0.39,0,0,1,.47.36c0.09,0.35.18,0.71,0.26,1.06a0.16,0.16,0,0,0,.23.15l1.89-.46a0.17,0.17,0,0,0,.15-0.25c-0.08-.29-0.15-0.58-0.21-0.87a0.4,0.4,0,0,1,.26-0.53,0.39,0.39,0,0,1,.48.35c0.08,0.3.15,0.61,0.22,0.91a0.14,0.14,0,0,0,.2.12l1.91-.46a0.17,0.17,0,0,0,.15-0.26c-0.08-.3-0.15-0.61-0.23-0.91A0.57,0.57,0,0,1,689.63,805.66Z" transform="translate(-572.18 -716.03)" style="fill:#e6e6e6"/><path d="M698.56,806.36a0.37,0.37,0,0,1-.67-0.1c-0.09-.31-0.17-0.63-0.24-1s-0.1-.24-0.3-0.19l-2.95.72c-0.29.07-.29,0.07-0.36-0.21-0.15-.63-0.29-1.26-0.45-1.89,0-.18,0-0.23.18-0.27l3-.72c0.19,0,.25-0.1.19-0.3s-0.16-.59-0.22-0.89a0.38,0.38,0,0,1,.28-0.52,0.4,0.4,0,0,1,.46.35q0.57,2.31,1.12,4.62A0.42,0.42,0,0,1,698.56,806.36Z" transform="translate(-572.18 -716.03)" style="fill:#e6e6e6"/></g><circle cx="668.23" cy="812.4" r="1.06" transform="translate(-829.2 -404.08) rotate(-22.15)" style="fill:#e6e6e6"/><circle cx="668.23" cy="812.4" r="1.06" transform="translate(-829.2 -404.08) rotate(-22.15)" style="fill:#e6e6e6"/><circle cx="668.23" cy="812.4" r="1.06" transform="translate(-829.2 -404.08) rotate(-22.15)" style="fill:#e6e6e6"/><circle cx="668.23" cy="812.4" r="1.06" transform="translate(-829.2 -404.08) rotate(-22.15)" style="fill:#e6e6e6"/><circle cx="668.23" cy="812.4" r="1.06" transform="translate(-829.2 -404.08) rotate(-22.15)" style="fill:#e6e6e6"/><circle cx="667.23" cy="816.3" r="1.06" transform="translate(-830.74 -404.17) rotate(-22.15)" style="fill:#e6e6e6"/><circle cx="668.19" cy="818.8" r="0.6" transform="matrix(0.93, -0.38, 0.38, 0.93, -831.65, -403.56)" style="fill:#e6e6e6"/><circle cx="667.23" cy="821.18" r="1.06" transform="translate(-832.59 -403.79) rotate(-22.15)" style="fill:#e6e6e6"/><circle cx="668.23" cy="823.63" r="0.6" transform="translate(-833.45 -403.22) rotate(-22.16)" style="fill:#e6e6e6"/><circle cx="668.15" cy="826.49" r="0.3" transform="translate(-834.52 -403.07) rotate(-22.15)" style="fill:#e6e6e6"/><circle cx="668.15" cy="827.76" r="0.3" transform="translate(-834.99 -402.98) rotate(-22.15)" style="fill:#e6e6e6"/><circle cx="667.23" cy="825.04" r="0.6" transform="translate(-834.05 -403.5) rotate(-22.16)" style="fill:#e6e6e6"/><circle cx="668.96" cy="827.19" r="0.3" transform="translate(-798.83 -462.98) rotate(-18.38)" style="fill:#e6e6e6"/><circle cx="668.76" cy="828.69" r="0.3" transform="translate(-699.93 -594.12) rotate(-9.51)" style="fill:#e6e6e6"/><circle cx="667.53" cy="828.41" r="0.3" transform="translate(-700.02 -594.2) rotate(-9.52)" style="fill:#e6e6e6"/><circle cx="667.91" cy="829.33" r="0.3" transform="translate(-651.7 -645.15) rotate(-5.73)" style="fill:#e6e6e6"/></svg>