<?xml version="1.0" encoding="utf-8"?>
<!-- Generator: Adobe Illustrator 19.2.0, SVG Export Plug-In . SVG Version: 6.00 Build 0)  -->
<svg version="1.1" id="Layer_1" xmlns="http://www.w3.org/2000/svg" xmlns:xlink="http://www.w3.org/1999/xlink" x="0px" y="0px"
	 viewBox="0 0 155.9 155.9" style="enable-background:new 0 0 155.9 155.9;" xml:space="preserve">
<g>
	<circle style="fill:#F78D1E;" cx="77.9" cy="77.9" r="77.9"/>
	<path style="fill:#E6E6E5;stroke:#4E4E4E;stroke-width:3;stroke-miterlimit:10;" d="M112.6,120.9H42.6c-1.8,0-3.3-1.5-3.3-3.3V22.5
		c0-1.8,1.5-3.3,3.3-3.3h69.9c1.8,0,3.3,1.5,3.3,3.3v95.1C115.9,119.4,114.4,120.9,112.6,120.9z"/>
	<polygon style="fill:#ED2224;stroke:#4E4E4E;stroke-width:2;stroke-miterlimit:10;" points="111.6,143.4 105.6,138.4 99.6,143.4 
		99.6,127.4 111.6,127.4 	"/>
	<circle style="fill:#ED2224;stroke:#4E4E4E;stroke-width:2;stroke-miterlimit:10;" cx="105.3" cy="118.5" r="15.1"/>
	<g id="I4lNDG_2_">
		<g>
			<path style="fill:#E6E6E5;" d="M114.5,114.2c-0.1,0.1-0.2,0.2-0.3,0.3c-3.5,3.5-6.9,6.9-10.4,10.4c-0.4,0.4-0.7,0.4-1,0
				c-1.9-1.9-3.7-3.8-5.5-5.7c-0.2-0.2-0.4-0.4-0.5-0.6c0-0.1,0-0.3,0-0.4c0.2-0.3,0.5-0.5,0.7-0.7c0.3-0.3,0.7-0.6,1-0.9
				c0.3-0.3,0.6-0.3,0.9,0c1.2,1.2,2.3,2.3,3.5,3.5c0.3,0.4,0.6,0.3,1,0c2.1-2.1,4.2-4.2,6.3-6.3c0.6-0.6,1.2-1.2,1.8-1.8
				c0.3-0.3,0.6-0.3,0.9,0c0.5,0.5,1,1,1.5,1.5c0.1,0.1,0.1,0.2,0.2,0.3C114.5,113.9,114.5,114.1,114.5,114.2z"/>
		</g>
	</g>
	<g>
		<path style="fill:#4E4E4E;stroke:#4E4E4E;stroke-width:2;stroke-miterlimit:10;" d="M47.9,45.5c-0.2-0.2-0.3-0.4-0.3-0.7
			c0-0.1,0-0.3,0.1-0.4l5.4-12.8c0.1-0.3,0.3-0.5,0.5-0.6c0.2-0.2,0.5-0.2,0.8-0.2h0.2c0.3,0,0.5,0.1,0.8,0.2
			c0.2,0.2,0.4,0.4,0.5,0.6l5.4,12.8c0.1,0.2,0.1,0.3,0.1,0.4c0,0.3-0.1,0.5-0.3,0.7c-0.2,0.2-0.4,0.3-0.7,0.3
			c-0.2,0-0.4-0.1-0.5-0.2c-0.2-0.1-0.3-0.3-0.4-0.4l-1.4-3.3h-7.2l-1.4,3.3c-0.1,0.2-0.2,0.3-0.4,0.4c-0.2,0.1-0.3,0.2-0.5,0.2
			C48.4,45.8,48.1,45.7,47.9,45.5z M51.7,40.1h5.7l-2.9-6.9L51.7,40.1z"/>
	</g>
	<g>
		<path style="fill:#4E4E4E;stroke:#4E4E4E;stroke-width:2;stroke-miterlimit:10;" d="M49,71.2c-0.2-0.2-0.3-0.4-0.3-0.7V57.6
			c0-0.3,0.1-0.5,0.3-0.7c0.2-0.2,0.4-0.3,0.7-0.3h5c1.5,0,2.7,0.3,3.5,1c0.8,0.7,1.2,1.6,1.2,2.8c0,0.8-0.2,1.5-0.6,2
			c-0.4,0.5-0.9,1-1.5,1.2c0.8,0.3,1.5,0.7,2.1,1.3c0.5,0.6,0.8,1.3,0.8,2.2c0,1.3-0.4,2.3-1.3,3.1c-0.9,0.7-2.3,1.1-4.1,1.1h-5.1
			C49.4,71.5,49.1,71.4,49,71.2z M54.1,63.1c1.3,0,2.1-0.2,2.7-0.6s0.8-1,0.8-1.8c0-0.7-0.3-1.2-0.8-1.6c-0.5-0.4-1.3-0.6-2.2-0.6
			h-3.9v4.6H54.1z M54.6,69.7c1.4,0,2.3-0.2,2.9-0.6c0.6-0.4,0.9-1,0.9-1.8c0-1.6-1.3-2.4-3.8-2.4h-4v4.9H54.6z"/>
	</g>
	<g>
		<path style="fill:#4E4E4E;stroke:#4E4E4E;stroke-width:2;stroke-miterlimit:10;" d="M51.4,96.6c-1.1-0.6-2-1.5-2.7-2.7
			c-0.6-1.2-1-2.5-1-4c0-1.5,0.3-2.9,1-4c0.6-1.2,1.5-2,2.7-2.7c1.1-0.6,2.4-0.9,3.8-0.9c1,0,1.8,0.1,2.6,0.3c0.8,0.2,1.5,0.6,2.3,1
			c0.3,0.2,0.5,0.4,0.5,0.8c0,0.2-0.1,0.4-0.2,0.6c-0.2,0.2-0.4,0.2-0.6,0.2c-0.1,0-0.3,0-0.4-0.1c-0.6-0.3-1.2-0.6-1.8-0.7
			c-0.6-0.2-1.3-0.3-2.1-0.3c-1.2,0-2.3,0.3-3.1,0.8c-0.9,0.5-1.5,1.2-1.9,2.1c-0.4,0.9-0.6,1.9-0.6,3c0,1.1,0.2,2.1,0.6,3
			c0.4,0.9,1.1,1.6,1.9,2.1c0.9,0.5,1.9,0.8,3.1,0.8c0.8,0,1.5-0.1,2.1-0.3c0.6-0.2,1.2-0.4,1.8-0.7c0.1-0.1,0.2-0.1,0.4-0.1
			c0.3,0,0.5,0.1,0.6,0.2c0.2,0.2,0.2,0.3,0.2,0.6c0,0.4-0.2,0.6-0.5,0.8c-0.8,0.4-1.5,0.8-2.3,1c-0.8,0.2-1.6,0.3-2.6,0.3
			C53.8,97.5,52.5,97.2,51.4,96.6z"/>
	</g>
	
		<line style="fill:none;stroke:#4E4E4E;stroke-width:3;stroke-linecap:round;stroke-linejoin:round;stroke-miterlimit:10;" x1="66.9" y1="45.8" x2="105.6" y2="45.8"/>
	
		<line style="fill:none;stroke:#4E4E4E;stroke-width:3;stroke-linecap:round;stroke-linejoin:round;stroke-miterlimit:10;" x1="66.9" y1="71.5" x2="105.6" y2="71.5"/>
	
		<line style="fill:none;stroke:#4E4E4E;stroke-width:3;stroke-linecap:round;stroke-linejoin:round;stroke-miterlimit:10;" x1="66.9" y1="97.5" x2="105.6" y2="97.5"/>
</g>
</svg>
