<svg id="Layer_1" data-name="Layer 1" xmlns="http://www.w3.org/2000/svg" viewBox="0 0 155.89 155.89"><title>snatch-theft</title><circle cx="77.94" cy="77.94" r="77.94" style="fill:#fb8c00"/><path d="M3366.81,371.09a9.29,9.29,0,0,0-3.48.68,11.64,11.64,0,0,1-1.87,1,15.76,15.76,0,0,1-9.59,1.63,10.24,10.24,0,0,1-6.19-3.93,2.49,2.49,0,0,0-3.18-.93,1.35,1.35,0,0,1-.9-0.12,3.48,3.48,0,0,0-4,.61c-0.63.59-1.22,1.24-1.88,1.78a1.73,1.73,0,0,1-1.11.4,4.43,4.43,0,0,0-2.81.69c-1.94,1.21-3.89,2.39-5.84,3.58-1.69,1-1.86,2.44-.46,3.89l8.29,8.6c1.4,1.45,2.79,1.35,3.91-.31,1.31-1.94,2.62-3.89,3.87-5.87a3,3,0,0,0,.63-1.69c-0.17-1.45.62-2.27,1.58-3.08,0.49-.41.93-0.9,1.43-1.4,4.59,3.22,9.58,3.33,14.79,1.87a5.09,5.09,0,0,1,1.23-.46c0-.15.12-0.44,0.17-0.59C3362.41,374.94,3364.35,372.26,3366.81,371.09Zm-26.44,7.62-2.43-2.51-2.45-2.54a19.45,19.45,0,0,1,2.3-2.11,3.21,3.21,0,0,1,1.74-.19,0.74,0.74,0,0,1,.48.54c-0.16,1.46.82,2.31,1.65,3.25,0.32,0.37.68,0.71,1.13,1.17Z" transform="translate(-3273.13 -321.91)" style="fill:#4d4d4d"/><path d="M3376.61,385.41a10.3,10.3,0,0,1-3.3-.83,2.31,2.31,0,0,1-1.54-2.5,18.19,18.19,0,0,1,.8-3.62,2.71,2.71,0,0,0-1.38-3.56,2.57,2.57,0,0,0-3.44,1.42,17.55,17.55,0,0,0-1,3c-1.11,4.69.73,8.58,4.88,10.36a18.65,18.65,0,0,0,7,1.24c1.75-.17,3.5-0.3,5.24-0.53a2.58,2.58,0,0,0,2.27-2.85,2.66,2.66,0,0,0-3-2.31C3380.92,385.32,3378.76,385.48,3376.61,385.41Z" transform="translate(-3273.13 -321.91)" style="fill:#4d4d4d"/><path d="M3362.14,398.58a25.34,25.34,0,0,1,3.23,1.42c2.25,1.16,4.47,2.39,6.69,3.59,0.7,0.38,1.4.78,2.1,1.17-1.33,4.1-2.64,8.11-3.91,12.12a4.09,4.09,0,1,0,7.79,2.51q2.47-7.55,4.89-15.12a4.06,4.06,0,0,0-2-5.16c-1.7-1-3.42-1.92-5.12-2.87l-6.75-3.79c0.25-.83.53-1.58,0.7-2.37a1,1,0,0,0-.26-0.88c-4.88-3.48-4.16-9.74-2-13.63a3.2,3.2,0,0,1,5.91,1.73,6.89,6.89,0,0,1-.46,1.84c-0.44,1.3-.9,2.6-0.32,4a22,22,0,0,0,3.13-6.89c0.33-3.13-1-5.85-5-5.84-3,0-5.09,1.54-6.74,3.86a37.13,37.13,0,0,0-6.48,16C3356.87,394.6,3358.31,397.23,3362.14,398.58Z" transform="translate(-3273.13 -321.91)" style="fill:#4d4d4d"/><path d="M3380.75,372.26a7.35,7.35,0,1,0-7.25-7.43A7.31,7.31,0,0,0,3380.75,372.26Z" transform="translate(-3273.13 -321.91)" style="fill:#4d4d4d"/><path d="M3311.92,370.63a6.9,6.9,0,1,0,6.82,6.93A6.85,6.85,0,0,0,3311.92,370.63Z" transform="translate(-3273.13 -321.91)" style="fill:#e6e6e6"/><path d="M3332.38,389.13a1.93,1.93,0,0,0-2.18-1.13c-1.63.25-3.24,0.66-4.88,0.76a36.84,36.84,0,0,1-20.31-4.13,6.31,6.31,0,0,1-1.75-1.41,22.2,22.2,0,0,1-5.11-13.06,78.42,78.42,0,0,1,.1-8.07,2.11,2.11,0,0,0-1.75-2.24,2,2,0,0,0-2.2,1.64,5.4,5.4,0,0,0-.15,1c0,2.57-.18,5.14,0,7.69a26.87,26.87,0,0,0,5.33,14.71,1,1,0,0,1,.08,1.33,88.88,88.88,0,0,0-7.83,17.28c-1,2.9-1.75,5.85-2.64,8.86l5.12,1c-0.11.31-.18,0.49-0.24,0.67l-4.86,12.49a81.37,81.37,0,0,0,3.66,7.47c2.09-5.35,4.12-10.69,6.21-16,0.48-1.23.87-2.46,1.35-3.68a9.82,9.82,0,0,1,1.23.12v1.16c0,6.6.21,13.21,0.21,19.81a3.16,3.16,0,0,0,3.25,3.37,3,3,0,0,0,3.1-3.32c0-6.41.07-12.83,0.07-19.24V415c2.21,0.1,3.62.19,5.49,0.29a82.11,82.11,0,0,1-1.05-23.31c3,0.28,5.92.63,8.82,0.81a31.29,31.29,0,0,0,9.07-.79,3.87,3.87,0,0,0,1.38-.57A1.91,1.91,0,0,0,3332.38,389.13Z" transform="translate(-3273.13 -321.91)" style="fill:#e6e6e6"/><path d="M3292.61,427.67a9.13,9.13,0,0,1-3.19-2c-1,2.83-2.09,5.66-3.18,8.48a3,3,0,0,0,1.71,4.06,2.82,2.82,0,0,0,3.85-1.87q1.56-4,3.15-8.07A9.67,9.67,0,0,1,3292.61,427.67Z" transform="translate(-3273.13 -321.91)" style="fill:#e6e6e6"/><path d="M3322.37,369.29c0.2-.23.31-0.38,0.44-0.52,1.18-1.24,2.37-2.48,3.53-3.74a2.12,2.12,0,0,0,.27-0.73,2.31,2.31,0,0,0-.76-0.21c-0.47,0-.93.18-1.4,0.26l-4.23.73c0.29-1.68.57-3.17,0.8-4.67a4.67,4.67,0,0,0-.07-1.06,5.56,5.56,0,0,0-1.06.42,13,13,0,0,0-1.17,1L3316,363c-0.46-1.66-.86-3.15-1.29-4.63a2.38,2.38,0,0,0-.47-0.64,4.37,4.37,0,0,0-.64.59,3.18,3.18,0,0,0-.29.7l-2.06,5c-1-.76-2-1.47-2.94-2.13a0.94,0.94,0,0,0-.75-0.12,0.8,0.8,0,0,0-.17.65c0.19,1.28.4,2.57,0.66,3.84a2,2,0,0,0,.57.68,2.22,2.22,0,0,0,.31-0.85c-0.09-.91-0.27-1.81-0.45-2.9,0.87,0.64,1.6,1.15,2.29,1.7s1,0.45,1.32-.37c0.59-1.56,1.27-3.09,1.94-4.72a2.83,2.83,0,0,1,.17.35c0.31,1.1.61,2.19,0.92,3.29s0.51,1.13,1.39.4L3320,361c-0.13.83-.23,1.45-0.33,2.07s-0.26,1.3-.36,2c-0.19,1.16-.05,1.27,1.12,1,1.37-.26,2.74-0.48,4.11-0.72a35.4,35.4,0,0,1-2.92,3.36c-0.83.88-.79,1.05,0.32,1.46l3.26,1.18c-1.15.46-2.08,0.79-3,1.2a1.94,1.94,0,0,0-.51.66,1.89,1.89,0,0,0,.87.19c1.28-.46,2.54-1,3.79-1.5a2.88,2.88,0,0,0,.67-0.58,2.82,2.82,0,0,0-.68-0.56C3325.05,370.22,3323.76,369.78,3322.37,369.29Z" transform="translate(-3273.13 -321.91)" style="fill:#e6e6e6"/><path d="M3407.61,408.25a15,15,0,0,0-4.15.59c-2.41-4.5-4.69-9-7.1-13.52a12.58,12.58,0,0,0,2.15.68v-9.2c-2,.33-3.53,1-4.31,2.65a5,5,0,0,0-.44,1.13c-0.19-.36-0.42-0.72-0.61-1.07-0.93-1.74-1.81-3.54-2.64-5.33-0.28-.59-0.66-0.45-1.27-0.44-2.5,0-5,.27-7.52.27h-1.21v0.86c1-.09,1.58-0.18,2.44-0.28a3.22,3.22,0,0,1,3.92,2.78,0.71,0.71,0,0,0,.16.49c1.45,1,1.57,3.15,2.66,4.15h-19.11a6.73,6.73,0,0,1,.86.92c3.3,1.85,6.61,3.8,9.89,5.68a4.65,4.65,0,0,1,2.25,5.65q-2.46,7.72-5,15.42a4.68,4.68,0,0,1-6,3.08,4.72,4.72,0,0,1-3-6.05c0.65-2.06,1.33-4.11,2-6.16l1.77-5.51c-3-1.64-6-3.23-9-4.82-0.22-.12-22.92-0.16-23.37-0.22a2.73,2.73,0,0,0-3.4,1.93,17.86,17.86,0,0,1-1.36,2.15,1.77,1.77,0,0,1-.74.94h16.64s2.9,0,6,0a31.91,31.91,0,0,1,6.87,2.23c1.26,0.72,3.56,1,2.73,4.26-0.68,2.68-.28,1.79-1.23,5.13-0.57,2-.9,3.35-1.32,4.35h-3.38a15.25,15.25,0,0,0-14.83-12.69,15.21,15.21,0,1,0,14.86,19.26,1,1,0,0,1,1.22-.95c6.29,0,12.59,0,18.88,0a1.45,1.45,0,0,0,1.56-.91c2.68-5.38,5.42-10.73,8.14-16.09l3.44-6.77,4.13,7.87a15,15,0,0,0-.19,24.95,15.33,15.33,0,0,0,2.94,1.72l0.08-.13A15,15,0,1,0,3407.61,408.25Zm-60.53,23.46a8.42,8.42,0,1,1,8.42-8.42A8.43,8.43,0,0,1,3347.08,431.72Zm60.53,0a8.42,8.42,0,1,1,8.42-8.42A8.43,8.43,0,0,1,3407.61,431.72Z" transform="translate(-3273.13 -321.91)" style="fill:#4d4d4d"/><circle cx="80.29" cy="112.43" style="fill:#e6e6e6"/><path d="M3407,428.24l0,0.07Z" transform="translate(-3273.13 -321.91)" style="fill:#e6e6e6"/><polygon points="131.97 110.27 131.97 110.27 131.97 110.27 131.97 110.27" style="fill:#e6e6e6"/><polygon points="135.58 102.35 135.58 102.35 135.58 102.35 135.58 102.35" style="fill:#e6e6e6"/><polygon points="138.55 93.32 138.55 93.32 138.55 93.33 138.55 93.32" style="fill:#e6e6e6"/></svg>