<?xml version="1.0" encoding="utf-8"?>
<!-- Generator: Adobe Illustrator 19.2.0, SVG Export Plug-In . SVG Version: 6.00 Build 0)  -->
<svg version="1.1" id="Layer_1" xmlns="http://www.w3.org/2000/svg" xmlns:xlink="http://www.w3.org/1999/xlink" x="0px" y="0px"
	 viewBox="0 0 155.9 155.9" style="enable-background:new 0 0 155.9 155.9;" xml:space="preserve">
<g>
	<circle style="fill:#F78D1E;" cx="77.9" cy="77.9" r="77.9"/>
	<g id="ibSrpK_1_">
		<g>
			<path style="fill:#4E4E4E;" d="M71.3,146.4c0-8.3,0-16.6-0.1-24.9c0-0.7,0-1.3,0-2.1c4.9,0,9.8,0,14.6,0c-3-1.3-3.2-4.1-3.6-6.7
				c-1.2-7.6-1-15.1,0.8-22.6c0.2-0.7,0.4-1.3-0.4-1.8c-2.2-1.6-3.2-4-3.5-6.6c-0.5-4.5-1-9-1.4-13.6c-0.1-1-0.4-1.4-1.3-1.7
				c-4.7-1.6-8.9-4.1-12-8.2c-0.1-0.1-0.3-0.3-0.3-0.4c-0.7-1.5-1.8-2.1-3.5-2.6c-5.3-1.5-7.5-6.3-7.3-12.2c0.1-3.3,1.3-6.1,3.8-8.3
				c1.5-1.3,2.7-2.8,2.9-5c0.1-0.7,1.1-1.4,1.7-2.2c0.9,1.9-0.8,2.5-1.6,3.9c0.8-0.4,1.3-0.6,1.5-0.7c0.9,2.3,1.7,4.8,2.8,7.1
				c1.1,2.4,2.6,4.5,3.8,6.9c0.5,0.9,0.7,2.1,0.7,3.1c0,4.3,2.5,7,5.9,9.1c0.8,0.5,1.6,0.8,2.4,1.2c1.7,0.9,3.2,1,5.2-0.1
				c4.9-2.6,10.5,0.3,11.5,6.1c1,5.9,1.4,11.9,2,17.9c0.2,2.1-0.9,3.8-2.3,5.4c-0.6,0.6-1.1,1.4-1.3,2.2c-2.1,7.6-2.5,15.3-1,23.1
				c0.7,3.5,0.4,4.3-2.6,6.6c3.2,0,6.4,0,9.7,0c0.8-10.9,3.6-21.4,8-31.6c1.1,0.5,2.1,0.9,3.1,1.4c-1,2.8-2.1,5.6-3,8.4
				c-3.2,9.4-4.9,19.1-4.7,29.1c0.1,6.6,0,13.2,0,19.8c-1.1,0-2.3,0-3.4,0c0-3.6,0-7.2,0-10.8c-8,0-15.8,0-23.6,0
				c0,3.7,0,7.2,0,10.8C73.6,146.4,72.5,146.4,71.3,146.4z M74.8,131.9c7.8,0,15.5,0,23.3,0c0-3.1,0-6,0-8.9c-7.8,0-15.5,0-23.3,0
				C74.8,126,74.8,128.9,74.8,131.9z M61.1,32.5c-1.2,1.3-2.5,2.5-3.5,3.9c-0.9,1.1-1.8,2.3-2.2,3.6c-1.1,3.4-0.8,6.9,0.8,10.1
				c1.2,2.4,3.3,3.7,6,4.3c-0.3-1.1-0.7-2-0.9-3c-0.2-1-0.4-2-0.5-3c-1.1-3.1,2.5-4.8,3.7-4.3c0.8,0,1.5,0.2,2.3,0.4
				C65,40.3,61.4,37.1,61.1,32.5z"/>
			<path style="fill:#4E4E4E;" d="M73.5,46.9c0.3-4.9,4.2-8.5,9-8.2c4.7,0.2,8.4,4.3,8.1,8.8c-0.3,4.8-4.2,8.5-8.7,8.3
				C77,55.6,73.3,51.6,73.5,46.9z"/>
			<path style="fill:#E6E6E5;" d="M59.9,25.6c0.2-0.9,0.5-1.8,0.7-2.7c0.1-0.4,0.1-0.8,0.1-1.3c0-5.9,0-11.8,0-17.7
				c0-0.4,0-0.8,0-1.1c0-0.2,0.3-0.4,0.4-0.4c0.1,0,0.4,0.2,0.4,0.4c0.1,0.4,0,0.7,0,1.1c0,5.7,0,11.3,0,17c0,0.8,0.4,1.6,0.5,2.4
				c0,0.3,0,0.7-0.2,0.9c-0.4,0.6-1,1.1-1.4,1.7C60.2,25.8,60,25.7,59.9,25.6z"/>
			<path style="fill:#E6E6E5;" d="M60.2,28.5c-0.3-1.9,1-2.3,1.8-3.3C62.4,26.9,61,27.3,60.2,28.5z"/>
		</g>
		<g>
			<path style="fill:#E6E6E5;" d="M66.5,44.4c0.1,0,0.2,0,0.3,0.1C66.7,44.4,66.6,44.4,66.5,44.4L66.5,44.4z"/>
			<path style="fill:#E6E6E5;" d="M62.1,54.3C62.1,54.3,62.1,54.4,62.1,54.3C62.1,54.3,62.1,54.3,62.1,54.3
				C62.1,54.3,62.1,54.3,62.1,54.3z"/>
			<path style="fill:#E6E6E5;" d="M68.3,44.8c-1.2-2.3-2.6-4.5-3.8-6.9c-1.1-2.3-1.9-4.8-2.8-7.1c-0.2,0.1-0.6,0.3-1.5,0.7
				c0.8-1.5,2.5-2,1.6-3.9c-0.6,0.8-1.7,1.5-1.7,2.2c-0.2,2.2-1.4,3.7-2.9,5c-2.6,2.2-3.7,5-3.8,8.3c-0.2,5.9,1.9,10.7,7.3,12.2
				c1.6,0.5,1.9,0.8,2.3,1l-0.9-1.9c-2.8-0.6-4.8-1.9-6-4.3c-1.6-3.2-1.9-6.7-0.8-10.1c0.4-1.3,1.4-2.5,2.2-3.6
				c1.1-1.3,2.3-2.5,3.5-3.9c0.4,4.6,3.9,7.8,5.8,12c0,0,0.6-0.2,1.2,0.4C68.1,44.8,68.1,44.8,68.3,44.8
				C68.2,44.8,68.2,44.8,68.3,44.8z"/>
		</g>
		<path style="fill:#4E4E4E;" d="M66.5,56.7L66.5,56.7c-2.2,0.4-4.4-1-4.9-3.3l-1.3-6.8c-0.4-2.2,1-4.4,3.3-4.9l0,0
			c2.2-0.4,4.4,1,4.9,3.3l1.3,6.8C70.2,54.1,68.8,56.2,66.5,56.7z"/>
	</g>
</g>
</svg>
