<svg id="Layer_1" data-name="Layer 1" xmlns="http://www.w3.org/2000/svg" viewBox="0 0 155.89 155.89"><title>travel-protection</title><circle cx="77.94" cy="77.94" r="77.94" style="fill:#fb8c00"/><path d="M3316.83,1682.65a1.11,1.11,0,0,0-1.45.88s-1,2.47-1.68,4.13a1.32,1.32,0,0,1-1,.68,42.38,42.38,0,0,1-4.78.27h-6.45a42.38,42.38,0,0,1-4.78-.27,1.32,1.32,0,0,1-1-.68,44.11,44.11,0,0,1-.77-4.79,1.11,1.11,0,0,0-1.45-.88c-1.09.21-1,.65-0.95,1.32a22.89,22.89,0,0,0,.95,5.56,2.21,2.21,0,0,0,1.64,1.28c1.34,0.39,3.1.59,4.24,0.89a1.45,1.45,0,0,1,1.05.81,38.13,38.13,0,0,1,.34,4l0,3.9a0.86,0.86,0,0,0,0,.12v12.69a1.59,1.59,0,0,0,3,0v-11.24h1.78v11.24a1.59,1.59,0,0,0,3,0V1699.9a0.84,0.84,0,0,0,0-.12l0-3.9a38.12,38.12,0,0,1,.34-4,1.45,1.45,0,0,1,1.05-.81c1.15-.3,2.9-0.5,4.24-0.89a2.21,2.21,0,0,0,1.64-1.28c0.86-2.63,1.85-4.9,1.85-4.9C3317.81,1683.3,3317.92,1682.85,3316.83,1682.65Z" transform="translate(-3187.96 -1582.17)" style="fill:#4d4d4d"/><circle cx="116.81" cy="102.53" r="3.53" style="fill:#4d4d4d"/><path d="M3241.34,1682.59a1.22,1.22,0,0,0-1.51.65c-0.48.89-1.06,2.41-1.95,4.16-0.44.65-.74,1.19-1.36,1.12-2.29,0-2.68,0-4,0H3225c-1.34,0-1.22,0-4,0-0.63.07-.92-0.48-1.36-1.12-0.89-1.75-1.47-3.26-1.95-4.16a1.22,1.22,0,0,0-1.51-.65,1.21,1.21,0,0,0-.69,1.42c0.13,0.48,2,4.68,2.53,5.65a3.59,3.59,0,0,0,2.4,2c0.93,0.07,4.54,0,4.67,0a0.32,0.32,0,0,1,.32.3h0l-1.66,9.14c-0.15.84,0.66,1.56,1.94,1.84v10.11a1.27,1.27,0,1,0,2.53,0v-10h1.07v10a1.27,1.27,0,1,0,2.53,0V1703c1.28-.28,2.09-1,1.94-1.84l-1.66-9.14h0a0.32,0.32,0,0,1,.32-0.3c0.13,0,3.73,0,4.67,0a3.59,3.59,0,0,0,2.4-2c0.52-1,2.4-5.17,2.53-5.65A1.21,1.21,0,0,0,3241.34,1682.59Z" transform="translate(-3187.96 -1582.17)" style="fill:#4d4d4d"/><circle cx="40.81" cy="101.95" r="3.85" style="fill:#4d4d4d"/><path d="M3225.87,1697.8a2.06,2.06,0,0,0-1.81,1.74l-0.91,4.92a1.33,1.33,0,0,0,1.17,1.75h9.15a1.26,1.26,0,0,0,1.1-1.72l-1.36-6c-0.21-.95-0.83-0.69-1.64-0.69h-5.69Z" transform="translate(-3187.96 -1582.17)" style="fill:#4d4d4d"/><path d="M3297.3,1681.44l-3.63-4.78a4.36,4.36,0,0,1-.79-1.68c-0.17-.91-1.56-10.21-2-11.45a4.85,4.85,0,0,0-4.26-2.88H3272.1a4.85,4.85,0,0,0-4.26,2.88,2.48,2.48,0,0,0-.28.78l-4.13,21.31a2.49,2.49,0,1,0,4.89.9l3.33-17a0.63,0.63,0,0,1,1.19.24h0l-3.27,18c-0.3,1.66,1.3,3.07,3.81,3.62v19.88a2.49,2.49,0,1,0,5,0V1691.6h2v19.64a2.49,2.49,0,0,0,5,0v-19.88c2.51-.54,4.11-2,3.81-3.62l-3.27-18h0a0.63,0.63,0,0,1,1.19-.24s1.27,6.37,1.39,7a5.21,5.21,0,0,0,.88,2c0.48,0.72,4.38,5.46,4.38,5.46a2.3,2.3,0,0,0,3.11.76C3298.17,1683.74,3298.1,1682.64,3297.3,1681.44Z" transform="translate(-3187.96 -1582.17)" style="fill:#4d4d4d"/><circle cx="91.97" cy="72.04" r="5.22" style="fill:#4d4d4d"/><path d="M3273.22,1685.6a4.18,4.18,0,0,0-3.89,3.12l-2,8.82a2.47,2.47,0,0,0,2.51,3.13h19.69a2.32,2.32,0,0,0,2.36-3.09l-2.93-10.75c-0.46-1.7-1.78-1.23-3.54-1.23h-12.25Z" transform="translate(-3187.96 -1582.17)" style="fill:#4d4d4d"/><circle cx="63.81" cy="72.63" r="5.94" style="fill:#4d4d4d"/><path d="M3264.06,1666.89a6.82,6.82,0,0,0-5.61-5.55h-0.06l-12,0a9,9,0,0,0-1.39.12,6.83,6.83,0,0,0-5.67,5.56c0,0.1-.13,12.53-0.13,18.65a2.76,2.76,0,0,0,1.67,1.53,2.33,2.33,0,0,0,3-2.14,10.56,10.56,0,0,0,0-1.11q0-6.61,0-13.22v-0.9h1.07v1q0,19.75,0,39.5a9.07,9.07,0,0,0,.13,1.73,3.19,3.19,0,0,0,2.14,2.22h1.58c1.84-.64,2.44-2,2.42-3.86-0.05-7.44,0-14.88,0-22.32v-1h1.08v1c0,7.41,0,14.83,0,22.24,0,1.91.55,3.27,2.4,4h1.58c1.84-.66,2.38-2.05,2.37-3.9q0-8.69,0-17.39v-23.34h0.85v0.9q0,6.61,0,13.22c0,0.37,0,.74,0,1.11a2.31,2.31,0,0,0,1.77,2.16v0.07l0.1,0a0.64,0.64,0,0,1,.19,0,1.07,1.07,0,0,1,.2,0,5.23,5.23,0,0,1,.83-0.07,1,1,0,0,1,.28-0.05V1687a3.13,3.13,0,0,0,1.34-1.42C3264.19,1679.41,3264.08,1667,3264.06,1666.89Z" transform="translate(-3187.96 -1582.17)" style="fill:#4d4d4d"/><path d="M3261.89,1687.8h-0.15a2.27,2.27,0,0,1-2.27-2.27h0a2.27,2.27,0,0,1,2.27-2.27h0.15a2.27,2.27,0,0,1,2.27,2.27h0A2.27,2.27,0,0,1,3261.89,1687.8Z" transform="translate(-3187.96 -1582.17)" style="fill:#4d4d4d"/><g id="_0mJ7F6" data-name="0mJ7F6"><path d="M3292.46,1616.79a4.26,4.26,0,0,1-4.45,2.84c-4.62-.06-9.24,0-13.85,0a2.29,2.29,0,0,0-1.93.9c-5,5.82-10.09,11.61-15.11,17.44a2.72,2.72,0,0,1-2.53,1.12,14.26,14.26,0,0,0-2,0c-0.84,0-1-.31-0.59-1,0.94-1.73,1.86-3.46,2.78-5.19l6.45-12.14c0.56-1.06.54-1.09-.68-1.09-3.21,0-6.42,0-9.63,0a1.71,1.71,0,0,0-1.56.79c-1.37,1.88-2.85,3.68-4.15,5.61a2.73,2.73,0,0,1-3.11,1.41V1626c0.38-2.18.78-4.36,1.13-6.55,0.23-1.45.77-2.88,0.55-4.35-0.49-3.32-1.11-6.62-1.68-9.93v-1.38a2.73,2.73,0,0,1,3.11,1.41c1.31,2,2.81,3.78,4.21,5.68a1.56,1.56,0,0,0,1.4.71c3.31,0,6.62,0,9.92,0,0.83,0,1-.19.58-0.93-3.06-5.71-6.09-11.44-9.14-17.16-0.64-1.2-.58-1.37.8-1.35,3.82,0.06,2.61-.54,5,2.24q7.12,8.12,14.17,16.31a2.29,2.29,0,0,0,1.93.9c4.62,0,9.24,0,13.85,0a4.26,4.26,0,0,1,4.45,2.84v2.36Z" transform="translate(-3187.96 -1582.17)" style="fill:#e6e6e6"/></g></svg>