<svg id="Layer_1" data-name="Layer 1" xmlns="http://www.w3.org/2000/svg" viewBox="0 0 157.62 155.89"><title>user-friendly</title><circle cx="79.68" cy="77.94" r="77.94" style="fill:#fb8c00"/><circle cx="77.94" cy="77.94" r="77.94" style="fill:#fb8c00"/><g id="q8WQW7"><path d="M443,426.58q0-25.62,0-51.24a7,7,0,0,1,5.75-7.07,8.47,8.47,0,0,1,1.69-.16h50.65a7.12,7.12,0,0,1,7.3,5.72,8.49,8.49,0,0,1,.17,1.75q0,51,0,102a7.18,7.18,0,0,1-7.48,7.47H450.47a7.15,7.15,0,0,1-7.35-6,7.61,7.61,0,0,1-.07-1.46Q443,452.11,443,426.58Zm62.11-5.38q0-18.52,0-37a6.19,6.19,0,0,0-.07-1.17,4.08,4.08,0,0,0-4.19-3.45H450.78a4.2,4.2,0,0,0-3.41,1.53,4.81,4.81,0,0,0-1,3.25q0,36.86,0,73.71c0,0.18,0,.35,0,0.53a4.18,4.18,0,0,0,4.4,4.27h50a4.61,4.61,0,0,0,.88-0.06,4.11,4.11,0,0,0,3.46-4.25Q505.16,439.86,505.16,421.2Zm-36,52.34a6.59,6.59,0,0,0,6.59,6.67,6.66,6.66,0,0,0,6.7-6.73A6.65,6.65,0,0,0,469.17,473.54Z" transform="translate(-399.07 -348.65)" style="fill:#4d4d4d"/><path d="M505.16,421.2q0-18.52,0-37a6.19,6.19,0,0,0-.07-1.17,4.08,4.08,0,0,0-4.19-3.45H450.78a4.2,4.2,0,0,0-3.41,1.53,4.81,4.81,0,0,0-1,3.25q0,36.86,0,73.71c0,0.18,0,.35,0,0.53a4.18,4.18,0,0,0,4.4,4.27h50a4.61,4.61,0,0,0,.88-0.06,4.11,4.11,0,0,0,3.46-4.25Q505.16,439.86,505.16,421.2Z" transform="translate(-399.07 -348.65)" style="fill:#e6e6e6"/></g><polygon points="55.09 92.6 56.54 95.55 59.79 96.02 57.44 98.31 57.99 101.55 55.09 100.02 52.18 101.55 52.73 98.31 50.38 96.02 53.63 95.55 55.09 92.6" style="fill:#4d4d4d"/><polygon points="65.83 92.6 67.29 95.55 70.54 96.02 68.19 98.31 68.74 101.55 65.83 100.02 62.93 101.55 63.48 98.31 61.13 96.02 64.38 95.55 65.83 92.6" style="fill:#4d4d4d"/><polygon points="76.58 92.6 78.04 95.55 81.29 96.02 78.94 98.31 79.49 101.55 76.58 100.02 73.68 101.55 74.23 98.31 71.88 96.02 75.13 95.55 76.58 92.6" style="fill:#4d4d4d"/><polygon points="87.33 92.6 88.79 95.55 92.04 96.02 89.69 98.31 90.24 101.55 87.33 100.02 84.43 101.55 84.98 98.31 82.63 96.02 85.88 95.55 87.33 92.6" style="fill:#4d4d4d"/><polygon points="98.08 92.6 99.54 95.55 102.79 96.02 100.44 98.31 100.99 101.55 98.08 100.02 95.18 101.55 95.73 98.31 93.38 96.02 96.63 95.55 98.08 92.6" style="fill:#4d4d4d"/><g id="oZnLMY"><path d="M480.87,432.6c-3,0-5.92,0-8.88,0a3.43,3.43,0,0,1-2.44-.89,1.71,1.71,0,0,0-1.36-.37,0.53,0.53,0,0,0-.44.31,2,2,0,0,1-1.85,1c-2.85,0-5.71,0-8.56,0a1.94,1.94,0,0,1-2.14-2.13q0-8.12,0-16.24a2,2,0,0,1,2.14-2.15h8.56a2.05,2.05,0,0,1,1.85,1,0.6,0.6,0,0,0,.56.3c0.61,0,1.22,0,1.83,0a1.11,1.11,0,0,0,.89-0.56,28.89,28.89,0,0,0,2.53-3.64,27.32,27.32,0,0,1,2.16-3.13,11.07,11.07,0,0,1,1.73-1.66,10.28,10.28,0,0,0,4.31-7,3.63,3.63,0,0,1,1-2.23,2.79,2.79,0,0,1,4.19.27,7.51,7.51,0,0,1,1.56,4c0.3,2.37-.68,4.38-1.76,6.37a11.1,11.1,0,0,1-1.33,1.86,2.1,2.1,0,0,0-.34.52c-0.32.74-.13,1,0.67,1,1.67,0,3.34,0,5,0a6.16,6.16,0,0,1,4.3,1.6,4.71,4.71,0,0,1,.66,5.68,0.88,0.88,0,0,0-.06,1,4.48,4.48,0,0,1-.64,4.94,0.9,0.9,0,0,0-.18.89,4.07,4.07,0,0,1-1,4.07,0.6,0.6,0,0,0-.17.6,3.64,3.64,0,0,1-3.76,4.63c-3,0-6.09,0-9.14,0h0Zm11.49-10.35a2.49,2.49,0,0,0,2.23-2.12,2.57,2.57,0,0,0-1.68-3.24,1.32,1.32,0,0,1,.2-0.12,2.48,2.48,0,0,0,1.8-2.31,3,3,0,0,0-1.48-3.09,5.5,5.5,0,0,0-2.75-.69c-1.74,0-3.48,0-5.22,0a1.67,1.67,0,0,1-1.93-2,3.12,3.12,0,0,1,.88-2.06,7.42,7.42,0,0,0,1-1.3c1-1.75,1.91-3.53,1.72-5.64a6.1,6.1,0,0,0-1.11-3.16,1.4,1.4,0,0,0-1.39-.65,1.46,1.46,0,0,0-1.15,1,3.73,3.73,0,0,0-.21.86,11.62,11.62,0,0,1-4.64,7.65,12.08,12.08,0,0,0-2.19,2.21c-0.69.94-1.29,1.94-1.92,2.92a19.52,19.52,0,0,1-2.92,3.86,1.56,1.56,0,0,1-1.21.48c-0.54,0-1.08,0-1.62,0s-0.66.16-.66,0.66c0,4.56,0,9.12,0,13.68,0,0.67,0,.71.72,0.67a1.75,1.75,0,0,1,1.49.56,2.35,2.35,0,0,0,1.79.71h17.54a5.11,5.11,0,0,0,1.29-.15,1.85,1.85,0,0,0,1.39-1.41,2.16,2.16,0,0,0-.91-2.5,2.5,2.5,0,0,0,2.16-2.07A2.64,2.64,0,0,0,492.37,422.24ZM465.56,429a1.14,1.14,0,0,0-2.27,0A1.14,1.14,0,1,0,465.56,429Z" transform="translate(-399.07 -348.65)" style="fill:#4d4d4d"/></g></svg>