<svg id="Layer_1" data-name="Layer 1" xmlns="http://www.w3.org/2000/svg" viewBox="0 0 155.89 155.89"><title>war-terrorism</title><circle cx="77.94" cy="77.94" r="77.94" style="fill:#fb8c00"/><path d="M368.76,783.74a5.87,5.87,0,0,1-4,3.57,48.3,48.3,0,0,1-19.63,2.35,32.19,32.19,0,0,1-3.47-.42,3.33,3.33,0,0,1-2.93-4,3.25,3.25,0,0,1,3.89-2.53,52.85,52.85,0,0,0,9.4.37,39.35,39.35,0,0,0,8.24-1.23c0.32-.08.89-0.05,0.7-0.68a0.71,0.71,0,0,0-1-.43A47.65,47.65,0,0,1,346.4,782c-1.46-.05-2.87-0.46-4.34-0.46a4.08,4.08,0,0,0-4.1,2.55,4.26,4.26,0,0,0,.83,4.87,5.48,5.48,0,0,0,3.3,1.49,49.4,49.4,0,0,0,8.63.45h1.56a0.61,0.61,0,0,1,.71.78q-0.61,6.53-1.2,13.05c-0.1,1.16-.19,2.32-0.28,3.48a1.53,1.53,0,0,1,0,.39c-1.22,3.35.33,6.47,0.81,9.68A12.15,12.15,0,0,0,356,825c3.39,3.52,6.68,7.15,10,10.75a4.76,4.76,0,0,1,1.32,5,4.55,4.55,0,0,1-4.06,3.28,4.24,4.24,0,0,1-3.65-1.27c-4.49-4.8-9-9.54-13.31-14.55-1.95-2.29-2.49-5.23-3.19-8.06-0.31-1.22-.53-2.47-0.76-3.71a1.78,1.78,0,0,0-2.87-1.1c-1.75,1.34-3.25,3-4.87,4.46a5.73,5.73,0,0,0-1.81,5.89c1,4.89,1.94,9.78,2.83,14.69a4.62,4.62,0,0,1-3.91,5.53,4.71,4.71,0,0,1-5.33-3.73c-1-4.85-2.07-9.69-2.77-14.6-0.17-1.22-.39-2.43-0.54-3.65-0.45-3.68,1.27-6.56,3.45-9.28a48.17,48.17,0,0,1,5.61-5.51,1.76,1.76,0,0,0,.65-1.41c0.08-3.37.67-6.7,0.88-10.06,0-.56.12-1-0.58-1.22-3.87-1-6.22-3.8-8.16-7-0.92-1.53-1.8-3.07-2.66-4.63a1.79,1.79,0,0,0-1.25-1,11.52,11.52,0,0,1-3.43-1.33,2.33,2.33,0,0,0-1.32-.22H301.94c-1.29,0-1.3,0-1.31-1.3,0-.26,0-0.52,0-0.78a1.4,1.4,0,0,1,1.3-1.83,15.62,15.62,0,0,1,3.28-.42,2.49,2.49,0,0,1,2,.45,1.6,1.6,0,0,0,.94.11l30.14,0h0.58a1.07,1.07,0,0,0,1-.43c0.17-.45-0.4-0.5-0.65-0.68a10,10,0,0,1-3.32-13,10.12,10.12,0,1,1,15.34,12.5,1.93,1.93,0,0,0-.23.28,2.36,2.36,0,0,0,1.58.14,88.33,88.33,0,0,1,9.91-.09c2.72,0.16,5.09,1.05,6.22,3.86v2.72Zm-36.11,1a1.1,1.1,0,0,0-.91.11c-0.26.36,0.21,0.62,0.39,0.9,0.35,0.54.73,1.06,1.13,1.57s0.65,1,1.16.88,0.24-.85.28-1.31C334.86,784.86,334.85,784.86,332.65,784.74Z" transform="translate(-231.97 -716.22)" style="fill:#4d4d4d"/><path d="M273.36,767.27c0.55-1,1-1.78,1.44-2.61a1.74,1.74,0,0,1,1.88-1.21,0.71,0.71,0,0,0,.79-0.22,0.68,0.68,0,0,0-.32-0.65c-0.7-1-.67-1.36.19-2.28,0.59-.64,1.18-1.29,1.76-1.94a4.54,4.54,0,0,1,2-1.21,1.56,1.56,0,0,1,2.14.74c0.2,0.35.37,1,.9,0.18,0.36-.53.68,0,0.9,0.25a4.21,4.21,0,0,1-.1,5.13,50,50,0,0,1-5.54,5.44,57.79,57.79,0,0,1-8.13,5.74,12.61,12.61,0,0,0,9-.27c2.57-1,5-2.3,7.55-3.34a3.54,3.54,0,0,1,3.85.81,0.73,0.73,0,0,1,.27.94,1.35,1.35,0,0,0,.33,1.75,1.55,1.55,0,0,1,0,2.26,4.39,4.39,0,0,1-1.55,1.3,55.29,55.29,0,0,1-9.56,4c-0.38.11-1,.59-1-0.39,0-.34-0.39-0.11-0.55,0a2,2,0,0,1-2.35-.08c-0.49-.35-0.63-0.06-0.6.4,0.07,0.87-.42,1-1.15,1a23.65,23.65,0,0,1-3.58-.32c-0.58-.09-1,0-0.74.65,0.38,1.17-.17,1.65-1.18,2.09-1.89.82-3.72,1.78-5.83,2.8l8.49,2.35a7.26,7.26,0,0,1-2.73,1.11,4.78,4.78,0,0,0-3,3.63c0,0.34.12,0.41,0.39,0.35q0.71-.15,1.42-0.34a6.47,6.47,0,0,1,3.25-.34,1.18,1.18,0,0,0,1.54-.91,6.48,6.48,0,0,1,.42-0.88c0.18-.33.43-0.6,0.68-0.09a0.77,0.77,0,0,0,1.05.36c1.55-.32,3.12-0.57,4.67-0.93a2,2,0,0,1,2.08.63c0.83,0.89.88,0.88,1.7,0,0.39-.44,1.21-0.84,1-1.39s-1.07-.09-1.63-0.19c-0.4-.07-1.1.29-1.13-0.32a1.56,1.56,0,0,1,1-1.42,4.29,4.29,0,0,1,1.43-.22c0.77,0,.76.65,0.79,1.11,0.06,0.85.41,1,1.2,0.86s1.8-.18,2.7-0.29a11,11,0,0,1,6.84,1.76c3.39,1.91,6.55,4.17,9.79,6.31a7.7,7.7,0,0,1,1.84,2.35,3.61,3.61,0,0,0,.88,1.09,0.67,0.67,0,0,0,.26-0.64c0.06-.33.21-0.43,0.54-0.29a6.06,6.06,0,0,1,3.19,4.91,5,5,0,0,1-2.82,4.66,4.75,4.75,0,0,1-5.09-.22c-2.61-1.75-5.18-3.56-7.77-5.33a60.75,60.75,0,0,0-6.42-4,1.11,1.11,0,0,0-.82-0.23c-1.66.47-3.11-.24-4.6-0.77l-0.79-.26a0.3,0.3,0,0,0,0,.46c0.68,1.18.68,1.15-.74,1.42-2.54.49-5.08,1-7.62,1.51-0.75.14-.89,0.34-0.47,1,2.73,4.56,5.39,9.16,8.13,13.7a2.14,2.14,0,0,1,.14,2.42,2.51,2.51,0,0,0-.44,1.28,1.17,1.17,0,0,0,1-.2,1.12,1.12,0,0,1,1.71.62c1.07,1.89,2.2,3.74,3.28,5.62,1.61,2.81,1.14,5.42-1.28,7.23a5.12,5.12,0,0,1-7-.94,54.79,54.79,0,0,1-3-5c-1.12-1.82-2.18-3.67-3.27-5.51-0.4-.67-0.69-1.3.39-1.64,0.4-.13.44-0.41,0.05-0.59a1.73,1.73,0,0,1-1.14-2.31c0.16-.51-0.2-0.57-0.64-0.42-1.33.46-1.32,0.44-2-.83s-1.48-2.51-2.23-3.76c-0.29-.48-0.53-0.93.2-1.24a0.47,0.47,0,0,0,.25-0.58,12.07,12.07,0,0,0-1-3,2.25,2.25,0,0,0-.65,1.21c-0.28.64-.55,0.65-0.9,0.06-0.67-1.14-1.38-2.27-2-3.43a2.5,2.5,0,0,0-1.67-1.32,6.38,6.38,0,0,1-4.63-4.19c-1.15-3.23-2.21-6.5-3.28-9.76-0.35-1.06-.25-1.14.83-0.91l3,0.64,0.19-.25c-0.58-.53-1.15-1.06-1.73-1.57a3.59,3.59,0,0,1-1.51-2.69c0-.7-0.28-0.91-1-0.56-1.36.67-1.45,0.59-1.91-.88s-0.87-2.85-1.38-4.25a6.12,6.12,0,0,1,.34-5,9.36,9.36,0,0,1,8.06-5.57,15.1,15.1,0,0,0,8.25-3.56c1.38-1.07,2.66-2.27,4-3.4,0.19-.16.34-0.49,0.63-0.33a0.72,0.72,0,0,1,.13.72A10.13,10.13,0,0,0,273.36,767.27Z" transform="translate(-231.97 -716.22)" style="fill:#e6e6e6"/><path d="M251.61,755.21c-0.23-.41-0.66-0.15-0.72-0.47a0.61,0.61,0,0,1,.45-0.56,9.65,9.65,0,1,1,8.86,16.91,9.29,9.29,0,0,1-9.17-1.53c-0.82-.64-0.94-1.77-1.53-2.6-0.28-.38.37-0.83,0.59-1.25s0.27-.8-0.46-0.78c-1.65,0-2.12-.45-2.24-2.12a9.54,9.54,0,0,1,.74-4.55,1.26,1.26,0,0,1,.38-0.63C250.2,757.62,250.46,755.9,251.61,755.21Z" transform="translate(-231.97 -716.22)" style="fill:#e6e6e6"/><path d="M293.68,777.49a7.42,7.42,0,0,1,2.6.82c0.59,0.27.92,0.29,0.73-.55a4.26,4.26,0,0,1,0-1.95l0.94,2.33c0.54-1.08.63-2.16,1.18-3.11a3.7,3.7,0,0,1-1.72,4.67,2.74,2.74,0,0,1,1.88,1.64,12.3,12.3,0,0,1,.05,2.93,18.11,18.11,0,0,1-1.1-2.34c-0.41.52-.78,1-1.11,1.41a5.92,5.92,0,0,1-1.28,1.37,21.07,21.07,0,0,1,1.39-3.42c-0.77,0-1.38-.6-2.21-0.28a3.13,3.13,0,0,1-2.18.27c0.87-.46,1.72-1,2.6-1.37,0.68-.32.68-0.59,0.08-1A9,9,0,0,1,293.68,777.49Z" transform="translate(-231.97 -716.22)" style="fill:#e6e6e6"/><path d="M277.73,785c-0.12.81-.23,1.54-0.34,2.28a0.8,0.8,0,0,1-.52.74,2.87,2.87,0,0,1-2.72-1.47,2.81,2.81,0,0,0-.74-1.83c-0.39-.31-0.08-0.51.26-0.52,1.16,0,2.32,0,3.48,0C277.74,784.13,277.75,784.59,277.73,785Z" transform="translate(-231.97 -716.22)" style="fill:#e6e6e6"/><path d="M293.52,787.77c0,0.23,0,.29,0,0.36-0.11,2.1-.11,2.07-2.12,1.7a1.2,1.2,0,0,1-1-1.12c-0.51-2.07.4-3,2.51-2.54a0.73,0.73,0,0,1,.7,1A4.54,4.54,0,0,0,293.52,787.77Z" transform="translate(-231.97 -716.22)" style="fill:#e6e6e6"/><path d="M257.05,802.54c-0.11.18-.2,0.35-0.31,0.5a4.66,4.66,0,0,1-3.37,2,0.5,0.5,0,0,1-.6-0.14,0.54,0.54,0,0,1,.22-0.59l1.84-2.48c0.22-.3.41-0.75,0.89-0.54A3.18,3.18,0,0,1,257.05,802.54Z" transform="translate(-231.97 -716.22)" style="fill:#e6e6e6"/><path d="M249.37,795.91a1.17,1.17,0,0,1,.68-1.08,0.74,0.74,0,0,1,.83.34c0.2,0.16.35,0.38,0.54,0.55,1,0.94,1,1.66-.24,2.34-0.79.43-1.16-.33-1.47-0.84A4.4,4.4,0,0,1,249.37,795.91Z" transform="translate(-231.97 -716.22)" style="fill:#e6e6e6"/></svg>