<svg id="Layer_1" data-name="Layer 1" xmlns="http://www.w3.org/2000/svg" viewBox="0 0 155.89 155.89"><title>weekly-indemnity</title><circle cx="77.94" cy="77.94" r="77.94" style="fill:#fb8c00"/><path d="M3012,419l-20.83-13.44a5.44,5.44,0,0,1-1.62-7.5h0a5.44,5.44,0,0,1,7.5-1.62l20.83,13.44a5.44,5.44,0,0,1,1.62,7.5h0A5.44,5.44,0,0,1,3012,419Z" transform="translate(-2933.62 -321.91)" style="fill:#4d4d4d"/><path d="M3032.14,408.74L3017.72,419a4.23,4.23,0,0,1-5.88-1h0a4.23,4.23,0,0,1,1-5.88l14.43-10.31a4.23,4.23,0,0,1,5.88,1h0A4.23,4.23,0,0,1,3032.14,408.74Z" transform="translate(-2933.62 -321.91)" style="fill:#4d4d4d"/><circle cx="52.24" cy="50.94" r="16.69" style="fill:#4d4d4d;stroke:#4d4d4d;stroke-linecap:round;stroke-linejoin:round;stroke-width:1.81837px"/><path d="M2985.87,462.76h0a16.74,16.74,0,0,1-16.69-16.69V407.93a16.74,16.74,0,0,1,16.69-16.69h0a16.74,16.74,0,0,1,16.69,16.69v38.15A16.74,16.74,0,0,1,2985.87,462.76Z" transform="translate(-2933.62 -321.91)" style="fill:#4d4d4d"/><polygon points="72.81 96.42 57.63 75.97 66.18 94.79 72.81 96.42" style="fill:#e6e6e6"/><path d="M2978,421.63s-5.46-16.37,7.89-18.18c0,0,3.63-10.39,5.45,5.54,2.19,19.22,0,12.64,0,12.64s13.33-5,13.94,1.11c0,0,3.64,11-12.12,9.8S2978,421.63,2978,421.63Z" transform="translate(-2933.62 -321.91)" style="fill:#fb8c00"/><path d="M2978,421.63s-7.89-23.28,0-25.28,12.12-6.67,13.33,12.64,0,12.64,0,12.64,16.74-4.78,17.34,1.38c0,0,5,12.08-15.53,9.53C2977.45,430.59,2978,421.63,2978,421.63Z" transform="translate(-2933.62 -321.91)" style="fill:none;stroke:#4d4d4d;stroke-miterlimit:10;stroke-width:2px"/><path d="M2978,421.63s-7.89-23.28,0-25.28,12.12-6.67,13.33,12.64,0,12.64,0,12.64,16.74-4.78,17.34,1.38c0,0,5,12.08-15.53,9.53C2977.45,430.59,2978,421.63,2978,421.63Z" transform="translate(-2933.62 -321.91)" style="fill:#e6e6e6"/><polyline points="40.85 82.81 57.69 83.08 43.26 92.42 58.22 93.69 44.77 102.24" style="fill:none;stroke:#4d4d4d;stroke-linecap:round;stroke-linejoin:round;stroke-width:2px"/><path d="M3039.33,401.6l1.08,0.1c1.26,0.09,2.5.33,3.75,0.43a10.65,10.65,0,0,0,4.93-.62,2.36,2.36,0,0,0,1.61-2.28,0.63,0.63,0,0,1,.36-0.57c0.64-.36,1.27-0.72,1.93-1,0.92-.46,1.86-0.9,2.8-1.35a4.6,4.6,0,0,1,1.19-.42,0.84,0.84,0,0,1,1,1.13,2.77,2.77,0,0,1-.89,1.28l-2.41,2a14.37,14.37,0,0,1-4.67,2.65c-1.45.49-2.85,1.11-4.34,1.5a13.91,13.91,0,0,1-3.29.41c-1.47,0-2.93,0-4.4,0a3.28,3.28,0,0,0-1.94.6,32,32,0,0,0-3.93,3.15c-0.2.2-.32,0.16-0.48,0q-2.38-2.84-4.78-5.66c-0.18-.21-0.13-0.31.08-0.44a46.21,46.21,0,0,0,3.81-2.62,10,10,0,0,0,1.54-1.52,5.56,5.56,0,0,1,4.33-2.11,13.26,13.26,0,0,1,5.36,1.19,6.93,6.93,0,0,0,2.21.68c0.67,0,1.33,0,2,.08a17.31,17.31,0,0,1,2.89.27,1.19,1.19,0,0,1,.79,2,1.82,1.82,0,0,1-.77.62,8.78,8.78,0,0,1-1.95.58,14.87,14.87,0,0,1-4.21,0c-1.06-.07-2.13-0.16-3.19-0.16a2.73,2.73,0,0,0-.38.05v0.06Z" transform="translate(-2933.62 -321.91)" style="fill:#4d4d4d"/><g id="Elr2ab"><path d="M3044.77,394.52c-2.59-.09-5.56.15-8.51-0.16a13.7,13.7,0,0,1-3.2-.68,5.32,5.32,0,0,1-3.65-5,17,17,0,0,1,.94-6.21,27,27,0,0,1,7.77-12.1,2.12,2.12,0,0,1,1.5-.59q5.52,0,11,0a2.13,2.13,0,0,1,1.52.56,26.53,26.53,0,0,1,8.55,15.35,11.1,11.1,0,0,1,.11,3.5c-0.33,2.62-1.95,4.25-4.71,4.86a20.9,20.9,0,0,1-4.28.49h-7.08Zm0.37-2.19c0.77,0.16,1-.21.94-0.93,0-1.24,0-1.26,1.23-1.6a4.35,4.35,0,0,0,3.34-3.51,4.43,4.43,0,0,0-1.45-4.63,8.1,8.1,0,0,0-2-1.09c-0.89-.37-1.79-0.7-2.66-1.09a1.65,1.65,0,0,1-1.16-1.49,1.79,1.79,0,0,1,1.15-1.82,2.28,2.28,0,0,1,2.62.85c0.29,0.37.31,1.07,0.81,1.09a4,4,0,0,0,1.41-.5,2.53,2.53,0,0,1,.3-0.12c0.59-.14.58-0.49,0.37-1a4.39,4.39,0,0,0-3.15-2.7,0.83,0.83,0,0,1-.79-1c0.11-.71-0.21-0.92-0.9-0.92s-1,.19-0.91.91a0.84,0.84,0,0,1-.77,1.06,4.32,4.32,0,0,0-3.39,4,4.37,4.37,0,0,0,2.61,4.53c0.5,0.24,1,.44,1.55.64a15.37,15.37,0,0,1,2.36,1,1.87,1.87,0,0,1-.07,3.18,3,3,0,0,1-3.7-.92c-0.27-.4-0.15-1.14-0.77-1.19a5,5,0,0,0-1.47.33,3,3,0,0,1-.31.08c-0.66.09-.73,0.43-0.52,1a4.78,4.78,0,0,0,3.81,3.37,0.66,0.66,0,0,1,.67.79c0,0.24,0,.48,0,0.72C3044.17,392.11,3044.38,392.49,3045.14,392.33Z" transform="translate(-2933.62 -321.91)" style="fill:#4d4d4d"/><path d="M3045.13,365.48c-1.81,0-3.63,0-5.44,0a1.74,1.74,0,0,1-1.35-.55,11.53,11.53,0,0,1-2.5-3.3c-0.79-1.78.09-3.1,2-3.08a9.13,9.13,0,0,1,3.44,1c0.69,0.29,1.37.59,2,.93a3.77,3.77,0,0,0,3.6,0c1-.5,2-0.94,3.07-1.36a6.28,6.28,0,0,1,2.8-.57,1.89,1.89,0,0,1,1.83,2.6,9.91,9.91,0,0,1-3.08,4.12,1.39,1.39,0,0,1-1,.2h-5.44Z" transform="translate(-2933.62 -321.91)" style="fill:#4d4d4d"/><path d="M3045.15,366.4h5.19c1.07,0,1.55.37,1.58,1.16s-0.5,1.27-1.58,1.28c-2.88,0-5.75,0-8.63,0-0.67,0-1.33,0-2,0a1.21,1.21,0,0,1-1.34-1.26,1.19,1.19,0,0,1,1.42-1.16h5.35Z" transform="translate(-2933.62 -321.91)" style="fill:#4d4d4d"/><path d="M3045.14,392.33c0.77,0.16,1-.21.94-0.93,0-1.24,0-1.26,1.23-1.6a4.35,4.35,0,0,0,3.34-3.51,4.43,4.43,0,0,0-1.45-4.63,8.1,8.1,0,0,0-2-1.09c-0.89-.37-1.79-0.7-2.66-1.09a1.65,1.65,0,0,1-1.16-1.49,1.79,1.79,0,0,1,1.15-1.82,2.28,2.28,0,0,1,2.62.85c0.29,0.37.31,1.07,0.81,1.09a4,4,0,0,0,1.41-.5,2.53,2.53,0,0,1,.3-0.12c0.59-.14.58-0.49,0.37-1a4.39,4.39,0,0,0-3.15-2.7,0.83,0.83,0,0,1-.79-1c0.11-.71-0.21-0.92-0.9-0.92s-1,.19-0.91.91a0.84,0.84,0,0,1-.77,1.06,4.32,4.32,0,0,0-3.39,4,4.37,4.37,0,0,0,2.61,4.53c0.5,0.24,1,.44,1.55.64a15.37,15.37,0,0,1,2.36,1,1.87,1.87,0,0,1-.07,3.18,3,3,0,0,1-3.7-.92c-0.27-.4-0.15-1.14-0.77-1.19a5,5,0,0,0-1.47.33,3,3,0,0,1-.31.08c-0.66.09-.73,0.43-0.52,1a4.78,4.78,0,0,0,3.81,3.37,0.66,0.66,0,0,1,.67.79c0,0.24,0,.48,0,0.72C3044.17,392.11,3044.38,392.49,3045.14,392.33Z" transform="translate(-2933.62 -321.91)" style="fill:#e6e6e6"/></g></svg>