<svg id="Layer_1" data-name="Layer 1" xmlns="http://www.w3.org/2000/svg" viewBox="0 0 155.89 155.89"><title>weekly-idemnity-1</title><circle cx="77.94" cy="77.94" r="77.94" style="fill:#fb8c00"/><path d="M3234.33,360a2.52,2.52,0,0,0,2.52-2.51H3236a1.66,1.66,0,0,1-1.66,1.66h-8.85V355.7h-2.57v3.41h-6.42a1,1,0,0,0-1.92,0H3214a1.66,1.66,0,0,1-1.66-1.66h-0.86A2.52,2.52,0,0,0,3214,360h0.4c0,0.11,0,.22,0,0.34a4.48,4.48,0,0,0,0,.46h-1.52a1.93,1.93,0,0,0-1.92,1.93v9.26a1.92,1.92,0,0,0,1.92,1.92h0.57V375a10.45,10.45,0,0,1,1.47,0v-1.17h1.24V375h1.46v-1.16h0.53a1.92,1.92,0,0,0,1.92-1.92v-9.26a1.93,1.93,0,0,0-1.92-1.93h-1.51a4.22,4.22,0,0,0,0-.46c0-.12,0-0.23,0-0.34h6.26v74.51h-1.54a6.48,6.48,0,0,0-6,4.1,2.48,2.48,0,1,0,2.53.67,3.88,3.88,0,0,1,3.48-2.19h5.79a3.88,3.88,0,0,1,3.48,2.19,2.49,2.49,0,1,0,2.53-.67,6.48,6.48,0,0,0-6-4.1h-1.68V360h8.85Zm-19.06,0h0.52a3.36,3.36,0,0,1,0,.34,3.3,3.3,0,0,1,0,.46h-0.51a3.31,3.31,0,0,1,0-.46A3.22,3.22,0,0,1,3215.27,360Zm2.26,7.71a2,2,0,1,1-4,0c0-1.12,2-4.28,2-4.28S3217.53,366.55,3217.53,367.67Z" transform="translate(-3103.38 -321.91)" style="fill:#e6e6e6"/><path d="M3211.78,419.19a4.32,4.32,0,0,0-4.06-4.31,3.58,3.58,0,0,0-1-7c0.82-4.52-.37-12.23-17.07-14.06l-5.58-.61c-1.25,0-2.46-.37-3.74-0.41l-0.22,0c-14.46-1.59-12.84-1.11-12.84-1.11l-1.63.56c-9.6,1.84-14.42-2.62-14.67-2.87a3.28,3.28,0,0,0-4.66,4.62c0.25,0.26,5.3,5.26,14.87,5.26a29.65,29.65,0,0,0,4.46-.35v1.48a30.46,30.46,0,0,1-4.47.35c-9.69,0-14.84-4.95-15.4-5.51a4.5,4.5,0,0,1-1.06-1.79c0-.06,0-0.12-0.06-0.19a4.18,4.18,0,0,1-.12-0.57s0-.09,0-0.14,0-.17,0-0.25,0-.18,0-0.28,0-.11,0-0.16,0-.29,0-0.44a4.53,4.53,0,0,1,.08-0.46c0-.08.05-0.17,0.08-0.25a4.52,4.52,0,0,1,7.51-1.86c0.11,0.1,3,2.83,8.94,2.83h0.44a80.58,80.58,0,0,1-10.59-4.68c-2.46-1.59-5.51-.49-7.3,1.2a5.68,5.68,0,0,0-1,1.19,10.62,10.62,0,0,0-.72,1.47v0a5.78,5.78,0,0,0,1.92,7.16s11.74,8.09,19.14,8.34c0.9,0,1.77,0,2.62,0v1.47h-6.35l-23.42-12.47a1.45,1.45,0,0,0,.17-2.66l-8.06-4.19a1.46,1.46,0,0,0-2,.62,1.44,1.44,0,0,0-.12.91l-1-.56a3.6,3.6,0,0,0-3.23,6.44l32.15,17.18h-23.44a2.16,2.16,0,0,0-2.16,2.16v1.2a2.16,2.16,0,0,0,2.16,2.16h7.6a4.26,4.26,0,0,0,0,.48v18.46a3.24,3.24,0,1,0,4.32.24v-4.05h65.29v3.79a3.24,3.24,0,1,0,4.32.31V419.19ZM3207.45,431h-65.29V419.19h65.29V431Z" transform="translate(-3103.38 -321.91)" style="fill:#4d4d4d"/><circle cx="33.27" cy="62.49" r="7.16" style="fill:#4d4d4d"/><path d="M3216.86,374.82s4.17,38.06-24.6,38.86c0,0-16.78,1.07-24.77-21" transform="translate(-3103.38 -321.91)" style="fill:none;stroke:#e6e6e6;stroke-linecap:round;stroke-linejoin:round;stroke-width:0.572894px"/><path d="M3172.19,393l-6.78,4.84a2,2,0,0,1-2.76-.46h0a2,2,0,0,1,.46-2.76l6.78-4.84a2,2,0,0,1,2.76.46h0A2,2,0,0,1,3172.19,393Z" transform="translate(-3103.38 -321.91)" style="fill:#4d4d4d"/><path d="M3175.57,389.67l0.51,0c0.59,0,1.17.16,1.76,0.2a5,5,0,0,0,2.32-.29,1.11,1.11,0,0,0,.76-1.07,0.3,0.3,0,0,1,.17-0.27c0.3-.17.6-0.34,0.91-0.49l1.31-.63a2.16,2.16,0,0,1,.56-0.2,0.4,0.4,0,0,1,.47.53,1.3,1.3,0,0,1-.42.6l-1.13.94a6.75,6.75,0,0,1-2.19,1.25c-0.68.23-1.34,0.52-2,.7a6.54,6.54,0,0,1-1.55.19h-2.07a1.54,1.54,0,0,0-.91.28,15.06,15.06,0,0,0-1.85,1.48c-0.1.09-.15,0.08-0.23,0l-2.24-2.66c-0.08-.1-0.06-0.15,0-0.21,0.61-.39,1.22-0.78,1.79-1.23a4.68,4.68,0,0,0,.72-0.71,2.61,2.61,0,0,1,2-1,6.23,6.23,0,0,1,2.52.56,3.26,3.26,0,0,0,1,.32l0.94,0a8.14,8.14,0,0,1,1.36.13,0.56,0.56,0,0,1,.37.94,0.85,0.85,0,0,1-.36.29,4.13,4.13,0,0,1-.91.27,7,7,0,0,1-2,0c-0.5,0-1-.07-1.5-0.07l-0.18,0v0Z" transform="translate(-3103.38 -321.91)" style="fill:#4d4d4d"/><g id="Elr2ab"><path d="M3178.5,384.32c-2.06-.07-4.41.12-6.75-0.13a10.87,10.87,0,0,1-2.54-.54,4.22,4.22,0,0,1-2.9-4,13.53,13.53,0,0,1,.74-4.93,21.38,21.38,0,0,1,6.17-9.6,1.68,1.68,0,0,1,1.19-.46q4.38,0,8.76,0a1.69,1.69,0,0,1,1.21.44,21,21,0,0,1,6.78,12.18,8.81,8.81,0,0,1,.08,2.78,4.31,4.31,0,0,1-3.73,3.86,16.58,16.58,0,0,1-3.4.39h-5.62Zm0.29-1.74c0.61,0.13.76-.17,0.74-0.74,0-1,0-1,1-1.27a3.45,3.45,0,0,0,2.65-2.78,3.52,3.52,0,0,0-1.15-3.67,6.42,6.42,0,0,0-1.62-.86c-0.7-.29-1.42-0.56-2.11-0.86a1.31,1.31,0,0,1-.92-1.18,1.42,1.42,0,0,1,.92-1.45,1.81,1.81,0,0,1,2.08.68c0.23,0.29.25,0.85,0.65,0.87a3.14,3.14,0,0,0,1.12-.39,2,2,0,0,1,.23-0.1c0.47-.11.46-0.39,0.29-0.76a3.48,3.48,0,0,0-2.5-2.14,0.66,0.66,0,0,1-.63-0.82c0.08-.56-0.16-0.73-0.72-0.73s-0.81.15-.72,0.72a0.67,0.67,0,0,1-.61.84,3.43,3.43,0,0,0-2.69,3.21,3.47,3.47,0,0,0,2.07,3.59c0.4,0.19.82,0.35,1.23,0.51a12.21,12.21,0,0,1,1.87.78,1.48,1.48,0,0,1-.05,2.52,2.38,2.38,0,0,1-2.94-.73c-0.22-.32-0.12-0.9-0.61-0.94a3.93,3.93,0,0,0-1.17.26,2.36,2.36,0,0,1-.25.06c-0.53.07-.58,0.34-0.41,0.8a3.79,3.79,0,0,0,3,2.68,0.52,0.52,0,0,1,.53.62c0,0.19,0,.38,0,0.57C3178,382.4,3178.19,382.7,3178.79,382.58Z" transform="translate(-3103.38 -321.91)" style="fill:#4d4d4d"/><path d="M3178.78,361.28c-1.44,0-2.88,0-4.32,0a1.38,1.38,0,0,1-1.07-.44,9.15,9.15,0,0,1-2-2.62,1.59,1.59,0,0,1,1.62-2.44,7.24,7.24,0,0,1,2.73.79c0.54,0.23,1.09.47,1.62,0.74a3,3,0,0,0,2.86,0c0.8-.39,1.61-0.74,2.44-1.08a5,5,0,0,1,2.22-.46,1.5,1.5,0,0,1,1.45,2.06,7.86,7.86,0,0,1-2.44,3.27,1.1,1.1,0,0,1-.79.16h-4.32Z" transform="translate(-3103.38 -321.91)" style="fill:#4d4d4d"/><path d="M3178.8,362h4.12c0.85,0,1.23.29,1.25,0.92a1,1,0,0,1-1.25,1c-2.28,0-4.56,0-6.85,0-0.53,0-1.06,0-1.58,0a1,1,0,0,1-1.06-1,0.94,0.94,0,0,1,1.12-.92h4.25Z" transform="translate(-3103.38 -321.91)" style="fill:#4d4d4d"/><path d="M3178.79,382.58c0.61,0.13.76-.17,0.74-0.74,0-1,0-1,1-1.27a3.45,3.45,0,0,0,2.65-2.78,3.52,3.52,0,0,0-1.15-3.67,6.42,6.42,0,0,0-1.62-.86c-0.7-.29-1.42-0.56-2.11-0.86a1.31,1.31,0,0,1-.92-1.18,1.42,1.42,0,0,1,.92-1.45,1.81,1.81,0,0,1,2.08.68c0.23,0.29.25,0.85,0.65,0.87a3.14,3.14,0,0,0,1.12-.39,2,2,0,0,1,.23-0.1c0.47-.11.46-0.39,0.29-0.76a3.48,3.48,0,0,0-2.5-2.14,0.66,0.66,0,0,1-.63-0.82c0.08-.56-0.16-0.73-0.72-0.73s-0.81.15-.72,0.72a0.67,0.67,0,0,1-.61.84,3.43,3.43,0,0,0-2.69,3.21,3.47,3.47,0,0,0,2.07,3.59c0.4,0.19.82,0.35,1.23,0.51a12.21,12.21,0,0,1,1.87.78,1.48,1.48,0,0,1-.05,2.52,2.38,2.38,0,0,1-2.94-.73c-0.22-.32-0.12-0.9-0.61-0.94a3.93,3.93,0,0,0-1.17.26,2.36,2.36,0,0,1-.25.06c-0.53.07-.58,0.34-0.41,0.8a3.79,3.79,0,0,0,3,2.68,0.52,0.52,0,0,1,.53.62c0,0.19,0,.38,0,0.57C3178,382.4,3178.19,382.7,3178.79,382.58Z" transform="translate(-3103.38 -321.91)" style="fill:#e6e6e6"/></g></svg>